<?xml version="1.0" standalone="no"?>
<!DOCTYPE svg PUBLIC "-//W3C//DTD SVG 1.1//EN" "http://www.w3.org/Graphics/SVG/1.1/DTD/svg11.dtd" >
<svg xmlns="http://www.w3.org/2000/svg">
<metadata></metadata>
<defs>
<font id="ptf_nordic_stdnormal" horiz-adv-x="1024" >
<font-face units-per-em="2048" ascent="1638" descent="-410" />
<missing-glyph horiz-adv-x="500" />
<glyph horiz-adv-x="2048" />
<glyph horiz-adv-x="2048" />
<glyph unicode="&#xd;" horiz-adv-x="2048" />
<glyph unicode=" " />
<glyph unicode="!" horiz-adv-x="468" d="M100 -2v268h268v-268h-268zM100 438v1060h268v-1060h-268z" />
<glyph unicode="&#x22;" horiz-adv-x="866" d="M100 966v532h262v-266zM500 966v532h266v-266z" />
<glyph unicode="#" horiz-adv-x="1774" d="M100 372q60 144 120 290h230q32 82 68 166h-228q60 144 122 290h228q80 188 160 380h314q-80 -192 -158 -380h178q78 188 156 380h320q-82 -190 -160 -380h224l-114 -290h-234q-36 -84 -68 -166h228q-62 -146 -118 -290h-234q-78 -186 -154 -370h-316q78 184 158 370 h-182q-78 -186 -154 -370h-316q76 184 156 370h-226zM764 662h180q34 82 66 166h-176q-36 -84 -70 -166z" />
<glyph unicode="$" horiz-adv-x="1174" d="M100 196q60 118 134 238q158 -110 344 -178q160 14 176 178q-8 76 -78 122q-222 114 -434 242q-10 8 -20 14q-76 68 -88 166q-8 38 -8 72v10q16 322 318 432v152h274v-154q184 -72 356 -176q-74 -122 -142 -238q-172 90 -354 160q-46 0 -82 -22q-90 -52 -94 -152 q10 -80 82 -124q216 -114 432 -242q10 -8 20 -14q72 -70 86 -166q8 -38 8 -66v-4v-10q-16 -318 -312 -428v-138h-274v140h-12q-114 48 -220 112q-60 36 -112 74z" />
<glyph unicode="%" horiz-adv-x="1642" d="M100 1154v8v4v-8q0 108 66 196q66 92 178 122q82 22 168 0q110 -30 178 -122q64 -90 66 -196v8v-12v2q-2 -110 -66 -200q-72 -90 -180 -120q-84 -22 -166 0q-112 30 -180 124q-64 88 -64 196v-2zM284 8l766 1490h308l-768 -1490h-306zM302 1120q8 -72 72 -96 q30 -14 60 -10q32 0 62 14q58 38 58 108v44v-2v8q-6 70 -68 102q-16 6 -32 10q-14 4 -28 2q-32 -2 -62 -12q-64 -38 -62 -110v2v-44v-16zM886 332v10v4v-10q0 110 66 198q68 90 180 122q84 20 166 -2q112 -30 182 -124q60 -88 62 -194v10v-14v2q-2 -110 -66 -194 q-70 -92 -180 -122q-84 -20 -166 0q-112 30 -180 122q-64 86 -64 194v-2zM1090 298q6 -68 70 -96q28 -12 60 -8q32 0 64 16q54 36 54 106v40v8q-4 72 -66 102q-16 6 -30 10q-16 0 -30 2q-34 0 -62 -14q-64 -36 -60 -108v-40v-18z" />
<glyph unicode="&#x26;" horiz-adv-x="1372" d="M100 436v10v8v-14q0 164 88 290q46 62 110 102q0 2 -4 4q-100 114 -120 258v4q0 138 78 246q84 110 222 150q102 36 212 -2q136 -38 222 -148q80 -110 80 -246v-4q-2 -134 -82 -246q-86 -116 -220 -152h-4q50 -64 102 -130v118h266v-240v10v-18v2q-2 -84 -30 -164 q118 -148 252 -290h-318q-36 46 -72 100q-86 -68 -188 -90q-126 -42 -244 2q-168 34 -262 166q-88 120 -88 276v-2zM354 406q0 -18 4 -30q14 -114 120 -162q48 -12 102 -8q54 0 112 18q24 14 46 42q-154 188 -298 384q-88 -64 -86 -174v-70zM412 1106q6 -92 70 -160 q10 -20 26 -32q42 6 88 8q32 2 64 18q78 44 76 130v52v12q-4 90 -88 128q-20 8 -38 12t-36 2q-44 0 -78 -16q-84 -50 -84 -154z" />
<glyph unicode="'" horiz-adv-x="456" d="M100 982v516h256v-258z" />
<glyph unicode="(" horiz-adv-x="712" d="M108 748q-8 412 220 750h284q-230 -340 -226 -754q-4 -412 226 -746h-284q-226 336 -220 750z" />
<glyph unicode=")" horiz-adv-x="710" d="M100 -2q228 334 224 750q4 412 -224 750h280q230 -340 224 -754q4 -412 -224 -746h-280z" />
<glyph unicode="*" horiz-adv-x="938" d="M100 660l148 86l-148 86l110 190l146 -86v172h220v-172l146 86l116 -188l-154 -88l148 -84l-110 -190l-146 86v-172h-220v172l-148 -86z" />
<glyph unicode="+" horiz-adv-x="1122" d="M100 608v278h320v320h280v-320h322v-278h-322v-320h-280v320h-320z" />
<glyph unicode="," horiz-adv-x="474" d="M100 -268v550h274v-276z" />
<glyph unicode="-" horiz-adv-x="1094" d="M100 610v266h894v-266h-894z" />
<glyph unicode="." horiz-adv-x="468" d="M100 2v268h268v-268h-268z" />
<glyph unicode="/" horiz-adv-x="1006" d="M100 2l284 864q74 220 148 444q30 94 62 188h312q-144 -434 -286 -868q-72 -220 -144 -444l-60 -184h-94h-22h-78h-32h-90z" />
<glyph unicode="0" horiz-adv-x="1082" d="M100 422v650q36 402 440 444q402 -42 442 -444v-650q-40 -402 -442 -436q-404 36 -440 436zM368 420q16 -156 172 -170q156 14 172 170v640q-16 158 -172 174q-158 -18 -172 -174v-640z" />
<glyph unicode="1" horiz-adv-x="834" d="M100 960v312q188 118 378 240h206l-4 -1510h-266v1148q-160 -98 -314 -190z" />
<glyph unicode="2" horiz-adv-x="1086" d="M100 902v170q34 402 436 442q402 -42 440 -442q-2 -56 -8 -108q-240 -352 -486 -694h504v-270h-874v210q306 388 592 796v82q-30 134 -168 144q-156 -14 -166 -170v-160h-88h-2h-180z" />
<glyph unicode="3" horiz-adv-x="1084" d="M100 412v118h262q-2 -72 0 -136q30 -126 158 -142q138 2 176 136q4 148 -134 194h-164v314h164q52 18 94 58q38 44 44 102v12q-2 34 -12 66q-62 118 -194 102q-126 -38 -134 -168v-122h-260v118q0 220 170 354q210 158 448 46q222 -120 246 -372q20 -204 -120 -358 q140 -150 120 -348q-20 -210 -194 -336q-220 -130 -450 -12q-218 128 -220 374z" />
<glyph unicode="4" horiz-adv-x="1112" d="M100 242v228q134 454 272 912q20 64 40 132h308l-288 -1000h168v264h276v-264h136v-272h-136v-260h-276v260h-500z" />
<glyph unicode="5" horiz-adv-x="1092" d="M100 758v740h868v-276h-600v-228q104 -2 214 -2q90 -12 180 -38q46 -20 88 -46q46 -48 80 -104q62 -106 62 -226v-160q-6 -14 -6 -26q-18 -218 -198 -340q-220 -132 -452 -18q-218 130 -226 386v118h268v-108q0 -16 2 -28q30 -130 160 -142q134 2 174 136v26v164 q-10 126 -132 164q-36 4 -74 8h-408z" />
<glyph unicode="6" horiz-adv-x="1082" d="M102 380v38v-10v20v-4v346v236q-2 46 0 94q14 214 196 342q218 136 450 16q218 -132 234 -386v-116h-276v106q-2 14 -2 28q-28 126 -158 144q-140 -4 -174 -136h2q-4 -38 -2 -74v-192q76 32 160 38h6h2q28 -6 62 -8q74 -12 140 -46t118 -90q102 -116 122 -274v-28v4v-20 v10v-26q-8 -36 -14 -70q-36 -142 -156 -240q-60 -50 -124 -74q-74 -26 -148 -18h-2h-6q-24 0 -48 4q-78 6 -140 34q-68 32 -122 88q-108 112 -120 264zM372 402q-2 -30 4 -58q10 -44 42 -70q38 -34 86 -40q16 -4 34 -4q14 2 30 4q40 2 78 30q30 18 42 50q18 44 16 94 q2 44 -8 90q-8 44 -38 74q-42 36 -90 42q-14 2 -30 6q-18 -4 -34 -6q-34 -4 -68 -20q-60 -46 -64 -124q-2 -34 0 -68z" />
<glyph unicode="7" horiz-adv-x="1070" d="M100 1228v270h870v-186v-16q-32 -82 -62 -162q-72 -194 -144 -386q-140 -374 -278 -746h-316q88 238 174 478q138 374 274 748h-518z" />
<glyph unicode="8" horiz-adv-x="1076" d="M100 422q0 178 122 306q-122 148 -122 344v2q32 400 438 444q400 -44 438 -444v-2q-6 -196 -124 -344q120 -128 124 -306q-40 -400 -438 -438q-404 38 -438 438zM380 422q12 -146 158 -168q142 22 156 168q-10 148 -156 170q-146 -24 -158 -170zM380 1074 q12 -148 158 -170q146 20 156 170q-14 146 -156 170q-146 -26 -158 -170z" />
<glyph unicode="9" horiz-adv-x="1080" d="M102 420v116h266v-108q0 -18 2 -30q26 -126 158 -140q140 2 176 134q2 36 2 72v190q-80 -36 -164 -32h-2h-6q-32 0 -60 6q-78 10 -140 44q-70 30 -116 88q-108 116 -116 278q-2 10 0 26v-4v16v-10q-2 12 0 28q0 34 8 70q34 146 152 252q60 44 126 68q72 30 146 30h6 q26 -8 52 -12q76 -6 138 -38q68 -32 120 -86q106 -116 122 -274h8v-38v10v-16v4v-4v-358v-222v-90q-26 -214 -202 -336q-220 -136 -450 -18q-218 128 -226 384zM370 1078q-2 -44 4 -90q10 -44 44 -72q40 -34 86 -42q14 -2 36 -2q14 0 30 2q32 4 64 20q66 44 70 126 q2 32 2 66q0 24 -8 54q-8 44 -40 78q-42 30 -88 38q-16 0 -30 2q-22 -2 -36 -2q-38 -6 -72 -26q-34 -24 -46 -58q-20 -44 -16 -94z" />
<glyph unicode=":" horiz-adv-x="470" d="M100 348v270h270v-270h-270zM100 864v272h270v-272h-270z" />
<glyph unicode=";" horiz-adv-x="460" d="M100 94v528h260v-264zM100 864v272h260v-272h-260z" />
<glyph unicode="&#x3c;" horiz-adv-x="1070" d="M100 630v238q50 34 106 68q130 80 258 162q252 158 506 318v-322q-278 -172 -550 -342q272 -170 550 -338v-320l-112 68q-128 80 -256 158q-254 154 -502 310z" />
<glyph unicode="=" horiz-adv-x="1078" d="M100 416v274h878v-274h-878zM100 834v276h878v-276h-878z" />
<glyph unicode="&#x3e;" horiz-adv-x="1076" d="M94 92v322q280 170 554 342q-274 170 -550 340v320l112 -68q128 -82 256 -160q254 -154 502 -312v-240q-50 -34 -106 -68q-130 -78 -260 -160z" />
<glyph unicode="?" horiz-adv-x="1124" d="M100 1312q176 110 372 186h2q40 10 84 16h18q406 -42 448 -448v-8v-2q-6 -36 -12 -68q-16 -96 -82 -164q-10 -8 -22 -12q-86 -62 -178 -108q-70 -42 -84 -116q0 -102 2 -200h-2h-266v198v12v2q0 34 10 68q10 96 82 162q12 6 22 14q86 56 178 108q68 40 78 118 q-6 98 -90 148q-42 22 -84 22q-178 -70 -346 -160q-68 116 -130 232zM380 0v266h268v-266h-268z" />
<glyph unicode="@" horiz-adv-x="1390" d="M100 0v1498h1186v-1106h-740v718h472v116h-648v-956h920v-270h-1190zM818 664h200v176h-200v-176z" />
<glyph unicode="A" horiz-adv-x="1090" d="M100 -18v1086q38 404 444 446q404 -42 446 -446v-1086h-272v480h-346v-480h-272zM372 732h346v324q-16 158 -174 174q-158 -16 -172 -174v-324z" />
<glyph unicode="B" horiz-adv-x="1076" d="M100 -2v1326v174h434q402 -40 442 -442q-4 -180 -126 -314q122 -128 126 -304q-42 -404 -442 -440h-434zM370 268h152q156 12 172 170q-14 154 -168 170h-156v-340zM370 878h156q154 20 168 178q-16 156 -172 170h-152v-348z" />
<glyph unicode="C" horiz-adv-x="1080" d="M100 418v652q32 404 438 444q402 -40 442 -444v-170h-272v160q-16 156 -170 170q-158 -14 -172 -170v-642q16 -156 172 -166q152 12 170 166v170h272v-170q-44 -398 -442 -436q-404 36 -438 436z" />
<glyph unicode="D" horiz-adv-x="1070" d="M100 0v1322v178h428q400 -44 442 -446v-618v-2q-42 -400 -442 -434h-428zM364 264h154q154 14 168 170v2v622q-16 152 -168 164h-154v-958z" />
<glyph unicode="E" horiz-adv-x="1072" d="M100 -2v1502h872v-274h-606v-352h426v-268h-426v-340h606v-268h-872z" />
<glyph unicode="F" d="M100 -2v1500h874v-274h-604v-344h426v-270h-426v-612h-270z" />
<glyph unicode="G" horiz-adv-x="1082" d="M100 420v650q34 404 440 444q402 -40 442 -444v-170h-274v162q-14 156 -168 170q-158 -14 -170 -170v-644q12 -156 170 -168q168 2 176 170v24h-176v268h442v-292q-44 -402 -442 -438q-404 34 -440 438z" />
<glyph unicode="H" horiz-adv-x="1080" d="M100 0v1498h268v-620h342v620h270v-1498h-270v608h-342v-608h-268z" />
<glyph unicode="I" horiz-adv-x="570" d="M150 -2v1500h270v-1500h-270z" />
<glyph unicode="J" horiz-adv-x="1030" d="M50 410v198h270v-198v-2q20 -148 170 -158q154 12 172 168v1080h268v-1078q-40 -402 -440 -438q-396 34 -440 428z" />
<glyph unicode="K" horiz-adv-x="1122" d="M100 0v1498h268v-598q20 36 42 74q144 260 292 522h320q-160 -282 -316 -564q-46 -80 -90 -160q-8 -14 -16 -24l16 -24q6 -12 12 -22q68 -120 134 -238q126 -232 254 -464h-314q-22 36 -42 72l-292 524v-368v-228h-268z" />
<glyph unicode="L" horiz-adv-x="1076" d="M100 2v1496h270v-1226h606v-270h-876z" />
<glyph unicode="M" horiz-adv-x="1258" d="M100 -2v1500h230q148 -238 298 -474q150 236 300 474h228l2 -1500h-272v950q-128 -218 -258 -432q-130 216 -260 434v-952h-268z" />
<glyph unicode="N" horiz-adv-x="1080" d="M100 0v1498h282q162 -396 328 -788v786h270v-1496h-290q-160 386 -322 774v-774h-268z" />
<glyph unicode="O" horiz-adv-x="1080" d="M100 422v652q34 402 438 442q402 -40 442 -442v-652q-42 -400 -442 -436q-400 38 -438 436zM368 420q14 -156 170 -166q156 10 172 166v646q-16 156 -172 170q-156 -16 -170 -170v-646z" />
<glyph unicode="P" horiz-adv-x="1020" d="M100 -2v1500h426q404 -40 444 -444q-40 -406 -444 -442h-154v-614h-272zM372 882h146q156 14 170 172q-14 156 -170 170h-146v-342z" />
<glyph unicode="Q" horiz-adv-x="1080" d="M100 420v650q34 404 440 444q400 -40 440 -444v-650q-4 -54 -16 -102q-12 -58 -42 -104q-98 94 -196 192q-8 10 -18 20v636q-16 156 -168 170q-158 -14 -172 -170v-680q178 -176 356 -356q-88 -44 -184 -44q-404 36 -440 438z" />
<glyph unicode="R" horiz-adv-x="1068" d="M100 -2v610v270v620h426q404 -42 442 -448q-4 -178 -124 -308h-2q114 -114 114 -276v-6v-462h-270v442q-16 154 -170 168h-146v-610h-270zM370 878h146q156 14 170 172q-16 154 -170 170h-146v-342z" />
<glyph unicode="S" horiz-adv-x="1076" d="M60 188q58 110 130 232q54 -36 118 -72q68 -46 144 -80q37 -17 74 -16q40 0 80 18q87 62 87 137q0 51 -41 109q-78 66 -162 116q-94 46 -176 98q-178 74 -222 252q-11 23 -11 52q0 8 1 16v2q0 222 165 359q121 100 269 100q54 0 112 -13h2q134 -40 258 -126 q60 -32 128 -68q-78 -114 -150 -234q-60 32 -118 70q-68 40 -141 71q-43 18 -86 18q-31 0 -61 -9q-101 -59 -101 -140q0 -52 41 -112q80 -64 166 -108q86 -46 174 -96q180 -80 222 -264q8 -28 8 -66v-2q-4 -230 -186 -360q-119 -85 -255 -85q-71 0 -145 23q-2 0 -2 4 q-174 68 -322 174z" />
<glyph unicode="T" horiz-adv-x="1162" d="M100 1226v272h962v-272h-346v-1228h-272v1228h-344z" />
<glyph unicode="U" horiz-adv-x="1080" d="M100 406v1092h268v-548t2 -544q4 -154 164 -162q164 0 174 158q0 546 2 1096h270v-1092q-6 -110 -60 -206q-134 -218 -381 -218t-383 218q-56 96 -56 206z" />
<glyph unicode="V" horiz-adv-x="1096" d="M50 1498h268q116 -536 230 -1070q56 270 114 540q58 264 114 530h270q-80 -326 -158 -652q-102 -426 -202 -848h-272q-24 92 -48 186l-108 444q-104 434 -208 870z" />
<glyph unicode="W" horiz-adv-x="1608" d="M50 1498h270l180 -1050l184 1050h234l188 -1050l182 1050h270l-304 -1498h-292l-158 746l-162 -746h-296z" />
<glyph unicode="X" horiz-adv-x="1076" d="M50 0q50 112 102 228q116 258 230 520q-146 326 -292 656q-20 46 -40 94h320q84 -198 168 -392q86 194 172 392h316q-146 -330 -288 -658q-20 -48 -40 -92l328 -748h-316q-86 192 -172 386q-84 -194 -168 -386h-320z" />
<glyph unicode="Y" horiz-adv-x="1082" d="M50 1498h316q98 -260 196 -516q98 256 196 516h220h100q-168 -402 -334 -802q-22 -58 -46 -114v-584h-270v580l-332 804q-24 56 -46 116z" />
<glyph unicode="Z" horiz-adv-x="1084" d="M100 1226v272h884v-200l-548 -1026h548v-270h-876v206l538 1018h-546z" />
<glyph unicode="[" horiz-adv-x="812" d="M100 0v1498h612v-272h-342v-956h342v-270h-612z" />
<glyph unicode="\" horiz-adv-x="1128" d="M100 1498h306q76 -188 156 -376q74 188 152 376h314q-126 -312 -252 -618h222v-270h-300v-98h300v-266h-300v-246h-272v246h-304v266h304v98h-304v270h224q-126 306 -246 618z" />
<glyph unicode="]" horiz-adv-x="812" d="M100 -2v272h340v954h-340v274h612v-1500h-612z" />
<glyph unicode="^" horiz-adv-x="1208" d="M100 876l430 622h146l432 -622h-338l-170 286l-166 -286h-334z" />
<glyph unicode="_" horiz-adv-x="1090" d="M98 -2v270h890v-270h-890z" />
<glyph unicode="`" horiz-adv-x="468" d="M100 1226v272h268v-544z" />
<glyph unicode="a" horiz-adv-x="1090" d="M100 -18v1086q38 404 444 446q404 -42 446 -446v-1086h-272v480h-346v-480h-272zM372 732h346v324q-16 158 -174 174q-158 -16 -172 -174v-324z" />
<glyph unicode="b" horiz-adv-x="1076" d="M100 -2v1326v174h434q402 -40 442 -442q-4 -180 -126 -314q122 -128 126 -304q-42 -404 -442 -440h-434zM370 268h152q156 12 172 170q-14 154 -168 170h-156v-340zM370 878h156q154 20 168 178q-16 156 -172 170h-152v-348z" />
<glyph unicode="c" horiz-adv-x="1080" d="M100 418v652q32 404 438 444q402 -40 442 -444v-170h-272v160q-16 156 -170 170q-158 -14 -172 -170v-642q16 -156 172 -166q152 12 170 166v170h272v-170q-44 -398 -442 -436q-404 36 -438 436z" />
<glyph unicode="d" horiz-adv-x="1070" d="M100 0v1322v178h428q400 -44 442 -446v-618v-2q-42 -400 -442 -434h-428zM364 264h154q154 14 168 170v2v622q-16 152 -168 164h-154v-958z" />
<glyph unicode="e" horiz-adv-x="1072" d="M100 -2v1502h872v-274h-606v-352h426v-268h-426v-340h606v-268h-872z" />
<glyph unicode="f" d="M100 -2v1500h874v-274h-604v-344h426v-270h-426v-612h-270z" />
<glyph unicode="g" horiz-adv-x="1082" d="M100 420v650q34 404 440 444q402 -40 442 -444v-170h-274v162q-14 156 -168 170q-158 -14 -170 -170v-644q12 -156 170 -168q168 2 176 170v24h-176v268h442v-292q-44 -402 -442 -438q-404 34 -440 438z" />
<glyph unicode="h" horiz-adv-x="1080" d="M100 0v1498h268v-620h342v620h270v-1498h-270v608h-342v-608h-268z" />
<glyph unicode="i" horiz-adv-x="570" d="M150 -2v1500h270v-1500h-270z" />
<glyph unicode="j" horiz-adv-x="1030" d="M50 410v198h270v-198v-2q20 -148 170 -158q154 12 172 168v1080h268v-1078q-40 -402 -440 -438q-396 34 -440 428z" />
<glyph unicode="k" horiz-adv-x="1122" d="M100 0v1498h268v-598q20 36 42 74q144 260 292 522h320q-160 -282 -316 -564q-46 -80 -90 -160q-8 -14 -16 -24l16 -24q6 -12 12 -22q68 -120 134 -238q126 -232 254 -464h-314q-22 36 -42 72l-292 524v-368v-228h-268z" />
<glyph unicode="l" horiz-adv-x="1076" d="M100 2v1496h270v-1226h606v-270h-876z" />
<glyph unicode="m" horiz-adv-x="1258" d="M100 -2v1500h230q148 -238 298 -474q150 236 300 474h228l2 -1500h-272v950q-128 -218 -258 -432q-130 216 -260 434v-952h-268z" />
<glyph unicode="n" horiz-adv-x="1080" d="M100 0v1498h282q162 -396 328 -788v786h270v-1496h-290q-160 386 -322 774v-774h-268z" />
<glyph unicode="o" horiz-adv-x="1080" d="M100 422v652q34 402 438 442q402 -40 442 -442v-652q-42 -400 -442 -436q-400 38 -438 436zM368 420q14 -156 170 -166q156 10 172 166v646q-16 156 -172 170q-156 -16 -170 -170v-646z" />
<glyph unicode="p" horiz-adv-x="1020" d="M100 -2v1500h426q404 -40 444 -444q-40 -406 -444 -442h-154v-614h-272zM372 882h146q156 14 170 172q-14 156 -170 170h-146v-342z" />
<glyph unicode="q" horiz-adv-x="1080" d="M100 420v650q34 404 440 444q400 -40 440 -444v-650q-4 -54 -16 -102q-12 -58 -42 -104q-98 94 -196 192q-8 10 -18 20v636q-16 156 -168 170q-158 -14 -172 -170v-680q178 -176 356 -356q-88 -44 -184 -44q-404 36 -440 438z" />
<glyph unicode="r" horiz-adv-x="1068" d="M100 -2v610v270v620h426q404 -42 442 -448q-4 -178 -124 -308h-2q114 -114 114 -276v-6v-462h-270v442q-16 154 -170 168h-146v-610h-270zM370 878h146q156 14 170 172q-16 154 -170 170h-146v-342z" />
<glyph unicode="s" horiz-adv-x="1076" d="M60 188q58 110 130 232q54 -36 118 -72q68 -46 144 -80q37 -17 74 -16q40 0 80 18q87 62 87 137q0 51 -41 109q-78 66 -162 116q-94 46 -176 98q-178 74 -222 252q-11 23 -11 52q0 8 1 16v2q0 222 165 359q121 100 269 100q54 0 112 -13h2q134 -40 258 -126 q60 -32 128 -68q-78 -114 -150 -234q-60 32 -118 70q-68 40 -141 71q-43 18 -86 18q-31 0 -61 -9q-101 -59 -101 -140q0 -52 41 -112q80 -64 166 -108q86 -46 174 -96q180 -80 222 -264q8 -28 8 -66v-2q-4 -230 -186 -360q-119 -85 -255 -85q-71 0 -145 23q-2 0 -2 4 q-174 68 -322 174z" />
<glyph unicode="t" horiz-adv-x="1162" d="M100 1226v272h962v-272h-346v-1228h-272v1228h-344z" />
<glyph unicode="u" horiz-adv-x="1080" d="M100 406v1092h268v-548t2 -544q4 -154 164 -162q164 0 174 158q0 546 2 1096h270v-1092q-6 -110 -60 -206q-134 -218 -381 -218t-383 218q-56 96 -56 206z" />
<glyph unicode="v" horiz-adv-x="1096" d="M50 1498h268q116 -536 230 -1070q56 270 114 540q58 264 114 530h270q-80 -326 -158 -652q-102 -426 -202 -848h-272q-24 92 -48 186l-108 444q-104 434 -208 870z" />
<glyph unicode="w" horiz-adv-x="1608" d="M50 1498h270l180 -1050l184 1050h234l188 -1050l182 1050h270l-304 -1498h-292l-158 746l-162 -746h-296z" />
<glyph unicode="x" horiz-adv-x="1076" d="M50 0q50 112 102 228q116 258 230 520q-146 326 -292 656q-20 46 -40 94h320q84 -198 168 -392q86 194 172 392h316q-146 -330 -288 -658q-20 -48 -40 -92l328 -748h-316q-86 192 -172 386q-84 -194 -168 -386h-320z" />
<glyph unicode="y" horiz-adv-x="1128" d="M50 1498h316q98 -260 196 -516q98 256 196 516h220h100q-168 -402 -334 -802q-22 -58 -46 -114v-584h-270v580l-332 804q-24 56 -46 116z" />
<glyph unicode="z" horiz-adv-x="1084" d="M100 1226v272h884v-200l-548 -1026h548v-270h-876v206l538 1018h-546z" />
<glyph unicode="{" horiz-adv-x="924" d="M100 686v118l112 84v610h612v-274h-340v-342l-114 -74v-118l114 -96v-324h340v-272h-612v596z" />
<glyph unicode="|" horiz-adv-x="564" d="M150 -98v1670h260l4 -1670h-264z" />
<glyph unicode="}" horiz-adv-x="926" d="M100 -2v272h340v340l114 76v118l-118 96l4 324h-340v274h610v-598l116 -92v-118l-116 -84v-608h-610z" />
<glyph unicode="~" horiz-adv-x="1082" d="M100 576v276q72 44 154 64q158 46 286 -64q120 -110 282 -66q84 20 160 66v-276q-74 -44 -156 -64q-162 -48 -286 64q-128 118 -290 70q-82 -22 -150 -70z" />
<glyph unicode="&#xa0;" />
<glyph unicode="&#xa1;" />
<glyph unicode="&#xa2;" />
<glyph unicode="&#xa3;" />
<glyph unicode="&#xa4;" />
<glyph unicode="&#xa5;" horiz-adv-x="1128" d="M100 1498h306q76 -188 156 -374q74 186 152 374h314q-126 -310 -252 -618h222v-270h-300v-96h300v-266h-300v-246h-272v246h-304v266h304v96h-304v270h224q-126 308 -246 618z" />
<glyph unicode="&#xa6;" />
<glyph unicode="&#xa7;" />
<glyph unicode="&#xa8;" />
<glyph unicode="&#xa9;" />
<glyph unicode="&#xaa;" />
<glyph unicode="&#xab;" />
<glyph unicode="&#xac;" />
<glyph unicode="&#xad;" />
<glyph unicode="&#xae;" />
<glyph unicode="&#xaf;" />
<glyph unicode="&#xb0;" />
<glyph unicode="&#xb1;" />
<glyph unicode="&#xb2;" />
<glyph unicode="&#xb3;" />
<glyph unicode="&#xb4;" horiz-adv-x="456" d="M100 982v516h256v-258z" />
<glyph unicode="&#xb5;" />
<glyph unicode="&#xb6;" />
<glyph unicode="&#xb7;" />
<glyph unicode="&#xb8;" />
<glyph unicode="&#xb9;" />
<glyph unicode="&#xba;" />
<glyph unicode="&#xbb;" />
<glyph unicode="&#xbc;" />
<glyph unicode="&#xbd;" />
<glyph unicode="&#xbe;" />
<glyph unicode="&#xbf;" />
<glyph unicode="&#xc0;" />
<glyph unicode="&#xc1;" />
<glyph unicode="&#xc2;" />
<glyph unicode="&#xc3;" />
<glyph unicode="&#xc4;" />
<glyph unicode="&#xc5;" />
<glyph unicode="&#xc6;" />
<glyph unicode="&#xc7;" />
<glyph unicode="&#xc8;" />
<glyph unicode="&#xc9;" />
<glyph unicode="&#xca;" />
<glyph unicode="&#xcb;" />
<glyph unicode="&#xcc;" />
<glyph unicode="&#xcd;" />
<glyph unicode="&#xce;" />
<glyph unicode="&#xcf;" />
<glyph unicode="&#xd0;" />
<glyph unicode="&#xd1;" />
<glyph unicode="&#xd2;" />
<glyph unicode="&#xd3;" />
<glyph unicode="&#xd4;" />
<glyph unicode="&#xd5;" />
<glyph unicode="&#xd6;" />
<glyph unicode="&#xd7;" />
<glyph unicode="&#xd8;" />
<glyph unicode="&#xd9;" />
<glyph unicode="&#xda;" />
<glyph unicode="&#xdb;" />
<glyph unicode="&#xdc;" />
<glyph unicode="&#xdd;" />
<glyph unicode="&#xde;" />
<glyph unicode="&#xdf;" />
<glyph unicode="&#xe0;" />
<glyph unicode="&#xe1;" />
<glyph unicode="&#xe2;" />
<glyph unicode="&#xe3;" />
<glyph unicode="&#xe4;" />
<glyph unicode="&#xe5;" />
<glyph unicode="&#xe6;" />
<glyph unicode="&#xe7;" />
<glyph unicode="&#xe8;" />
<glyph unicode="&#xe9;" />
<glyph unicode="&#xea;" />
<glyph unicode="&#xeb;" />
<glyph unicode="&#xec;" />
<glyph unicode="&#xed;" />
<glyph unicode="&#xee;" />
<glyph unicode="&#xef;" />
<glyph unicode="&#xf0;" />
<glyph unicode="&#xf1;" />
<glyph unicode="&#xf2;" />
<glyph unicode="&#xf3;" />
<glyph unicode="&#xf4;" />
<glyph unicode="&#xf5;" />
<glyph unicode="&#xf6;" />
<glyph unicode="&#xf7;" />
<glyph unicode="&#xf8;" />
<glyph unicode="&#xf9;" />
<glyph unicode="&#xfa;" />
<glyph unicode="&#xfb;" />
<glyph unicode="&#xfc;" />
<glyph unicode="&#xfd;" />
<glyph unicode="&#xfe;" />
<glyph unicode="&#xff;" />
<glyph unicode="&#x152;" />
<glyph unicode="&#x153;" />
<glyph unicode="&#x178;" />
<glyph unicode="&#x2c6;" />
<glyph unicode="&#x2dc;" />
<glyph unicode="&#x2000;" horiz-adv-x="822" />
<glyph unicode="&#x2001;" horiz-adv-x="1644" />
<glyph unicode="&#x2002;" horiz-adv-x="822" />
<glyph unicode="&#x2003;" horiz-adv-x="1644" />
<glyph unicode="&#x2004;" horiz-adv-x="548" />
<glyph unicode="&#x2005;" horiz-adv-x="411" />
<glyph unicode="&#x2006;" horiz-adv-x="274" />
<glyph unicode="&#x2007;" horiz-adv-x="274" />
<glyph unicode="&#x2008;" horiz-adv-x="205" />
<glyph unicode="&#x2009;" horiz-adv-x="328" />
<glyph unicode="&#x200a;" horiz-adv-x="91" />
<glyph unicode="&#x2010;" horiz-adv-x="1094" d="M100 610v266h894v-266h-894z" />
<glyph unicode="&#x2011;" horiz-adv-x="1094" d="M100 610v266h894v-266h-894z" />
<glyph unicode="&#x2012;" horiz-adv-x="1094" d="M100 610v266h894v-266h-894z" />
<glyph unicode="&#x2013;" />
<glyph unicode="&#x2014;" />
<glyph unicode="&#x2018;" horiz-adv-x="456" d="M100 982v516h256v-258z" />
<glyph unicode="&#x2019;" horiz-adv-x="456" d="M100 982v516h256v-258z" />
<glyph unicode="&#x201a;" />
<glyph unicode="&#x201c;" horiz-adv-x="866" d="M100 966v532h262v-266zM500 966v532h266v-266z" />
<glyph unicode="&#x201d;" horiz-adv-x="878" d="M100 966v532h262v-266zM500 966v532h266v-266z" />
<glyph unicode="&#x201e;" />
<glyph unicode="&#x2022;" />
<glyph unicode="&#x2026;" />
<glyph unicode="&#x202f;" horiz-adv-x="328" />
<glyph unicode="&#x2039;" />
<glyph unicode="&#x203a;" />
<glyph unicode="&#x205f;" horiz-adv-x="411" />
<glyph unicode="&#x20ac;" />
<glyph unicode="&#x2122;" />
<glyph unicode="&#xe000;" horiz-adv-x="1500" d="M0 0v1500h1500v-1500h-1500z" />
</font>
</defs>
</svg>
