<?xml version="1.0" standalone="no"?>
<!DOCTYPE svg PUBLIC "-//W3C//DTD SVG 1.1//EN" "http://www.w3.org/Graphics/SVG/1.1/DTD/svg11.dtd" >
<svg xmlns="http://www.w3.org/2000/svg">
<metadata></metadata>
<defs>
<font id="Swis721LtExBTLight" horiz-adv-x="1327" >
<font-face units-per-em="2048" ascent="1556" descent="-492" />
<missing-glyph horiz-adv-x="664" />
<glyph horiz-adv-x="0" />
<glyph horiz-adv-x="2048" />
<glyph unicode="&#xd;" horiz-adv-x="664" />
<glyph unicode=" "  horiz-adv-x="664" />
<glyph unicode="&#x09;" horiz-adv-x="664" />
<glyph unicode="&#xa0;" horiz-adv-x="664" />
<glyph unicode="!" horiz-adv-x="639" d="M238 0v180h165v-180h-165zM238 938v541h165v-541l-36 -592h-93z" />
<glyph unicode="&#x22;" horiz-adv-x="569" d="M98 881v553h101v-553h-101zM371 881v553h102v-553h-102z" />
<glyph unicode="#" horiz-adv-x="1575" d="M117 479l39 109h325l101 276h-353l35 107h354l173 483h127l-168 -483h264l172 483h127l-170 -483h315l-37 -107h-317l-98 -276h340l-37 -109h-340l-170 -479h-129l172 479h-269l-172 -479h-127l170 479h-327zM612 588h267l96 276h-266z" />
<glyph unicode="$" d="M78 451h143q14 -151 115 -234.5t276 -89.5v543q-495 58 -495 377q0 171 133 277.5t362 117.5v160h107v-160q488 -24 516 -398h-137q-17 126 -115.5 197.5t-263.5 77.5v-528q300 -37 415 -120.5t115 -264.5t-136.5 -288t-393.5 -118v-182h-107v182q-240 8 -379.5 125.5 t-154.5 325.5zM264 1062q0 -112 77.5 -168.5t270.5 -84.5v514q-162 -8 -255 -78.5t-93 -182.5zM719 127q185 5 286 75.5t101 192.5t-78.5 175.5t-308.5 78.5v-522z" />
<glyph unicode="%" horiz-adv-x="1718" d="M94 1087.5q0 191.5 85 291.5t247 100t246 -99.5t84 -292t-84 -293t-245.5 -100.5t-247 101t-85.5 292.5zM209 1086.5q0 -293.5 217 -293.5q215 0 215 293.5t-215 293.5q-217 0 -217 -293.5zM367 -39l864 1518h121l-865 -1518h-120zM963 354.5q0 191.5 85 292.5t246.5 101 t245.5 -100.5t84 -293.5t-84 -293t-245.5 -100t-246.5 101t-85 292.5zM1077 354q0 -293 216 -293t216 293t-216 293t-216 -293z" />
<glyph unicode="&#x26;" horiz-adv-x="1524" d="M109 399q0 140 88.5 247t287.5 206q-172 170 -172 314t92 228.5t243 84.5t245 -83t94 -200.5t-66 -202t-216 -168.5l466 -432q81 160 101 305h135q-12 -201 -133 -401l299 -297h-184l-199 190q-217 -229 -537 -229q-241 0 -392.5 123t-151.5 315zM256 406 q0 -138 109.5 -228t261 -90t260 47t205.5 146l-510 477q-175 -85 -250.5 -167.5t-75.5 -184.5zM442 1186q0 -138 166 -264q127 65 185.5 127.5t58.5 136t-57 122t-148.5 48.5t-148 -49.5t-56.5 -120.5z" />
<glyph unicode="'" horiz-adv-x="295" d="M98 881v553h101v-553h-101z" />
<glyph unicode="(" horiz-adv-x="627" d="M125 544.5q0 225.5 92.5 452t290.5 482.5h106q-172 -251 -252.5 -477t-80.5 -457t80.5 -458.5t252.5 -477.5h-106q-197 255 -290 482.5t-93 453z" />
<glyph unicode=")" horiz-adv-x="627" d="M10 -391q173 252 254.5 479t81.5 456.5t-81 455.5t-255 479h107q197 -256 290 -482.5t93 -452t-93 -453t-290 -482.5h-107z" />
<glyph unicode="*" horiz-adv-x="1024" d="M164 1227l33 98l264 -84v277h102v-277l264 84l33 -98l-264 -86l164 -223l-86 -62l-162 223l-162 -223l-86 62l164 223z" />
<glyph unicode="+" horiz-adv-x="1706" d="M254 561v98h551v562h98v-562h549v-98h-549v-561h-98v561h-551z" />
<glyph unicode="," horiz-adv-x="664" d="M250 0v180h166v-239q0 -115 -37.5 -172.5t-128.5 -87.5v94q74 38 74 137v88h-74z" />
<glyph unicode="-" horiz-adv-x="948" d="M113 477v131h723v-131h-723z" />
<glyph unicode="." horiz-adv-x="664" d="M250 0v180h166v-180h-166z" />
<glyph unicode="/" horiz-adv-x="569" d="M-18 -190l577 1708h113l-578 -1708h-112z" />
<glyph unicode="0" d="M104 720.5q0 368.5 144 563.5t415.5 195t415.5 -195t144 -563.5t-144.5 -564t-415 -195.5t-415 195.5t-144.5 564zM252 721q0 -617 411.5 -617t411.5 617q0 616 -411.5 616t-411.5 -616z" />
<glyph unicode="1" d="M211 1081v123h145q172 0 243 62.5t73 211.5l119 1v-1479h-144v1081h-436z" />
<glyph unicode="2" d="M100 0v8q0 209 150 369q79 84 502 316q157 86 202 129q90 86 90 223t-97.5 217.5t-284 80.5t-293.5 -98.5t-107 -283.5h-141v8q0 238 147.5 375t395.5 137t388 -120.5t140 -324.5q0 -143 -77 -243.5t-370.5 -263t-383 -238.5t-97.5 -147l916 -1v-143h-1080z" />
<glyph unicode="3" d="M101 459l151 -1q3 -175 108.5 -265.5t304 -90.5t302.5 80t104 229.5t-104.5 214t-350.5 64.5h-53v131h35q216 0 315 62.5t99 197.5q0 269 -355 269q-166 0 -261.5 -95t-98.5 -261l-150 -1q16 238 148.5 362t370 124t366.5 -100.5t129 -282.5q0 -130 -64.5 -216 t-185.5 -116q148 -17 229 -109.5t81 -242.5q0 -214 -145 -332.5t-412 -118.5t-413.5 128.5t-149.5 369.5z" />
<glyph unicode="4" d="M82 375v145l766 953h137v-965h252v-133h-252v-375h-143v375h-760zM225 508h617v766z" />
<glyph unicode="5" d="M100 375h150q46 -273 399 -273q195 0 310.5 99.5t115.5 268.5t-106.5 259t-285 90t-277.5 -48.5t-121 -133.5h-140l134 805h843v-144h-733l-80 -462q154 122 390.5 122t380 -130t143.5 -360.5t-156 -368.5t-407 -138q-487 0 -560 414z" />
<glyph unicode="6" d="M102 712.5q0 386.5 147.5 576.5t448.5 190q214 0 351 -102.5t149 -270.5h-145q-45 237 -361 237q-222 0 -330 -143.5t-108 -437.5v-41q142 233 469 233q239 0 379.5 -132.5t140.5 -360.5t-153.5 -364t-431 -136t-417 182.5t-139.5 569zM279 463.5q0 -165.5 108.5 -262.5 t298 -97t301 97.5t111.5 264.5t-103 260t-295 93t-306.5 -95t-114.5 -260.5z" />
<glyph unicode="7" d="M115 1298v144h1061v-168q-505 -626 -598 -1274h-177q137 713 646 1298h-932z" />
<glyph unicode="8" d="M102 397q0 319 316 389q-248 91 -248 328q0 170 131.5 267.5t362 97.5t362 -97.5t131.5 -267.5q0 -237 -248 -328q316 -70 316 -389q0 -206 -147 -321t-414.5 -115t-414.5 115t-147 321zM250 410q0 -145 107 -224.5t306.5 -79.5t306.5 79.5t107 225t-110.5 228 t-302.5 82.5t-303 -83t-111 -228zM315 1096q0 -240 349 -240q348 0 348 240q0 247 -348 247q-349 0 -349 -247z" />
<glyph unicode="9" d="M82 980.5q0 227.5 154 363t432 135.5t417.5 -182.5t139.5 -568.5t-147.5 -576.5t-448.5 -190.5q-214 0 -351.5 103.5t-150.5 271.5h147q45 -240 361 -240q221 0 329.5 144.5t108.5 439.5v41q-140 -234 -469 -234q-239 0 -380.5 133t-141.5 360.5zM229 975.5 q0 -167.5 103 -260t297 -92.5t306 96t112 261.5t-110 261t-297.5 95.5t-299 -97t-111.5 -264.5z" />
<glyph unicode=":" horiz-adv-x="639" d="M238 0v180h165v-180h-165zM238 840v180h165v-180h-165z" />
<glyph unicode=";" horiz-adv-x="639" d="M238 0v180h165v-239q0 -115 -37 -172.5t-128 -87.5v94q75 39 75 137v88h-75zM238 840v180h165v-180h-165z" />
<glyph unicode="&#x3c;" horiz-adv-x="1706" d="M264 569v82l1178 484v-109l-1022 -416l1022 -413v-109z" />
<glyph unicode="=" horiz-adv-x="1706" d="M254 375v98h1198v-98h-1198zM254 748v98h1198v-98h-1198z" />
<glyph unicode="&#x3e;" horiz-adv-x="1706" d="M264 88v109l1022 413l-1022 416v109l1178 -484v-82z" />
<glyph unicode="?" horiz-adv-x="1200" d="M47 1010v26q0 223 138.5 352.5t380 129.5t383 -120t141.5 -323q0 -137 -61.5 -223.5t-219.5 -200.5q-44 -32 -66 -49q-68 -52 -93 -98t-25 -115l-4 -20q0 -6 4 -13h-166v60q0 151 189 298q2 2 62 47q222 168 222 312t-97 225.5t-265 81.5t-268.5 -99.5t-100.5 -266.5v-4 h-154zM459 0v180h166v-180h-166z" />
<glyph unicode="@" horiz-adv-x="2048" d="M117 537q0 417 338 696q268 221 659 221q162 0 308 -44t262 -133.5t181.5 -218.5t65.5 -290t-62 -299.5t-181 -232.5q-144 -111 -310 -111q-192 0 -192 151q0 4 1 14t1 15q-106 -180 -295 -180q-153 0 -233 83.5t-80 244.5q0 230 135 388t327 158t256 -163l60 125h94 l-139 -562q-17 -75 -17 -105t28.5 -54.5t79.5 -24.5q108 0 207.5 79.5t153.5 207t54 282.5q0 254 -198 417t-509 163q-349 0 -582 -199q-297 -255 -297 -653q0 -338 244 -537q102 -82 244 -128t301 -46q354 0 635 193l39 -55q-294 -222 -654 -222q-383 0 -622 185 q-303 231 -303 635zM702 444q0 -111 55 -173t157 -62t184.5 71.5t111.5 188.5l62 248q-18 93 -75.5 145.5t-139.5 52.5q-154 0 -254.5 -133.5t-100.5 -337.5z" />
<glyph unicode="A" horiz-adv-x="1561" d="M16 0l682 1479h170l674 -1479h-149l-207 457h-809l-209 -457h-152zM442 600h678l-338 756z" />
<glyph unicode="B" horiz-adv-x="1518" d="M174 0v1479h719q229 0 347 -94.5t118 -278.5q0 -235 -232 -326q140 -27 213.5 -117t73.5 -233q0 -220 -127.5 -325t-394.5 -105h-717zM324 147h553q202 0 292.5 64t90.5 211.5t-84 218t-267 70.5h-585v-564zM324 844h524q195 0 276.5 58t81.5 191t-80 191.5t-264 58.5 h-538v-499z" />
<glyph unicode="C" horiz-adv-x="1659" d="M102 743.5q0 358.5 207 566.5t570 208q286 0 468 -139t218 -384h-150q-43 182 -183 280.5t-355 98.5q-291 0 -458 -169.5t-167 -462t162 -464.5t434 -172q224 0 381.5 121.5t202.5 327.5h157q-51 -274 -249 -434t-488 -160q-341 0 -545.5 212t-204.5 570.5z" />
<glyph unicode="D" horiz-adv-x="1659" d="M174 0v1479h539q252 0 383 -31t238 -114q222 -172 222 -595q0 -422 -237 -606q-93 -72 -223.5 -102.5t-382.5 -30.5h-539zM322 141h391q194 0 301 22q253 52 340 267q51 125 51 315q0 370 -207 508q-76 50 -186 71.5t-332 21.5h-358v-1205z" />
<glyph unicode="E" horiz-adv-x="1407" d="M174 0v1479h1137v-138h-989v-518h913v-139h-913v-545h989v-139h-1137z" />
<glyph unicode="F" horiz-adv-x="1335" d="M174 0v1479h1094v-140h-946v-510h843v-145h-843v-684h-148z" />
<glyph unicode="G" horiz-adv-x="1702" d="M102 742.5q0 359.5 207 567.5t570 208q278 0 459.5 -140t203.5 -370h-156q-35 178 -166.5 271t-349.5 93q-287 0 -452.5 -169t-165.5 -462t165 -465t443 -172q234 0 395.5 135t161.5 324v74h-465v129h615v-766h-119l-16 268q-77 -149 -224 -228t-350 -79q-344 0 -550 211 t-206 570.5z" />
<glyph unicode="H" horiz-adv-x="1608" d="M174 0v1479h148v-617h962v617h148v-1479h-148v721h-962v-721h-148z" />
<glyph unicode="I" horiz-adv-x="516" d="M184 0v1479h148v-1479h-148z" />
<glyph unicode="J" horiz-adv-x="1210" d="M92 438q0 37 2 57l148 1l-4 -70q0 -328 319 -328q177 0 251.5 89.5t74.5 308.5v983h147v-955q0 -177 -18.5 -256.5t-71.5 -149.5t-149 -113.5t-216 -43.5q-238 0 -360.5 121t-122.5 356z" />
<glyph unicode="K" horiz-adv-x="1460" d="M174 0v1479h148v-809l915 809h205l-697 -619l697 -860h-189l-618 764l-313 -275v-489h-148z" />
<glyph unicode="L" horiz-adv-x="1309" d="M174 0v1479h148v-1340h929v-139h-1077z" />
<glyph unicode="M" horiz-adv-x="2062" d="M176 0v1479h236l624 -1342l633 1342h217v-1479h-145l6 1352l-627 -1352h-170l-643 1352l15 -1352h-146z" />
<glyph unicode="N" horiz-adv-x="1716" d="M174 0v1479h188l1035 -1327v1327h143v-1479h-197l-1026 1327v-1327h-143z" />
<glyph unicode="O" horiz-adv-x="1759" d="M102 739.5q0 362.5 207 570.5t569.5 208t570.5 -208t208 -570.5t-208 -570.5t-570.5 -208t-569.5 208t-207 570.5zM252 739.5q0 -297.5 166.5 -466.5t460 -169t460 169t166.5 466.5t-166.5 466t-460 168.5t-460 -168.5t-166.5 -466z" />
<glyph unicode="P" horiz-adv-x="1407" d="M174 0v1479h602q277 0 411 -107.5t134 -329t-134 -329t-411 -107.5h-454v-606h-148zM322 750h428q235 0 325 66t90 229t-90.5 229.5t-324.5 66.5h-428v-591z" />
<glyph unicode="Q" horiz-adv-x="1759" d="M102 739.5q0 362.5 207 570.5t569.5 208t570.5 -208t208 -576.5t-240 -592.5l221 -176l-94 -104l-239 196q-178 -96 -426 -96q-363 0 -570 208t-207 570.5zM252 739.5q0 -297.5 166.5 -466.5t460.5 -169q206 0 303 58l-178 143l98 109l211 -181q192 192 192 498 t-166.5 474.5t-460 168.5t-460 -168.5t-166.5 -466z" />
<glyph unicode="R" horiz-adv-x="1550" d="M174 0v1479h709q530 0 530 -398q0 -147 -61.5 -235.5t-194.5 -132.5q113 -18 161.5 -75t65.5 -206q7 -57 14 -158q14 -213 58 -274h-172q-28 85 -37 237.5t-14 194.5q-14 110 -79.5 156.5t-209.5 46.5h-622v-635h-148zM322 774h544q212 0 305 67t93 219t-93 216.5 t-323 64.5h-526v-567z" />
<glyph unicode="S" horiz-adv-x="1473" d="M119 465v22h149v-8q0 -169 128 -271t340 -102t336 82.5t124 221.5q0 106 -71.5 160.5t-297.5 95.5l-315 55q-350 60 -350 369q0 195 152 311.5t415.5 116.5t417 -120.5t160.5 -334.5h-148q-14 156 -123.5 237.5t-304 81.5t-306.5 -76.5t-112 -207.5q0 -104 78 -159.5 t291 -92.5l281 -49q202 -36 295.5 -127t93.5 -254q0 -214 -158.5 -334.5t-447.5 -120.5t-458 135t-169 369z" />
<glyph unicode="T" horiz-adv-x="1298" d="M4 1343v136h1290v-136h-571v-1343h-148v1343h-571z" />
<glyph unicode="U" horiz-adv-x="1640" d="M176 539v940h150v-908q0 -242 119 -354.5t374.5 -112.5t375.5 113t120 354v908h149v-947q0 -276 -166.5 -423.5t-480 -147.5t-477.5 147t-164 431z" />
<glyph unicode="V" horiz-adv-x="1532" d="M10 1479h162l594 -1352l594 1352h162l-664 -1479h-186z" />
<glyph unicode="W" horiz-adv-x="2286" d="M39 1479h158l432 -1348l424 1348h178l418 -1348l442 1348h154l-500 -1479h-195l-411 1321l-418 -1321h-193z" />
<glyph unicode="X" horiz-adv-x="1421" d="M14 0l607 760l-564 719h189l473 -619l475 619h184l-575 -717l604 -762h-193l-501 659l-506 -659h-193z" />
<glyph unicode="Y" horiz-adv-x="1473" d="M25 1479h188l522 -721l529 721h182l-637 -840v-639h-147v639z" />
<glyph unicode="Z" horiz-adv-x="1425" d="M66 0v145l1087 1196h-1034v138h1239v-138l-1108 -1196h1108v-145h-1292z" />
<glyph unicode="[" horiz-adv-x="627" d="M152 -389v1868h417v-123h-284v-1622h284v-123h-417z" />
<glyph unicode="\" horiz-adv-x="569" d="M-102 1518h112l578 -1708h-113z" />
<glyph unicode="]" horiz-adv-x="627" d="M55 -266h285v1622h-285v123h418v-1868h-418v123z" />
<glyph unicode="^" horiz-adv-x="2048" d="M422 901l532 557h140l530 -557h-143l-457 455l-459 -455h-143z" />
<glyph unicode="_" horiz-adv-x="1024" d="M0 -383h1024v-100h-1024v100z" />
<glyph unicode="`" horiz-adv-x="1024" d="M268 1538h187l176 -303h-121z" />
<glyph unicode="a" d="M119 299q0 145 114 231q45 33 122 55q91 26 365.5 60t274.5 156q0 182 -301 182q-371 0 -387 -252h-141q24 381 510 381q155 0 250 -31q160 -52 198 -197q15 -54 15 -167v-481q0 -72 13 -90.5t45 -18.5t62 10l1 -123q-66 -20 -128.5 -20t-95.5 38.5t-41 133.5 q-89 -101 -199 -147t-286.5 -46t-283.5 85t-107 241zM262 293.5q0 -86.5 76 -139t205 -52.5q201 0 326.5 94t125.5 244v148q-71 -40 -340 -81.5t-331 -84t-62 -129z" />
<glyph unicode="b" horiz-adv-x="1384" d="M154 0v1479h143v-576q84 110 188 161.5t242 51.5q257 0 416.5 -157t159.5 -412t-159.5 -412.5t-425.5 -157.5t-421 216v-193h-143zM297 547q0 -199 116 -316.5t312 -117.5t313 118t117 316t-117 317t-313 119t-312 -118.5t-116 -317.5z" />
<glyph unicode="c" horiz-adv-x="1251" d="M84 543q0 260 160 420.5t420 160.5q205 0 349.5 -110t172.5 -287h-148q-39 127 -137 194.5t-242 67.5q-192 0 -311 -123t-119 -324.5t118 -321.5t317 -120q148 0 253.5 80.5t133.5 214.5h145q-23 -192 -171.5 -313t-360.5 -121q-260 0 -420 161t-160 421z" />
<glyph unicode="d" horiz-adv-x="1384" d="M84 547q0 255 158.5 412t414.5 157q138 0 242.5 -51.5t190.5 -161.5v576h141v-1479h-141v193q-157 -216 -423 -216t-424.5 157.5t-158.5 412.5zM229 547q0 -198 117.5 -316t313.5 -118t313 118t117 316.5t-117.5 317t-313 118.5t-313 -119t-117.5 -317z" />
<glyph unicode="e" horiz-adv-x="1319" d="M84 542q0 261 160 421.5t420.5 160.5t418.5 -158t158 -421v-33h-1003q12 -197 123 -304.5t303 -107.5q139 0 237.5 64.5t138.5 181.5h160q-43 -177 -187.5 -281t-348.5 -104q-261 0 -420.5 160t-159.5 421zM242 631h837q-12 162 -126 260t-290.5 98t-291.5 -98t-129 -260 z" />
<glyph unicode="f" horiz-adv-x="612" d="M29 967v118h184v86q0 186 50 248t179 62q64 0 160 -25v-125q-76 19 -135 19t-85 -28t-26 -130v-107h246v-118h-246v-967h-143v967h-184z" />
<glyph unicode="g" horiz-adv-x="1384" d="M84 543q0 255 158.5 412t419 157t428.5 -215v188h141v-1003q0 -144 -29 -217.5t-102 -132.5q-151 -121 -436 -121q-221 0 -352.5 85t-145.5 236h147q32 -194 346 -194q232 0 331.5 76t99.5 254v120q-88 -111 -191.5 -163t-241.5 -52q-256 0 -414.5 157.5t-158.5 412.5z M229 542.5q0 -197.5 117.5 -315.5t313.5 -118t313 117.5t117 316t-117 316.5t-313 118t-313.5 -118.5t-117.5 -316z" />
<glyph unicode="h" horiz-adv-x="1305" d="M150 0v1479h137v-594q160 223 454 223q215 0 316.5 -98.5t101.5 -307.5v-702h-141v610q0 207 -68 288t-243.5 81t-295.5 -101t-120 -260v-618h-141z" />
<glyph unicode="i" horiz-adv-x="461" d="M160 0v1085h141v-1085h-141zM160 1311v168h141v-168h-141z" />
<glyph unicode="j" horiz-adv-x="461" d="M-66 -250q54 -8 120.5 -8t94 29.5t27.5 136.5v1177h143v-1206q0 -150 -54.5 -209t-186.5 -59q-79 0 -143 14zM176 1311v168h143v-168h-143z" />
<glyph unicode="k" horiz-adv-x="1208" d="M154 0v1479h143v-899l625 505h211l-494 -399l575 -686h-190l-502 596l-225 -184v-412h-143z" />
<glyph unicode="l" horiz-adv-x="461" d="M160 0v1479h141v-1479h-141z" />
<glyph unicode="m" horiz-adv-x="2159" d="M150 0v1085h137v-200q160 223 461.5 223t394.5 -223q160 223 454 223q215 0 316.5 -98.5t101.5 -307.5v-702h-143v610q0 208 -67.5 288.5t-242.5 80.5t-295 -101t-120 -260v-618h-129v610q0 207 -68 288t-243.5 81t-295.5 -101t-120 -260v-618h-141z" />
<glyph unicode="n" horiz-adv-x="1305" d="M150 0v1085h137v-200q160 223 454 223q215 0 316.5 -98.5t101.5 -307.5v-702h-141v610q0 207 -68 288t-243.5 81t-295.5 -101t-120 -260v-618h-141z" />
<glyph unicode="o" d="M84 543q0 260 160 420.5t419.5 160.5t420.5 -161t161 -420.5t-161 -420.5t-420.5 -161t-419.5 161t-160 421zM229 542.5q0 -202.5 118 -322.5t316.5 -120t316.5 120.5t118 322.5t-118 322t-316.5 120t-316.5 -120t-118 -322.5z" />
<glyph unicode="p" horiz-adv-x="1384" d="M154 -389v1474h143v-190q82 111 186 163t244 52q259 0 417.5 -156.5t158.5 -410.5t-160 -412t-421 -158t-425 213v-575h-143zM297 543q0 -199 116 -316.5t312 -117.5t313 118t117 315.5t-117 316t-313 118.5t-312 -117.5t-116 -316.5z" />
<glyph unicode="q" horiz-adv-x="1384" d="M84 543q0 254 158 410.5t415 156.5q142 0 246.5 -52t186.5 -163v190h141v-1474h-141v575q-86 -109 -190.5 -161t-242.5 -52q-256 0 -414.5 158t-158.5 412zM229 542.5q0 -197.5 117.5 -315.5t313.5 -118t313 117.5t117 316t-117 316.5t-313 118t-313.5 -118.5 t-117.5 -316z" />
<glyph unicode="r" horiz-adv-x="762" d="M154 0v1085h143v-180q47 103 133.5 161t174 58t161.5 -30v-138q-69 21 -127 21q-252 0 -342 -275v-702h-143z" />
<glyph unicode="s" horiz-adv-x="1161" d="M59 342h144q30 -244 377 -244q183 0 278.5 51.5t95.5 149.5q0 69 -47.5 107.5t-154.5 54.5l-316 47q-185 27 -266.5 97t-81.5 208.5t129 224.5t355 86t355.5 -93.5t132.5 -258.5h-142q-32 221 -367 221q-149 0 -232 -48t-83 -125t53 -114.5t196 -58.5l279 -43 q180 -27 259 -95.5t79 -195.5q0 -172 -137 -262t-383.5 -90t-378 99t-144.5 282z" />
<glyph unicode="t" horiz-adv-x="612" d="M29 967v118h184v318h143v-318h246v-118h-246v-678q0 -121 27 -148.5t90 -27.5t127 16v-123q-100 -24 -176 -24q-114 0 -162.5 64.5t-48.5 223.5v697h-184z" />
<glyph unicode="u" horiz-adv-x="1305" d="M150 383v702h141v-610q0 -206 68 -287.5t243.5 -81.5t295.5 101.5t120 259.5v618h141v-1085h-137v201q-163 -224 -455 -224q-214 0 -315.5 99t-101.5 307z" />
<glyph unicode="v" horiz-adv-x="1104" d="M-25 1085h164l406 -940l409 940h158l-496 -1085h-147z" />
<glyph unicode="w" horiz-adv-x="1759" d="M23 1085h155l318 -952l290 952h183l307 -952l303 952h152l-373 -1085h-168l-311 967l-304 -967h-172z" />
<glyph unicode="x" horiz-adv-x="1159" d="M4 0l492 578l-433 507h183l342 -407l334 407h184l-430 -512l479 -573h-168l-403 471l-406 -471h-174z" />
<glyph unicode="y" horiz-adv-x="1104" d="M-25 1085h164l406 -940l409 940h158l-559 -1216q-75 -164 -149 -212t-205 -48q-45 0 -123 20v135q90 -18 155.5 -18t119 51t120.5 207z" />
<glyph unicode="z" horiz-adv-x="1151" d="M66 0v141l819 811h-781v133h953v-137l-817 -811h845v-137h-1019z" />
<glyph unicode="{" horiz-adv-x="1024" d="M174 477v109l45 -2q138 0 195 63t57 217v242q0 223 70 297t266 74h47v-107h-37q-131 0 -177 -49.5t-46 -204.5v-242q0 -168 -43.5 -240t-153.5 -104q110 -31 153.5 -103t43.5 -241v-241q0 -155 45 -204.5t170 -49.5l45 2v-107h-47q-197 0 -266.5 72.5t-69.5 296.5v244 q0 154 -57 217t-195 63z" />
<glyph unicode="|" horiz-adv-x="1024" d="M459 -483v2048h108v-2048h-108z" />
<glyph unicode="}" horiz-adv-x="1024" d="M172 -307h39q130 0 175.5 49t45.5 203v241q0 171 43 242t154 102q-111 32 -154 103t-43 241v242q0 157 -45 206.5t-170 49.5l-45 -2v107h47q196 0 266 -74t70 -297v-242q0 -154 57 -217t195 -63l45 2v-109l-45 2q-138 0 -195 -63t-57 -217v-244q0 -223 -69.5 -296 t-266.5 -73h-47v107z" />
<glyph unicode="~" horiz-adv-x="1706" d="M178 471v113q211 145 387 145q104 0 272 -61q11 -4 19 -7q189 -71 287 -71q162 0 387 160v-113q-203 -143 -387 -143q-99 0 -260 57q-35 12 -45 16q-176 64 -273 64q-158 0 -387 -160z" />
<glyph unicode="&#xa0;" />
<glyph unicode="&#xa1;" horiz-adv-x="639" d="M238 0v541l36 592h93l36 -592v-541h-165zM238 1298v181h165v-181h-165z" />
<glyph unicode="&#xa2;" d="M84 579q0 243 141 400t379 178v186h101v-184q195 -13 324.5 -120t156.5 -275h-148q-28 112 -116 180.5t-217 79.5v-885q137 11 227.5 87.5t118.5 205.5h145q-25 -184 -154 -298t-337 -134v-227h-101v227q-237 20 -378.5 178t-141.5 401zM229 579.5q0 -185.5 101.5 -304.5 t273.5 -136v885q-173 -20 -274 -139.5t-101 -305z" />
<glyph unicode="&#xa3;" d="M61 647v109h158q-69 168 -69 284q0 194 152 317.5t401.5 123.5t396.5 -127.5t147 -347.5v-17h-136q-6 173 -112 265t-294 92t-297 -86t-109 -228q0 -100 74 -276h469v-109h-426q37 -113 37 -198.5t-42.5 -161.5t-148.5 -166q133 51 208 51t214.5 -36t218.5 -36 q153 0 314 109l57 -125q-161 -123 -361 -123q-101 0 -265.5 42t-227.5 42q-131 0 -260 -76l-78 133q116 72 170.5 153.5t54.5 181.5t-49 210h-197z" />
<glyph unicode="&#xa4;" d="M23 547l34 84h129q-2 30 -2 90t2 94h-149l35 84h121q36 275 182 427.5t362.5 152.5t350 -124.5t157.5 -334.5h-149q-31 162 -117 239.5t-244.5 77.5t-261.5 -111.5t-131 -326.5h725l-37 -84h-696q-2 -32 -2 -93t2 -91h622l-36 -84h-580q29 -214 131.5 -329.5 t253.5 -115.5t247 93.5t130 263.5h149q-43 -227 -183.5 -362.5t-347.5 -135.5t-349.5 153.5t-177.5 432.5h-170z" />
<glyph unicode="&#xa5;" d="M-29 1442h183l510 -709l514 709h178l-363 -475h289v-84h-352l-135 -172h487v-84h-549v-627h-143v627h-545v84h481l-131 172h-350v84h287z" />
<glyph unicode="&#xa6;" horiz-adv-x="1024" d="M459 -350v758h108v-758h-108zM459 674v758h108v-758h-108z" />
<glyph unicode="&#xa7;" d="M84 670q0 203 219 295q-113 91 -113 231.5t123.5 231t340.5 90.5t337.5 -95t120.5 -272v-8h-139v4q0 120 -85 183t-249 63q-299 0 -299 -201q0 -56 23.5 -89t99.5 -67q30 -11 295 -104l62 -22q250 -86 290 -115q71 -52 103 -112.5t32 -152.5q0 -187 -213 -280 q109 -75 109 -238t-129.5 -257.5t-360.5 -94.5t-358 100t-129 285h141q2 -130 88 -192t259 -62q345 0 345 215q0 84 -33 123q-36 40 -369 154q-348 124 -401 167q-110 88 -110 220zM227 690q0 -72 40 -115t149 -81l516 -183q91 38 132.5 89t41.5 126t-44 122t-157 85 l-522 180q-156 -98 -156 -223z" />
<glyph unicode="&#xa8;" horiz-adv-x="1024" d="M178 1303v167h141v-167h-141zM705 1303v167h141v-167h-141z" />
<glyph unicode="&#xa9;" horiz-adv-x="1706" d="M121 723q0 299 219 522q207 211 512 211q307 0 522 -215q211 -211 211 -518t-211 -514q-107 -106 -242 -162.5t-280 -56.5q-301 0 -516 217q-215 213 -215 516zM201 723q0 -265 192 -459q194 -192 459 -192q269 0 461 188t192 462t-188 462q-192 192 -465 192 q-271 0 -457 -188q-194 -198 -194 -465zM469 722q0 208 107.5 331t283.5 123q135 0 226.5 -72t103.5 -189h-117q-18 80 -75 124t-142 44q-122 0 -190 -95t-68 -264t69 -263t189 -94q89 0 151 50.5t78 137.5h115q-11 -125 -108.5 -205t-241.5 -80q-177 0 -279 122t-102 330z " />
<glyph unicode="&#xaa;" horiz-adv-x="995" d="M90 928q0 154 178 202q59 15 143 25t137 17q200 23 200 108q0 127 -228 127q-279 0 -289 -176h-106q20 266 383 266q291 0 336 -157q10 -38 10 -119v-336q0 -51 10 -64.5t33 -13.5t47 8v-86q-50 -14 -96 -14t-70.5 27t-30.5 93q-66 -71 -149 -103t-215.5 -32t-212.5 59.5 t-80 168.5zM197 924.5q0 -60.5 56.5 -97t154.5 -36.5q151 0 245.5 66t94.5 171v102q-62 -30 -261.5 -57.5t-244.5 -57.5t-45 -90.5z" />
<glyph unicode="&#xab;" horiz-adv-x="1067" d="M129 442v201l358 272v-161l-276 -211l276 -211v-162zM559 442v201l361 272v-161l-277 -211l277 -211v-162z" />
<glyph unicode="&#xac;" horiz-adv-x="1706" d="M254 758v100h1198v-502h-96v402h-1102z" />
<glyph unicode="&#xad;" horiz-adv-x="948" d="M113 477v131h723v-131h-723z" />
<glyph unicode="&#xae;" horiz-adv-x="1706" d="M121 723q0 144 56.5 279.5t162.5 242.5q207 211 514 211q309 0 520 -215q211 -211 211 -518t-211 -514q-107 -106 -242 -162.5t-281 -56.5q-302 0 -515 217q-215 213 -215 516zM201 723q0 -265 192 -459q194 -192 459 -192q269 0 461 188t192 462t-186 462 q-194 192 -467 192q-267 0 -455 -188q-196 -200 -196 -465zM565 313v844h309q178 0 263.5 -57t85.5 -176q0 -89 -54 -149t-145 -73l188 -389h-145l-178 371h-197v-371h-127zM692 768h158q134 0 188 33.5t54 115t-57 118t-185 36.5h-158v-303z" />
<glyph unicode="&#xaf;" horiz-adv-x="1024" d="M127 1325v123h768v-123h-768z" />
<glyph unicode="&#xb0;" horiz-adv-x="674" d="M59 1173.5q0 116.5 81.5 197.5t197 81t196 -81.5t80.5 -196.5t-81.5 -197t-197.5 -82t-196 81t-80 197.5zM129 1173.5q0 -86.5 61 -146.5t148 -60t147 60t60 146.5t-60.5 147.5t-146.5 61t-147.5 -61t-61.5 -147.5z" />
<glyph unicode="&#xb1;" horiz-adv-x="1706" d="M254 51v99h1198v-99h-1198zM254 723v98h551v348h98v-348h549v-98h-549v-348h-98v348h-551z" />
<glyph unicode="&#xb2;" horiz-adv-x="877" d="M66 575v5q0 127 100 221q45 46 270 160q164 82 194 108q60 52 60 134t-65 130.5t-188 48.5t-194 -59.5t-71 -171.5h-92v6q0 142 97 224.5t260.5 82.5t256 -72t92.5 -194q0 -86 -49.5 -145.5t-244.5 -158.5t-254 -145t-64 -87h604v-87h-712z" />
<glyph unicode="&#xb3;" horiz-adv-x="877" d="M66 850h99q8 -213 275 -213q130 0 198.5 47.5t68.5 137.5t-69 128.5t-230 38.5h-35v80h22q143 0 208 37t65 119q0 159 -234 159q-109 0 -172.5 -57t-64.5 -155h-99q10 143 97 216.5t244 73.5t242 -60t85 -169q0 -78 -42.5 -129t-121.5 -70q96 -10 149.5 -65.5 t53.5 -145.5q0 -129 -95 -199.5t-271 -70.5t-273 76.5t-100 220.5z" />
<glyph unicode="&#xb4;" horiz-adv-x="1024" d="M393 1235l176 303h187l-242 -303h-121z" />
<glyph unicode="&#xb5;" horiz-adv-x="1110" d="M-111 -426l316 1491h139l-125 -592q-16 -78 -16 -139q0 -117 58 -180.5t175 -63.5t207 107.5t133 310.5l121 557h139l-164 -770q-22 -101 -22 -133q0 -66 68 -66q16 0 36 2l-20 -110q-42 -11 -86 -11q-137 0 -137 146v14q-42 -77 -120 -119.5t-179 -42.5q-189 0 -269 156 l-114 -557h-140z" />
<glyph unicode="&#xb6;" horiz-adv-x="1024" d="M84 1133q0 154 107.5 250t285.5 96h463v-70h-127v-1409h-82v1409h-186v-1409h-84v782q-174 8 -275.5 102.5t-101.5 248.5z" />
<glyph unicode="&#xb7;" horiz-adv-x="664" d="M225 720.5q0 44.5 31 74.5t76 30t75.5 -30t30.5 -74.5t-31 -75.5t-75.5 -31t-75.5 31t-31 75.5z" />
<glyph unicode="&#xb8;" horiz-adv-x="1024" d="M289 -401l24 65q132 -37 211 -37q144 0 144 97q0 79 -97 79q-30 0 -112 -18l-41 31l104 184h80l-72 -127q42 12 86 12q87 0 135 -43t48 -123t-62.5 -126t-175.5 -46q-114 0 -272 52z" />
<glyph unicode="&#xb9;" horiz-adv-x="877" d="M139 1225v73h97q113 0 160 37.5t49 126.5h77v-887h-94v650h-289z" />
<glyph unicode="&#xba;" horiz-adv-x="995" d="M63 1099q0 182 120 294t315 112t315.5 -112t120.5 -294t-120.5 -294.5t-315.5 -112.5t-315 112.5t-120 294.5zM172 1099q0 -142 88.5 -226.5t237.5 -84.5t237 84.5t88 226.5t-88 226t-237 84t-237.5 -84t-88.5 -226z" />
<glyph unicode="&#xbb;" horiz-adv-x="1067" d="M147 170v162l277 211l-277 211v161l359 -272v-201zM580 170v162l276 211l-276 211v161l358 -272v-201z" />
<glyph unicode="&#xbc;" horiz-adv-x="2099" d="M133 1239v68h92q107 0 152 34.5t47 118.5h74v-827h-90v606h-275zM410 -39l1146 1518h134l-1149 -1518h-131zM1313 209v82l483 534h86v-540h160v-76h-160v-209h-90v209h-479zM1403 285h389v428z" />
<glyph unicode="&#xbd;" horiz-adv-x="2099" d="M133 1239v68h92q107 0 152 34.5t47 118.5h74v-827h-90v606h-275zM410 -39l1146 1518h134l-1149 -1518h-131zM1325 0v4q0 119 94 207q45 41 231 134t214 117q55 46 55 122.5t-61.5 122t-178.5 45.5t-184.5 -55t-67.5 -158h-90v4q0 133 93.5 209.5t249.5 76.5t244.5 -67.5 t88.5 -181.5q0 -81 -49 -137t-235.5 -148t-241.5 -134.5t-59 -80.5h577v-80h-680z" />
<glyph unicode="&#xbe;" horiz-adv-x="2097" d="M64 889h93q8 -199 263 -199q124 0 189 44.5t65 129t-65.5 120.5t-219.5 36h-35v74h23q137 0 198.5 34.5t61.5 110.5q0 150 -223 150q-105 0 -164.5 -52.5t-63.5 -146.5h-94q11 133 94.5 201.5t233 68.5t230.5 -55.5t81 -157.5q0 -73 -40.5 -121t-116.5 -65 q91 -9 142.5 -61t51.5 -136q0 -120 -91 -187t-258.5 -67t-260.5 72.5t-94 206.5zM410 -39l1146 1518h134l-1149 -1518h-131zM1313 209v82l483 534h86v-540h160v-76h-160v-209h-90v209h-479zM1403 285h389v428z" />
<glyph unicode="&#xbf;" horiz-adv-x="1200" d="M96 403q0 136 62.5 223.5t219.5 201.5q45 32 66 49q68 51 93.5 98t25.5 117l4 20q0 5 -4 12h166v-57q0 -85 -33 -145q-35 -64 -217 -203q-223 -169 -223 -313t97 -226t264.5 -82t267.5 99.5t100 267.5v4h156v-27q0 -222 -140 -351.5t-381 -129.5t-382.5 119.5 t-141.5 322.5zM563 1298v181h166v-181h-166z" />
<glyph unicode="&#xc0;" horiz-adv-x="1561" d="M16 0l682 1479h170l674 -1479h-149l-207 457h-809l-209 -457h-152zM442 600h678l-338 756zM553 1931h187l176 -303h-121z" />
<glyph unicode="&#xc1;" horiz-adv-x="1561" d="M16 0l682 1479h170l674 -1479h-149l-207 457h-809l-209 -457h-152zM442 600h678l-338 756zM678 1628l176 303h187l-242 -303h-121z" />
<glyph unicode="&#xc2;" horiz-adv-x="1561" d="M16 0l682 1479h170l674 -1479h-149l-207 457h-809l-209 -457h-152zM428 1628l285 303h168l285 -303h-158l-211 217l-211 -217h-158zM442 600h678l-338 756z" />
<glyph unicode="&#xc3;" horiz-adv-x="1561" d="M16 0l682 1479h170l674 -1479h-149l-207 457h-809l-209 -457h-152zM410 1659q12 112 70.5 175.5t148.5 63.5q59 0 129 -37l92 -47q9 -4 46.5 -23.5t72.5 -19.5q95 0 117 129h98q-12 -112 -70.5 -176.5t-148.5 -64.5q-54 0 -129 39l-94 47q-9 4 -45 22.5t-72 18.5 q-95 0 -117 -127h-98zM442 600h678l-338 756z" />
<glyph unicode="&#xc4;" horiz-adv-x="1561" d="M16 0l682 1479h170l674 -1479h-149l-207 457h-809l-209 -457h-152zM442 600h678l-338 756zM463 1696v167h141v-167h-141zM990 1696v167h141v-167h-141z" />
<glyph unicode="&#xc5;" horiz-adv-x="1561" d="M16 0l682 1479h170l674 -1479h-149l-207 457h-809l-209 -457h-152zM442 600h678l-338 756zM553 1745q0 92 62 145.5t169 53.5t168.5 -53.5t61.5 -146t-61.5 -145.5t-168.5 -53t-169 53.5t-62 145.5zM655 1745.5q0 -53.5 35 -85.5t92.5 -32t93 32t35.5 85t-35 85t-94 32 t-93 -31.5t-34 -85z" />
<glyph unicode="&#xc6;" horiz-adv-x="2353" d="M8 0l807 1479h1440v-138h-989v-518h913v-139h-913v-545h989v-139h-1135v457h-690l-258 -457h-164zM508 600h600v746h-195z" />
<glyph unicode="&#xc7;" horiz-adv-x="1659" d="M102 743.5q0 358.5 207 566.5t570 208q286 0 468 -139t218 -384h-150q-43 182 -183 280.5t-355 98.5q-291 0 -458 -169.5t-167 -462t162 -464.5t434 -172q224 0 381.5 121.5t202.5 327.5h157q-51 -274 -249 -434t-488 -160q-341 0 -545.5 212t-204.5 570.5zM606 -401 l24 65q132 -37 211 -37q144 0 144 97q0 79 -97 79q-30 0 -112 -18l-41 31l104 184h80l-72 -127q42 12 86 12q87 0 135 -43t48 -123t-62.5 -126t-175.5 -46q-114 0 -272 52z" />
<glyph unicode="&#xc8;" horiz-adv-x="1407" d="M174 0v1479h1137v-138h-989v-518h913v-139h-913v-545h989v-139h-1137zM497 1931h187l176 -303h-121z" />
<glyph unicode="&#xc9;" horiz-adv-x="1407" d="M174 0v1479h1137v-138h-989v-518h913v-139h-913v-545h989v-139h-1137zM622 1628l176 303h187l-242 -303h-121z" />
<glyph unicode="&#xca;" horiz-adv-x="1407" d="M174 0v1479h1137v-138h-989v-518h913v-139h-913v-545h989v-139h-1137zM372 1628l285 303h168l285 -303h-158l-211 217l-211 -217h-158z" />
<glyph unicode="&#xcb;" horiz-adv-x="1407" d="M174 0v1479h1137v-138h-989v-518h913v-139h-913v-545h989v-139h-1137zM407 1696v167h141v-167h-141zM934 1696v167h141v-167h-141z" />
<glyph unicode="&#xcc;" horiz-adv-x="516" d="M14 1931h187l176 -303h-121zM184 0v1479h148v-1479h-148z" />
<glyph unicode="&#xcd;" horiz-adv-x="516" d="M139 1628l176 303h187l-242 -303h-121zM184 0v1479h148v-1479h-148z" />
<glyph unicode="&#xce;" horiz-adv-x="516" d="M-111 1628l285 303h168l285 -303h-158l-211 217l-211 -217h-158zM184 0v1479h148v-1479h-148z" />
<glyph unicode="&#xcf;" horiz-adv-x="516" d="M-76 1696v167h141v-167h-141zM184 0v1479h148v-1479h-148zM451 1696v167h141v-167h-141z" />
<glyph unicode="&#xd0;" horiz-adv-x="1669" d="M0 735v109h184v635h537q251 0 382 -30.5t226 -100.5q238 -189 238 -609q0 -421 -240 -606q-93 -72 -223.5 -102.5t-382.5 -30.5h-537v735h-184zM332 141h389q195 0 303 22t184 73q107 70 157 194.5t50 314.5q0 370 -207 508q-76 50 -186.5 71.5t-333.5 21.5h-356v-502 h524v-109h-524v-594z" />
<glyph unicode="&#xd1;" horiz-adv-x="1716" d="M174 0v1479h188l1035 -1327v1327h143v-1479h-197l-1026 1327v-1327h-143zM471 1659q12 112 70.5 175.5t148.5 63.5q59 0 129 -37l92 -47q9 -4 46.5 -23.5t72.5 -19.5q95 0 117 129h98q-12 -112 -70.5 -176.5t-148.5 -64.5q-54 0 -129 39l-94 47q-9 4 -45 22.5t-72 18.5 q-95 0 -117 -127h-98z" />
<glyph unicode="&#xd2;" horiz-adv-x="1759" d="M102 739.5q0 362.5 207 570.5t569.5 208t570.5 -208t208 -570.5t-208 -570.5t-570.5 -208t-569.5 208t-207 570.5zM252 739.5q0 -297.5 166.5 -466.5t460 -169t460 169t166.5 466.5t-166.5 466t-460 168.5t-460 -168.5t-166.5 -466zM637 1931h187l176 -303h-121z" />
<glyph unicode="&#xd3;" horiz-adv-x="1759" d="M102 739.5q0 362.5 207 570.5t569.5 208t570.5 -208t208 -570.5t-208 -570.5t-570.5 -208t-569.5 208t-207 570.5zM252 739.5q0 -297.5 166.5 -466.5t460 -169t460 169t166.5 466.5t-166.5 466t-460 168.5t-460 -168.5t-166.5 -466zM762 1628l176 303h187l-242 -303h-121 z" />
<glyph unicode="&#xd4;" horiz-adv-x="1759" d="M102 739.5q0 362.5 207 570.5t569.5 208t570.5 -208t208 -570.5t-208 -570.5t-570.5 -208t-569.5 208t-207 570.5zM252 739.5q0 -297.5 166.5 -466.5t460 -169t460 169t166.5 466.5t-166.5 466t-460 168.5t-460 -168.5t-166.5 -466zM512 1628l285 303h168l285 -303h-158 l-211 217l-211 -217h-158z" />
<glyph unicode="&#xd5;" horiz-adv-x="1759" d="M102 739.5q0 362.5 207 570.5t569.5 208t570.5 -208t208 -570.5t-208 -570.5t-570.5 -208t-569.5 208t-207 570.5zM252 739.5q0 -297.5 166.5 -466.5t460 -169t460 169t166.5 466.5t-166.5 466t-460 168.5t-460 -168.5t-166.5 -466zM494 1659q12 112 70.5 175.5 t148.5 63.5q59 0 129 -37l92 -47q9 -4 46.5 -23.5t72.5 -19.5q95 0 117 129h98q-12 -112 -70.5 -176.5t-148.5 -64.5q-54 0 -129 39l-94 47q-9 4 -45 22.5t-72 18.5q-95 0 -117 -127h-98z" />
<glyph unicode="&#xd6;" horiz-adv-x="1759" d="M102 739.5q0 362.5 207 570.5t569.5 208t570.5 -208t208 -570.5t-208 -570.5t-570.5 -208t-569.5 208t-207 570.5zM252 739.5q0 -297.5 166.5 -466.5t460 -169t460 169t166.5 466.5t-166.5 466t-460 168.5t-460 -168.5t-166.5 -466zM547 1696v167h141v-167h-141z M1074 1696v167h141v-167h-141z" />
<glyph unicode="&#xd7;" horiz-adv-x="1706" d="M305 129l481 481l-481 482l70 69l481 -481l481 481l70 -69l-481 -482l481 -481l-70 -70l-481 482l-481 -482z" />
<glyph unicode="&#xd8;" horiz-adv-x="1759" d="M96 0l195 199q-189 191 -189 547t207 564t563 208t551 -189l179 180l61 -57l-178 -182q172 -215 172 -531q0 -365 -208.5 -571.5t-578.5 -206.5q-156 0 -281 42t-243 134l-190 -192zM252 739q0 -142 34.5 -246t110.5 -192l920 922q-159 151 -445.5 151t-453 -168.5 t-166.5 -466.5zM451 242q170 -138 443.5 -138t442 167.5t168.5 455.5q0 273 -133 432z" />
<glyph unicode="&#xd9;" horiz-adv-x="1640" d="M176 539v940h150v-908q0 -242 119 -354.5t374.5 -112.5t375.5 113t120 354v908h149v-947q0 -276 -166.5 -423.5t-480 -147.5t-477.5 147t-164 431zM577 1931h187l176 -303h-121z" />
<glyph unicode="&#xda;" horiz-adv-x="1640" d="M176 539v940h150v-908q0 -242 119 -354.5t374.5 -112.5t375.5 113t120 354v908h149v-947q0 -276 -166.5 -423.5t-480 -147.5t-477.5 147t-164 431zM702 1628l176 303h187l-242 -303h-121z" />
<glyph unicode="&#xdb;" horiz-adv-x="1640" d="M176 539v940h150v-908q0 -242 119 -354.5t374.5 -112.5t375.5 113t120 354v908h149v-947q0 -276 -166.5 -423.5t-480 -147.5t-477.5 147t-164 431zM452 1628l285 303h168l285 -303h-158l-211 217l-211 -217h-158z" />
<glyph unicode="&#xdc;" horiz-adv-x="1640" d="M176 539v940h150v-908q0 -242 119 -354.5t374.5 -112.5t375.5 113t120 354v908h149v-947q0 -276 -166.5 -423.5t-480 -147.5t-477.5 147t-164 431zM487 1696v167h141v-167h-141zM1014 1696v167h141v-167h-141z" />
<glyph unicode="&#xdd;" horiz-adv-x="1473" d="M25 1479h188l522 -721l529 721h182l-637 -840v-639h-147v639zM618 1628l176 303h187l-242 -303h-121z" />
<glyph unicode="&#xde;" horiz-adv-x="1407" d="M174 0v1479h148v-289h454q277 0 411 -107.5t134 -329t-134 -329t-411 -107.5h-454v-317h-148zM322 461h428q235 0 325 66t90 228.5t-90 229t-325 66.5h-428v-590z" />
<glyph unicode="&#xdf;" horiz-adv-x="1264" d="M168 0v1016q0 253 110 358t352 105t370 -101t128 -274q0 -104 -59.5 -182t-169.5 -115q293 -62 293 -367q0 -214 -137 -335t-379 -121q-82 0 -164 16v131q120 -16 174 -16q170 0 266.5 87.5t96.5 241t-108 223.5t-343 70l-86 -1v126l74 -2q210 0 303.5 58t93.5 182 t-85.5 187t-259 63t-250.5 -75t-77 -259v-1016h-143z" />
<glyph unicode="&#xe0;" d="M119 299q0 145 114 231q45 33 122 55q91 26 365.5 60t274.5 156q0 182 -301 182q-371 0 -387 -252h-141q24 381 510 381q155 0 250 -31q160 -52 198 -197q15 -54 15 -167v-481q0 -72 13 -90.5t45 -18.5t62 10l1 -123q-66 -20 -128.5 -20t-95.5 38.5t-41 133.5 q-89 -101 -199 -147t-286.5 -46t-283.5 85t-107 241zM262 293.5q0 -86.5 76 -139t205 -52.5q201 0 326.5 94t125.5 244v148q-71 -40 -340 -81.5t-331 -84t-62 -129zM450 1538h187l176 -303h-121z" />
<glyph unicode="&#xe1;" d="M119 299q0 145 114 231q45 33 122 55q91 26 365.5 60t274.5 156q0 182 -301 182q-371 0 -387 -252h-141q24 381 510 381q155 0 250 -31q160 -52 198 -197q15 -54 15 -167v-481q0 -72 13 -90.5t45 -18.5t62 10l1 -123q-66 -20 -128.5 -20t-95.5 38.5t-41 133.5 q-89 -101 -199 -147t-286.5 -46t-283.5 85t-107 241zM262 293.5q0 -86.5 76 -139t205 -52.5q201 0 326.5 94t125.5 244v148q-71 -40 -340 -81.5t-331 -84t-62 -129zM575 1235l176 303h187l-242 -303h-121z" />
<glyph unicode="&#xe2;" d="M119 299q0 145 114 231q45 33 122 55q91 26 365.5 60t274.5 156q0 182 -301 182q-371 0 -387 -252h-141q24 381 510 381q155 0 250 -31q160 -52 198 -197q15 -54 15 -167v-481q0 -72 13 -90.5t45 -18.5t62 10l1 -123q-66 -20 -128.5 -20t-95.5 38.5t-41 133.5 q-89 -101 -199 -147t-286.5 -46t-283.5 85t-107 241zM262 293.5q0 -86.5 76 -139t205 -52.5q201 0 326.5 94t125.5 244v148q-71 -40 -340 -81.5t-331 -84t-62 -129zM325 1235l285 303h168l285 -303h-158l-211 217l-211 -217h-158z" />
<glyph unicode="&#xe3;" d="M119 299q0 145 114 231q45 33 122 55q91 26 365.5 60t274.5 156q0 182 -301 182q-371 0 -387 -252h-141q24 381 510 381q155 0 250 -31q160 -52 198 -197q15 -54 15 -167v-481q0 -72 13 -90.5t45 -18.5t62 10l1 -123q-66 -20 -128.5 -20t-95.5 38.5t-41 133.5 q-89 -101 -199 -147t-286.5 -46t-283.5 85t-107 241zM262 293.5q0 -86.5 76 -139t205 -52.5q201 0 326.5 94t125.5 244v148q-71 -40 -340 -81.5t-331 -84t-62 -129zM307 1266q12 112 70.5 175.5t148.5 63.5q59 0 129 -37l92 -47q9 -4 46.5 -23.5t72.5 -19.5q95 0 117 129h98 q-12 -112 -70.5 -176.5t-148.5 -64.5q-54 0 -129 39l-94 47q-9 4 -45 22.5t-72 18.5q-95 0 -117 -127h-98z" />
<glyph unicode="&#xe4;" d="M119 299q0 145 114 231q45 33 122 55q91 26 365.5 60t274.5 156q0 182 -301 182q-371 0 -387 -252h-141q24 381 510 381q155 0 250 -31q160 -52 198 -197q15 -54 15 -167v-481q0 -72 13 -90.5t45 -18.5t62 10l1 -123q-66 -20 -128.5 -20t-95.5 38.5t-41 133.5 q-89 -101 -199 -147t-286.5 -46t-283.5 85t-107 241zM262 293.5q0 -86.5 76 -139t205 -52.5q201 0 326.5 94t125.5 244v148q-71 -40 -340 -81.5t-331 -84t-62 -129zM360 1303v167h141v-167h-141zM887 1303v167h141v-167h-141z" />
<glyph unicode="&#xe5;" d="M119 299q0 145 114 231q45 33 122 55q91 26 365.5 60t274.5 156q0 182 -301 182q-371 0 -387 -252h-141q24 381 510 381q155 0 250 -31t139.5 -86t59 -110t14.5 -168v-481q0 -72 13 -90.5t45 -18.5t62 10l1 -123q-66 -20 -128.5 -20t-95.5 38.5t-41 133.5 q-89 -101 -199 -147t-286.5 -46t-283.5 85t-107 241zM262 293.5q0 -86.5 76 -139t205 -52.5q201 0 326.5 94t125.5 244v148q-71 -40 -340 -81.5t-331 -84t-62 -129zM463 1388.5q0 92.5 62 145.5t169 53t168.5 -53t61.5 -145.5t-61.5 -145.5t-168.5 -53t-169 53t-62 145.5z M565 1389.5q0 -53.5 35 -85.5t92.5 -32t93 32t35.5 85t-35 84.5t-94 31.5t-93 -31t-34 -84.5z" />
<glyph unicode="&#xe6;" horiz-adv-x="2165" d="M59 289q0 144 115 231q45 33 122 55q87 25 363.5 59.5t276.5 156.5q0 180 -301 180q-373 0 -387 -252h-139q24 383 507 383q180 0 283.5 -43.5t151.5 -138.5q171 204 445 204t431.5 -158.5t157.5 -424.5v-29h-1004q12 -193 123 -303.5t291 -110.5q140 0 237 64.5 t136 183.5h162q-43 -174 -186.5 -279.5t-323.5 -105.5q-358 0 -502 256q-185 -256 -549 -256q-195 0 -302.5 86.5t-107.5 241.5zM205 285.5q0 -86.5 76.5 -139t205.5 -52.5q206 0 329.5 93.5t123.5 248.5v144q-72 -40 -341.5 -81.5t-331.5 -84t-62 -129zM1085 631h834 q-6 159 -120.5 258.5t-289.5 99.5t-292.5 -99.5t-131.5 -258.5z" />
<glyph unicode="&#xe7;" horiz-adv-x="1251" d="M84 543q0 260 160 420.5t420 160.5q205 0 349.5 -110t172.5 -287h-148q-39 127 -137 194.5t-242 67.5q-192 0 -311 -123t-119 -324.5t118 -321.5t317 -120q148 0 253.5 80.5t133.5 214.5h145q-23 -192 -171.5 -313t-360.5 -121q-260 0 -420 161t-160 421zM430 -401l24 65 q132 -37 211 -37q144 0 144 97q0 79 -97 79q-30 0 -112 -18l-41 31l104 184h80l-72 -127q42 12 86 12q87 0 135 -43t48 -123t-62.5 -126t-175.5 -46q-114 0 -272 52z" />
<glyph unicode="&#xe8;" horiz-adv-x="1319" d="M84 542q0 261 160 421.5t420.5 160.5t418.5 -158t158 -421v-33h-1003q12 -197 123 -304.5t303 -107.5q139 0 237.5 64.5t138.5 181.5h160q-43 -177 -187.5 -281t-348.5 -104q-261 0 -420.5 160t-159.5 421zM242 631h837q-12 162 -126 260t-290.5 98t-291.5 -98t-129 -260 zM436 1538h187l176 -303h-121z" />
<glyph unicode="&#xe9;" horiz-adv-x="1319" d="M84 542q0 261 160 421.5t420.5 160.5t418.5 -158t158 -421v-33h-1003q12 -197 123 -304.5t303 -107.5q139 0 237.5 64.5t138.5 181.5h160q-43 -177 -187.5 -281t-348.5 -104q-261 0 -420.5 160t-159.5 421zM242 631h837q-12 162 -126 260t-290.5 98t-291.5 -98t-129 -260 zM561 1235l176 303h187l-242 -303h-121z" />
<glyph unicode="&#xea;" horiz-adv-x="1319" d="M84 542q0 261 160 421.5t420.5 160.5t418.5 -158t158 -421v-33h-1003q12 -197 123 -304.5t303 -107.5q139 0 237.5 64.5t138.5 181.5h160q-43 -177 -187.5 -281t-348.5 -104q-261 0 -420.5 160t-159.5 421zM242 631h837q-12 162 -126 260t-290.5 98t-291.5 -98t-129 -260 zM311 1235l285 303h168l285 -303h-158l-211 217l-211 -217h-158z" />
<glyph unicode="&#xeb;" horiz-adv-x="1319" d="M84 542q0 261 160 421.5t420.5 160.5t418.5 -158t158 -421v-33h-1003q12 -197 123 -304.5t303 -107.5q139 0 237.5 64.5t138.5 181.5h160q-43 -177 -187.5 -281t-348.5 -104q-261 0 -420.5 160t-159.5 421zM242 631h837q-12 162 -126 260t-290.5 98t-291.5 -98t-129 -260 zM346 1303v167h141v-167h-141zM873 1303v167h141v-167h-141z" />
<glyph unicode="&#xec;" horiz-adv-x="461" d="M-13 1538h187l176 -303h-121zM160 0v1085h141v-1085h-141z" />
<glyph unicode="&#xed;" horiz-adv-x="461" d="M112 1235l176 303h187l-242 -303h-121zM160 0v1085h141v-1085h-141z" />
<glyph unicode="&#xee;" horiz-adv-x="461" d="M-138 1235l285 303h168l285 -303h-158l-211 217l-211 -217h-158zM160 0v1085h141v-1085h-141z" />
<glyph unicode="&#xef;" horiz-adv-x="461" d="M-103 1303v167h141v-167h-141zM160 0v1085h141v-1085h-141zM424 1303v167h141v-167h-141z" />
<glyph unicode="&#xf0;" d="M84 490q0 237 158.5 387.5t412.5 150.5q192 0 289 -72q-132 198 -215 281l-367 -147l-36 77l340 138q-78 85 -136 129l84 86q98 -81 187 -170l315 127l35 -78l-289 -115q381 -436 381 -778q0 -242 -158.5 -392.5t-417.5 -150.5t-421 145t-162 382zM229 500 q0 -182 118 -291t316 -109t316.5 109t118.5 290.5t-118.5 290.5t-316.5 109t-316 -108.5t-118 -290.5z" />
<glyph unicode="&#xf1;" horiz-adv-x="1305" d="M150 0v1085h137v-200q160 223 454 223q215 0 316.5 -98.5t101.5 -307.5v-702h-141v610q0 207 -68 288t-243.5 81t-295.5 -101t-120 -260v-618h-141zM301 1266q12 112 70.5 175.5t148.5 63.5q59 0 129 -37l92 -47q9 -4 46.5 -23.5t72.5 -19.5q95 0 117 129h98 q-12 -112 -70.5 -176.5t-148.5 -64.5q-54 0 -129 39l-94 47q-9 4 -45 22.5t-72 18.5q-95 0 -117 -127h-98z" />
<glyph unicode="&#xf2;" d="M84 543q0 260 160 420.5t419.5 160.5t420.5 -161t161 -420.5t-161 -420.5t-420.5 -161t-419.5 161t-160 421zM229 542.5q0 -202.5 118 -322.5t316.5 -120t316.5 120.5t118 322.5t-118 322t-316.5 120t-316.5 -120t-118 -322.5zM420 1538h187l176 -303h-121z" />
<glyph unicode="&#xf3;" d="M84 543q0 260 160 420.5t419.5 160.5t420.5 -161t161 -420.5t-161 -420.5t-420.5 -161t-419.5 161t-160 421zM229 542.5q0 -202.5 118 -322.5t316.5 -120t316.5 120.5t118 322.5t-118 322t-316.5 120t-316.5 -120t-118 -322.5zM545 1235l176 303h187l-242 -303h-121z" />
<glyph unicode="&#xf4;" d="M84 543q0 260 160 420.5t419.5 160.5t420.5 -161t161 -420.5t-161 -420.5t-420.5 -161t-419.5 161t-160 421zM229 542.5q0 -202.5 118 -322.5t316.5 -120t316.5 120.5t118 322.5t-118 322t-316.5 120t-316.5 -120t-118 -322.5zM295 1235l285 303h168l285 -303h-158 l-211 217l-211 -217h-158z" />
<glyph unicode="&#xf5;" d="M84 543q0 260 160 420.5t419.5 160.5t420.5 -161t161 -420.5t-161 -420.5t-420.5 -161t-419.5 161t-160 421zM229 542.5q0 -202.5 118 -322.5t316.5 -120t316.5 120.5t118 322.5t-118 322t-316.5 120t-316.5 -120t-118 -322.5zM277 1266q12 112 70.5 175.5t148.5 63.5 q59 0 129 -37l92 -47q9 -4 46.5 -23.5t72.5 -19.5q95 0 117 129h98q-12 -112 -70.5 -176.5t-148.5 -64.5q-54 0 -129 39l-94 47q-9 4 -45 22.5t-72 18.5q-95 0 -117 -127h-98z" />
<glyph unicode="&#xf6;" d="M84 543q0 260 160 420.5t419.5 160.5t420.5 -161t161 -420.5t-161 -420.5t-420.5 -161t-419.5 161t-160 421zM229 542.5q0 -202.5 118 -322.5t316.5 -120t316.5 120.5t118 322.5t-118 322t-316.5 120t-316.5 -120t-118 -322.5zM330 1303v167h141v-167h-141zM857 1303v167 h141v-167h-141z" />
<glyph unicode="&#xf7;" horiz-adv-x="1706" d="M254 561v98h1198v-98h-1198zM748 258q0 44 31 75.5t75.5 31.5t75.5 -31t31 -75.5t-31 -75.5t-76 -31t-75.5 31t-30.5 75zM748 962q0 45 31.5 77t75 32t75 -32t31.5 -76.5t-31 -75.5t-76 -31t-75.5 30.5t-30.5 75.5z" />
<glyph unicode="&#xf8;" d="M84 555q0 248 160 408.5t408 160.5t411 -141l123 125l55 -57l-125 -125q129 -158 129 -400.5t-161 -403.5t-402 -161t-403 131l-140 -139l-53 57l135 137q-137 160 -137 408zM229 543q0 -186 95 -293l637 633q-112 102 -304 102t-310 -120t-118 -322zM379 195 q97 -95 290 -95t311 120.5t118 322.5q0 169 -84 278z" />
<glyph unicode="&#xf9;" horiz-adv-x="1305" d="M150 383v702h141v-610q0 -206 68 -287.5t243.5 -81.5t295.5 101.5t120 259.5v618h141v-1085h-137v201q-163 -224 -455 -224q-214 0 -315.5 99t-101.5 307zM434 1538h187l176 -303h-121z" />
<glyph unicode="&#xfa;" horiz-adv-x="1305" d="M150 383v702h141v-610q0 -206 68 -287.5t243.5 -81.5t295.5 101.5t120 259.5v618h141v-1085h-137v201q-163 -224 -455 -224q-214 0 -315.5 99t-101.5 307zM559 1235l176 303h187l-242 -303h-121z" />
<glyph unicode="&#xfb;" horiz-adv-x="1305" d="M150 383v702h141v-610q0 -206 68 -287.5t243.5 -81.5t295.5 101.5t120 259.5v618h141v-1085h-137v201q-163 -224 -455 -224q-214 0 -315.5 99t-101.5 307zM309 1235l285 303h168l285 -303h-158l-211 217l-211 -217h-158z" />
<glyph unicode="&#xfc;" horiz-adv-x="1305" d="M150 383v702h141v-610q0 -206 68 -287.5t243.5 -81.5t295.5 101.5t120 259.5v618h141v-1085h-137v201q-163 -224 -455 -224q-214 0 -315.5 99t-101.5 307zM344 1303v167h141v-167h-141zM871 1303v167h141v-167h-141z" />
<glyph unicode="&#xfd;" horiz-adv-x="1104" d="M-25 1085h164l406 -940l409 940h158l-559 -1216q-75 -164 -149 -212t-205 -48q-45 0 -123 20v135q90 -18 155.5 -18t119 51t120.5 207zM434 1235l176 303h187l-242 -303h-121z" />
<glyph unicode="&#xfe;" horiz-adv-x="1384" d="M154 -389v1868h143v-584q82 111 186 163t244 52q259 0 417.5 -156.5t158.5 -410.5t-160 -412t-416 -158q-138 0 -242 51.5t-188 161.5v-575h-143zM297 543q0 -199 116 -316.5t312 -117.5t313 118t117 315.5t-117 316t-313 118.5t-312 -117.5t-116 -316.5z" />
<glyph unicode="&#xff;" horiz-adv-x="1104" d="M-25 1085h164l406 -940l409 940h158l-559 -1216q-75 -164 -149 -212t-205 -48q-45 0 -123 20v135q90 -18 155.5 -18t119 51t120.5 207zM219 1303v167h141v-167h-141zM746 1303v167h141v-167h-141z" />
<glyph unicode="&#x152;" horiz-adv-x="2570" d="M102 740q0 353 204.5 565.5t543.5 212.5q160 0 287 -59t200 -167v187h1137v-133h-989v-523h913v-139h-913v-534h989v-150h-1137v160q-179 -197 -504.5 -197t-528 212t-202.5 565zM252 739.5q0 -291.5 163 -461t443 -169.5q144 0 230 37q156 66 249 216v728 q-140 282 -479 282q-278 0 -442 -170.5t-164 -462z" />
<glyph unicode="&#x153;" horiz-adv-x="2324" d="M84 543q0 260 160 420.5t420 160.5q168 0 298 -69.5t205 -200.5q162 270 502 270q261 0 418.5 -158t157.5 -421v-33h-1003q8 -190 120 -302t293 -112q141 0 238.5 64.5t136.5 183.5h159q-39 -173 -183 -279t-337 -106q-332 0 -502 270q-164 -270 -503 -270 q-260 0 -420 161t-160 421zM229 542.5q0 -202.5 118 -322.5t316.5 -120t316.5 120.5t118 322.5t-118 322t-316.5 120t-316.5 -120t-118 -322.5zM1247 631h833q-9 162 -121.5 260t-288 98t-292.5 -99.5t-131 -258.5z" />
<glyph unicode="&#x178;" horiz-adv-x="1473" d="M25 1479h188l522 -721l529 721h182l-637 -840v-639h-147v639zM403 1696v167h141v-167h-141zM930 1696v167h141v-167h-141z" />
<glyph unicode="&#x2c6;" horiz-adv-x="1024" d="M143 1235l285 303h168l285 -303h-158l-211 217l-211 -217h-158z" />
<glyph unicode="&#x2dc;" horiz-adv-x="1024" d="M125 1266q12 112 70.5 175.5t148.5 63.5q59 0 129 -37l92 -47q9 -4 46.5 -23.5t72.5 -19.5q95 0 117 129h98q-12 -112 -70.5 -176.5t-148.5 -64.5q-54 0 -129 39l-94 47q-9 4 -45 22.5t-72 18.5q-95 0 -117 -127h-98z" />
<glyph unicode="&#x2000;" horiz-adv-x="972" />
<glyph unicode="&#x2001;" horiz-adv-x="1944" />
<glyph unicode="&#x2002;" horiz-adv-x="972" />
<glyph unicode="&#x2003;" horiz-adv-x="1944" />
<glyph unicode="&#x2004;" horiz-adv-x="648" />
<glyph unicode="&#x2005;" horiz-adv-x="486" />
<glyph unicode="&#x2006;" horiz-adv-x="324" />
<glyph unicode="&#x2007;" horiz-adv-x="324" />
<glyph unicode="&#x2008;" horiz-adv-x="243" />
<glyph unicode="&#x2009;" horiz-adv-x="388" />
<glyph unicode="&#x200a;" horiz-adv-x="108" />
<glyph unicode="&#x2010;" horiz-adv-x="948" d="M113 477v131h723v-131h-723z" />
<glyph unicode="&#x2011;" horiz-adv-x="948" d="M113 477v131h723v-131h-723z" />
<glyph unicode="&#x2012;" horiz-adv-x="948" d="M113 477v131h723v-131h-723z" />
<glyph unicode="&#x2013;" horiz-adv-x="1024" d="M0 492v104h1024v-104h-1024z" />
<glyph unicode="&#x2014;" horiz-adv-x="2048" d="M0 492v104h2048v-104h-2048z" />
<glyph unicode="&#x2018;" horiz-adv-x="592" d="M213 1018v237q0 116 37.5 174t128.5 89v-97q-76 -40 -76 -137v-88h76v-178h-166z" />
<glyph unicode="&#x2019;" horiz-adv-x="592" d="M213 979v94q76 40 76 137v88h-76v181h166v-240q0 -114 -37.5 -172t-128.5 -88z" />
<glyph unicode="&#x201a;" horiz-adv-x="592" d="M213 0v180h166v-239q0 -115 -37.5 -172.5t-128.5 -87.5v94q76 40 76 137v88h-76z" />
<glyph unicode="&#x201c;" horiz-adv-x="924" d="M213 1018v237q0 116 37.5 174t128.5 89v-97q-76 -40 -76 -137v-88h76v-178h-166zM545 1018v237q0 116 37.5 174t128.5 89v-97q-76 -39 -76 -137v-88h76v-178h-166z" />
<glyph unicode="&#x201d;" horiz-adv-x="924" d="M213 979v94q76 40 76 137v88h-76v181h166v-240q0 -114 -37.5 -172t-128.5 -88zM545 979v94q76 40 76 137v88h-76v181h166v-240q0 -114 -37.5 -172t-128.5 -88z" />
<glyph unicode="&#x201e;" horiz-adv-x="924" d="M213 0v180h166v-239q0 -115 -37.5 -172.5t-128.5 -87.5v94q76 40 76 137v88h-76zM545 0v180h166v-239q0 -115 -37.5 -172.5t-128.5 -87.5v94q76 40 76 137v88h-76z" />
<glyph unicode="&#x2022;" horiz-adv-x="1208" d="M307 762q0 123 87 209t209.5 86t209 -86.5t86.5 -208.5t-87.5 -209.5t-210 -87.5t-208.5 87t-86 210z" />
<glyph unicode="&#x2026;" horiz-adv-x="2048" d="M260 0v180h166v-180h-166zM942 0v180h166v-180h-166zM1626 0v180h166v-180h-166z" />
<glyph unicode="&#x202f;" horiz-adv-x="388" />
<glyph unicode="&#x2039;" horiz-adv-x="635" d="M129 442v201l358 272v-161l-276 -211l276 -211v-162z" />
<glyph unicode="&#x203a;" horiz-adv-x="635" d="M147 170v162l277 211l-277 211v161l359 -272v-201z" />
<glyph unicode="&#x205f;" horiz-adv-x="486" />
<glyph unicode="&#x20ac;" d="M23 547l34 84h129q-2 30 -2 90t2 94h-149l35 84h121q36 275 182 427.5t362.5 152.5t350 -124.5t157.5 -334.5h-149q-31 162 -117 239.5t-244.5 77.5t-261.5 -111.5t-131 -326.5h725l-37 -84h-696q-2 -32 -2 -93t2 -91h622l-36 -84h-580q29 -214 131.5 -329.5 t253.5 -115.5t247 93.5t130 263.5h149q-43 -227 -183.5 -362.5t-347.5 -135.5t-349.5 153.5t-177.5 432.5h-170z" />
<glyph unicode="&#x2122;" horiz-adv-x="1706" d="M264 1397v57h430v-57h-172v-473h-82v473h-176zM821 924v530h117l166 -422l156 422h116v-530h-71v467l-177 -467h-49l-186 467v-467h-72z" />
<glyph unicode="&#xe000;" horiz-adv-x="1085" d="M0 0v1085h1085v-1085h-1085z" />
</font>
</defs>
</svg>
