<?xml version="1.0" standalone="no"?>
<!DOCTYPE svg PUBLIC "-//W3C//DTD SVG 1.1//EN" "http://www.w3.org/Graphics/SVG/1.1/DTD/svg11.dtd" >
<svg xmlns="http://www.w3.org/2000/svg">
<metadata></metadata>
<defs>
<font id="eurostile_bqregular" horiz-adv-x="1705" >
<font-face units-per-em="2048" ascent="1638" descent="-410" />
<missing-glyph horiz-adv-x="641" />
<glyph horiz-adv-x="2048" />
<glyph horiz-adv-x="2048" />
<glyph unicode="&#xd;" horiz-adv-x="641" />
<glyph unicode=" "  horiz-adv-x="641" />
<glyph unicode="&#x09;" horiz-adv-x="641" />
<glyph unicode="&#xa0;" horiz-adv-x="641" />
<glyph unicode="!" horiz-adv-x="681" d="M162 0h434v403h-434v-403zM162 1446l22 -854h383l21 854h-426z" />
<glyph unicode="&#x22;" horiz-adv-x="811" d="M46 1391.5q1 -15.5 5 -43.5l111 -512h65l109 536q2 43 0 64q-10 49 -49 73.5t-86 24.5q-51 0 -96.5 -27.5t-55.5 -83.5q-4 -16 -3 -31.5zM472 1391.5q1 -15.5 5 -43.5l113 -512h63l109 536q2 14 3 30.5t-3 33.5q-4 12 -12.5 29.5t-23.5 32.5t-39.5 25.5t-59.5 10.5 q-51 0 -96.5 -27.5t-55.5 -83.5q-4 -16 -3 -31.5z" />
<glyph unicode="#" horiz-adv-x="1366" d="M86 381h193l-52 -381h254l54 381h202l-55 -381h258l53 381h238v254h-201l25 194h223v254h-186l49 363h-256l-49 -363h-205l51 363h-254l-51 -363h-240v-254h205l-27 -194h-229v-254zM569 635l27 194h205l-29 -194h-203z" />
<glyph unicode="$" horiz-adv-x="2260" d="M106 393q0 -25 3.5 -71t22 -98t58 -101t113.5 -80q33 -14 68 -22.5t104 -18.5q66 -6 129.5 -11t128.5 -7q125 -2 254 0v-185h201v187q51 -2 100 -2h103q72 2 140 6t138 8q72 10 142.5 27.5t132.5 62.5q43 31 79.5 87t53.5 173q6 41 7 76t1 47q0 6 -1 35t-6 68.5 t-16.5 81.5t-31.5 77q-8 12 -24.5 33.5t-47.5 44.5q-35 27 -74 42t-88 23.5t-111.5 11.5t-144.5 7l-876 12q-41 4 -72 12.5t-53 43.5q-10 20 -13.5 38.5t-3.5 26.5q0 45 25 80q29 37 65.5 42t79.5 5h785q41 -2 79.5 -6t67.5 -33q23 -23 28 -43t9 -49l379 -2q0 70 -2 122 t-11.5 92t-25.5 70.5t-43 55.5q-47 45 -100.5 61.5t-112.5 26.5l-172 12q-78 4 -154 4h-153h-78v170h-199v-168h-430q-47 -4 -91 -8t-85 -14t-80 -30.5t-72 -55.5q-33 -33 -58.5 -81t-35.5 -140q-4 -25 -6 -49.5t-2 -51.5q0 -8 1 -39.5t8 -74.5t22.5 -89.5t44.5 -82.5 q25 -31 53.5 -50.5t55 -32t49 -18.5t34.5 -8q14 -4 28.5 -6t31.5 -6q66 -4 131 -9.5t131 -7.5q72 -4 143 -4h144q127 0 252.5 -4t252.5 -8q53 -4 94.5 -12t67.5 -56q4 -8 13.5 -29.5t9.5 -49.5q0 -33 -8.5 -53.5t-12.5 -30.5q-18 -29 -45.5 -43.5t-99.5 -20.5h-854 q-55 4 -101.5 14.5t-68.5 55.5q-20 39 -19.5 80t2.5 51h-376q-2 -29 -4.5 -55.5t-2.5 -55.5z" />
<glyph unicode="%" horiz-adv-x="2985" d="M92 989q-2 -150 14.5 -235.5t77.5 -137.5q53 -43 113.5 -56t124.5 -21q51 -2 102 -4.5t103 -2.5q74 -2 146.5 0.5t146.5 4.5q59 10 114.5 22t95.5 47q33 27 51.5 63t29 70.5t13.5 61t3 35.5q4 53 6 105t2 106q0 68 -3 117.5t-11.5 88.5t-23.5 69t-40 54q-41 41 -84 53.5 t-96 16.5q-70 6 -137.5 11t-137.5 5q-72 0 -141 -5t-141 -11q-63 4 -116.5 -1t-106.5 -46q-33 -25 -57.5 -67t-37.5 -128q-4 -31 -6 -66.5t-3 -67.5t-1 -54v-27zM373 975q0 41 1 88t21 90q20 41 52 49t79 10q82 6 160 7q66 0 115 -5.5t73 -15.5q33 -12 48.5 -38.5 t20.5 -54.5t4 -50.5t-1 -24.5q-2 -20 -1 -38.5t1 -39.5v-26q0 -16 -5 -38t-16.5 -43.5t-33.5 -39.5q-29 -23 -55.5 -24t-61.5 -1q-31 -2 -60.5 -3t-58.5 -1q-35 0 -66.5 2t-66.5 6q-41 4 -75.5 10.5t-53.5 43.5q-16 35 -18 69.5t-2 67.5zM836 0h307l1016 1446h-310z M1749 395q2 -61 7 -135t34 -133q20 -39 49 -62.5t58.5 -37t55 -17.5t38.5 -6q12 -2 24 -2t25 -2l393 -14q145 0 232.5 14t140.5 66q45 43 58 92t24 108q2 39 4 76l4 74q2 47 1 91t-3 89q-4 53 -12.5 96t-36.5 90q-23 35 -52.5 56.5t-64.5 35t-74 21.5t-82 14q-68 4 -135 6.5 t-135 2.5q-59 0 -116.5 -2.5t-117.5 -4.5q-66 -4 -120 -16t-105 -61q-31 -31 -52.5 -77t-31.5 -139q-6 -57 -7 -112t-3 -111zM2040 424q-4 82 10 141.5t47 81.5q20 16 49 19.5t37 3.5q27 2 51.5 3t49.5 1q33 0 68.5 -1t67 -3t55.5 -4t32 -2q25 -4 45 -12.5t37 -30.5 q14 -18 19 -39t6 -40.5t0 -34.5t-1 -22q-2 -23 0 -45t2 -45q0 -55 -14 -83.5t-37 -45.5q-29 -25 -60.5 -26.5t-43.5 -1.5q-35 0 -67 -1t-64 -1q-29 0 -61 1t-59.5 3t-49 5t-29.5 5q-43 10 -64.5 44t-25.5 130z" />
<glyph unicode="&#x26;" horiz-adv-x="2304" d="M160 399q0 -27 4 -63.5t13 -78.5t26 -75q27 -49 66.5 -79.5t80.5 -48t75 -24.5t46 -10q23 -4 44.5 -8t43.5 -8q129 -8 254 -14t252 -6q94 0 187.5 2t187.5 6q61 8 103 15t75 15.5t57.5 19.5t53.5 28q23 16 46 31.5t46 31.5l278 -145l137 264l-309 168q6 45 10.5 89 t6.5 91q4 90 0 180l-371 2v-190l-742 373q-37 18 -53 31.5t-26 31.5q-2 4 -6.5 15.5t-4.5 27.5q0 35 22.5 52.5t33.5 21.5q23 10 47 11t28 1q111 6 218 6q51 0 101 -2t101 -6q45 -8 73 -17.5t42 -25.5t19.5 -46t5.5 -77h380q2 113 -3 189.5t-27 124.5q-18 45 -55 73.5 t-75 44t-70 20.5t-42 5q-16 4 -32.5 5t-32.5 3q-109 6 -214.5 10t-213.5 4q-182 0 -361 -6q-47 -2 -88 -5t-78 -14t-69.5 -32.5t-61.5 -58.5q-25 -33 -37 -67t-17 -64.5t-5 -55.5v-37q0 -66 4 -106.5t21.5 -71t49 -58.5t87.5 -63q-35 -4 -73 -9t-75 -15t-69.5 -29.5 t-55.5 -50.5q-23 -33 -37 -79t-20 -136q0 -20 -1 -39.5t-1 -40.5v-31zM557 477q0 12 2 36t10 56q8 35 20.5 57.5t45.5 39.5q8 4 20.5 7t30.5 5q29 0 59.5 -11.5t34.5 -15.5l619 -305l84 -47q-86 -2 -170 -4t-170 -2q-104 0 -204.5 4t-205.5 8q-29 2 -42 4t-29 6 q-37 12 -58.5 35t-32 46.5t-12.5 46t-2 34.5z" />
<glyph unicode="'" horiz-adv-x="425" d="M68 1377q2 -21 4 -29l110 -512h66l108 536q2 14 3 28.5t-1 31.5q-10 51 -49 76.5t-88 25.5q-53 0 -97 -27.5t-54 -83.5q-4 -25 -2 -46z" />
<glyph unicode="(" horiz-adv-x="937" d="M150 791l2 -89v-243q4 -92 20 -184.5t84 -163.5q37 -37 81 -58.5t85 -33t73.5 -14.5t45.5 -3q18 0 36.5 -1t36.5 -1h215v305h-153q-18 2 -36.5 5t-33.5 12q-14 6 -37 36q-27 39 -34 86.5t-3 139.5v305v55q0 35 5.5 71t17.5 66.5t35 46.5q33 25 94 30t147 7v281h-180 q-86 4 -167 0t-160 -49q-12 -8 -40 -27.5t-53 -54.5q-33 -45 -49 -102.5t-23 -118t-8 -121t-1 -109.5v-73z" />
<glyph unicode=")" horiz-adv-x="937" d="M39 0q174 -4 285.5 3t187.5 38q43 18 69.5 43t39.5 37q57 68 72.5 137.5t21.5 153.5q4 86 6 168t2 165q0 162 -6 326q-2 14 -7 61.5t-22 94.5q-29 82 -90 140t-147 75q-35 6 -71 7t-73 -3h-264v-291q55 0 97 1t67 -3q12 -2 29.5 -6t34 -15.5t30.5 -31t25 -51.5 q4 -12 6 -30t4 -46v-500q0 -6 -1 -28.5t-8.5 -48t-25.5 -50t-53 -37.5q-29 -10 -83 -13t-126 -5v-291z" />
<glyph unicode="*" horiz-adv-x="2347" d="M74 571l733 11v311l-733 16v-338zM602 145l303 -182l217 385l-280 168zM612 1327l234 -369l280 154l-206 391zM1194 352l197 -393l319 172l-237 379zM1202 1114l277 -158l233 363l-301 172zM1505 582l723 -15v322h-710z" />
<glyph unicode="+" horiz-adv-x="1366" d="M86 467h467v-467h262v467h465v260h-465v465h-262v-465h-467v-260z" />
<glyph unicode="," horiz-adv-x="641" d="M47 -154v-229h137t106.5 6t84.5 20.5t69 39.5q57 45 72.5 95t22.5 118v505h-439v-401h133q-2 -29 -5 -51.5t-17 -46.5q-27 -41 -70 -48.5t-94 -7.5z" />
<glyph unicode="-" horiz-adv-x="1193" d="M72 387h1018v377h-1018v-377z" />
<glyph unicode="." horiz-adv-x="641" d="M106 -2h429v401h-429v-401z" />
<glyph unicode="/" horiz-adv-x="1024" d="M39 0h250l653 1446h-252z" />
<glyph unicode="0" horiz-adv-x="1961" d="M80 707q0 -66 1 -155t15.5 -179t49 -170t102.5 -125q70 -47 153.5 -62.5t163.5 -19.5q104 -6 205.5 -8t206.5 -4h174q51 0 110.5 1t122 5t123 15t113.5 30q94 31 149 98q18 25 33 52.5t24 53t14 46t7 30.5q12 53 18.5 110.5t9.5 108t3 84.5v48v106q0 102 -6 215t-47 215 q-27 70 -58.5 105.5t-54.5 54.5q-55 41 -125.5 58.5t-144.5 27.5q-59 8 -119.5 11t-111 4t-88.5 0t-52 -1h-231l-260 -10q-92 -8 -171 -23.5t-155 -72.5q-51 -39 -83 -89t-50.5 -118t-27.5 -157t-13 -208v-77zM489 580v299q0 80 12.5 115.5t43.5 66.5q41 41 89 52t101 15 q113 10 215 13h76q109 -4 186.5 -10.5t122.5 -24.5q10 -4 33 -16.5t45 -40.5q35 -43 42 -89.5t9 -99.5v-223q4 -78 -1 -119t-25 -78t-57.5 -63.5t-123.5 -42.5q-27 -4 -56.5 -7t-56 -5.5t-46 -3.5t-23.5 -1h-119q-94 4 -168.5 8.5t-111.5 10.5q-43 8 -77 24.5t-62 51.5 q-12 14 -20.5 29.5t-13.5 34t-8 44t-6 60.5z" />
<glyph unicode="1" horiz-adv-x="1961" d="M199 1044l198 -301l537 371l-12 -1114h428v1446h-539z" />
<glyph unicode="2" horiz-adv-x="1961" d="M109 0h1738v293h-1331q0 39 2 73.5t25 61.5q25 31 66.5 39t76.5 12l754 58q45 6 90 13t86 20.5t78 36t69 57.5q27 31 39.5 57.5t18.5 42.5q8 23 11 43t5 31q10 55 12 107t2 69q0 37 -3 79t-12 84t-23.5 79.5t-38.5 66.5q-27 31 -62 52.5t-74 36.5t-78.5 24.5t-76.5 17.5 q-121 4 -239 6t-238 2q-131 0 -261.5 -2t-259.5 -6q-49 -8 -84.5 -15t-64.5 -16.5t-51.5 -20.5t-42.5 -26q-47 -31 -74 -68.5t-40 -92t-16 -127t-1 -170.5h405q2 57 10.5 108t51.5 84q29 23 64.5 30t70.5 9q66 4 133 7t135 3q66 0 132.5 -2t133.5 -6q57 -4 98 -15.5 t66 -62.5q6 -10 12.5 -28.5t6.5 -49.5q0 -14 -3.5 -36.5t-19.5 -51.5q-27 -47 -70 -56t-98 -13l-743 -56q-49 -8 -97.5 -16t-90.5 -23.5t-77.5 -41t-62.5 -64.5q-41 -59 -49 -116.5t-10 -123.5v-397z" />
<glyph unicode="3" horiz-adv-x="1961" d="M87 388.5q1 -62.5 14.5 -121t43 -111t84.5 -88.5q59 -41 121 -52.5t129 -17.5q133 -6 263 -10t262 -4q115 0 227 2t225 6q84 10 162 26.5t141 71.5q51 45 68.5 96.5t25.5 116.5q6 49 7 96q0 6 -1 34t-7.5 62.5t-20.5 72.5t-41 67q-23 23 -53.5 38t-64.5 24.5t-68.5 14.5 t-63.5 9q72 18 119 36.5t77.5 40t47 50.5t26.5 72q6 25 10.5 51t5.5 49.5t2 40t1 22.5q0 72 -14.5 119t-30.5 76q-41 74 -96.5 106.5t-133.5 49.5q-23 4 -46 6t-46 6l-256 16h-14l-625 -8q-41 -4 -88 -10t-94 -18.5t-91 -31t-77 -46.5q-41 -35 -62.5 -81t-30.5 -90t-11 -78 t-2 -46v-90h411q4 84 19.5 116.5t54.5 50.5q35 16 69.5 20.5t43.5 6.5q59 2 114.5 3t112.5 1q78 0 155.5 -4t155.5 -10q47 -4 81 -15.5t54 -52.5q4 -8 10.5 -26.5t6.5 -46.5q0 -10 -3 -34t-18 -46q-23 -41 -60.5 -49.5t-86.5 -10.5h-426v-282h430q57 0 101 -9.5t73 -56.5 q16 -29 18.5 -51.5t2.5 -36.5q0 -49 -15.5 -74.5t-28.5 -36.5q-12 -10 -30.5 -15t-37 -8t-31.5 -4t-17 -1q-117 -6 -230 -6q-92 0 -182 3t-182 7q-10 0 -34 2t-50.5 11t-49 30.5t-30.5 60.5q-8 33 -6 66t2 43h-420q-2 -57 -1 -119.5z" />
<glyph unicode="4" horiz-adv-x="1961" d="M117 279h1153v-279h416v287h235v301h-231v858h-504l-1069 -645v-522zM418 584l866 536v-536h-866z" />
<glyph unicode="5" horiz-adv-x="1961" d="M108 361.5q1 -35.5 5 -63.5t11 -51.5t19 -45.5q27 -55 83.5 -100.5t179.5 -75.5q35 -8 66.5 -13.5t66.5 -11.5q109 -6 215 -11t215 -5q106 0 211.5 5t212.5 11q55 4 96 8t72.5 10.5t56 14.5t47.5 20q59 29 109 94q37 49 57 107.5t29.5 113t10.5 95.5t1 53 q0 109 -17.5 177.5t-39.5 109.5q-14 25 -50 67.5t-108 71.5q-39 16 -74 22.5t-76 10.5q-61 4 -121.5 5t-121.5 3q-113 4 -224.5 2t-224.5 -4q-43 -4 -72.5 -8t-52 -10.5t-39 -14.5t-35.5 -20q-18 -12 -36.5 -26.5t-34.5 -29.5v289h1251v285h-1618l-16 -844h381q8 14 18 29.5 t21 25.5q14 12 34.5 18.5t40 9.5t33.5 3h23q53 2 106 3t107 3q86 2 170 0t170 -6q41 -4 78.5 -14t60.5 -37q12 -16 19.5 -40t10.5 -45.5t4 -38.5t1 -19q0 -14 -4 -47t-27 -70q-10 -23 -18.5 -30t-18.5 -15q-25 -18 -57.5 -25.5t-97.5 -7.5h-504q-45 4 -87 10t-73 35 q-33 29 -34 57.5t-1 44.5h-409q-2 -49 -1 -84.5z" />
<glyph unicode="6" horiz-adv-x="1961" d="M145 406q4 -43 9.5 -82t21.5 -80q25 -68 66 -111t84 -67.5t81.5 -36t63.5 -15.5q16 -4 34.5 -6t35.5 -6q125 -8 247.5 -13t247.5 -5q92 0 182.5 2t182.5 6q78 8 151.5 22.5t139.5 55.5q37 25 68.5 60.5t49.5 78.5q14 35 24.5 98.5t10.5 153.5q0 115 -14 186.5t-41 114.5 q-25 41 -63.5 65.5t-76.5 38t-69 18.5t-41 7q-18 2 -37.5 3t-38.5 3l-413 12q-133 -2 -215 -7t-140 -23q-29 -10 -48 -20.5t-34.5 -24t-28 -32t-26.5 -44.5v182q0 66 11.5 96.5t35.5 53.5q35 29 73 38t79 13l307 10q23 0 46.5 -1t45.5 -3q78 -4 120 -6t81 -23 q35 -18 44 -41.5t13 -40.5l412 -2q-2 33 -2 64q0 33 -4 65q-8 68 -28.5 112t-46.5 71.5t-56.5 41t-57.5 23.5q-16 4 -49 11.5t-80 17.5q-129 10 -256 16t-256 6q-100 0 -199.5 -4t-201.5 -8q-18 -2 -57 -7t-87.5 -20.5t-100.5 -44t-95 -78.5q-53 -61 -68.5 -119.5 t-23.5 -136.5l-13 -315v-323zM552 437q1 38 1 52q6 27 15.5 48.5t31.5 37.5q31 27 70 32t80 9h505q57 -4 100.5 -17t67.5 -64q4 -10 10.5 -28t6.5 -46q0 -31 -8.5 -52.5t-12.5 -31.5q-29 -51 -74 -63.5t-104 -16.5h-485q-82 4 -118 16.5t-58 44.5q-29 41 -28 79z" />
<glyph unicode="7" horiz-adv-x="1961" d="M164 1120h1157l-969 -1120h533l962 1118v328h-1683v-326z" />
<glyph unicode="8" horiz-adv-x="1961" d="M90 418q0 -10 1 -35t4 -57.5t10.5 -69.5t21.5 -70q16 -37 29.5 -55t25.5 -31q33 -35 79 -54t89 -30.5t75 -15.5t40 -4q88 -10 176 -11t176 -1h158q80 0 160 2h73q37 0 72 2q68 0 118 1t90 4t72.5 9t65.5 16q16 6 49 20.5t72 45.5q59 47 80.5 99.5t25.5 123.5q2 27 2 53 v56q0 78 -15 135t-77 106q-53 43 -110.5 60.5t-120.5 30.5q10 2 45 5t70 13q33 10 53 19.5t35 19.5q51 35 80.5 98.5t29.5 196.5q0 18 -1 49t-11 66.5t-31.5 74.5t-62.5 74q-23 18 -47.5 32.5t-56 25t-73.5 17.5t-100 13q-78 6 -156.5 8t-156.5 2h-377q-45 0 -107.5 -2 t-128 -6t-128 -13t-107.5 -26q-61 -25 -108.5 -71t-69.5 -109q-6 -18 -12.5 -49t-6.5 -78q0 -37 2.5 -62.5t4.5 -41.5q10 -63 30.5 -113.5t71.5 -87.5q47 -35 94 -44t103 -16q-47 -12 -82 -23t-60.5 -22.5t-46 -25t-39.5 -29.5q-53 -45 -72.5 -100.5t-19.5 -124.5zM512 446 q0 47 27.5 87t68.5 57q29 10 62 10h41q31 0 61.5 1t58.5 1h355q66 6 122 1t93 -58q20 -29 25.5 -54.5t5.5 -39.5q0 -29 -7.5 -51.5t-11.5 -30.5q-4 -6 -16.5 -22.5t-32.5 -29.5q-23 -12 -46.5 -15t-31.5 -3q-29 -4 -55.5 -5t-52.5 -3h-371q-76 0 -127 3t-84 15 q-39 16 -61.5 53t-22.5 84zM524 1030q0 29 11.5 51.5t27 38t29.5 23.5t22 12q25 10 51.5 12t32.5 2q25 2 47 2h50h403q59 4 109.5 -2t85.5 -55q6 -10 16 -30.5t10 -51.5t-11 -53.5t-25.5 -38.5t-29 -26.5t-20.5 -14.5q-35 -16 -73.5 -17t-77.5 1h-459q-55 2 -102.5 11 t-75.5 60q-14 23 -17.5 44.5t-3.5 31.5z" />
<glyph unicode="9" horiz-adv-x="1961" d="M76 324q0 -39 6 -75t21.5 -71t43.5 -67q35 -39 88.5 -67t159.5 -42q78 -10 153 -13t150 -5h402q59 0 132 1t146.5 9t145 26.5t127.5 53.5q25 14 49 36.5t48 56.5t41 80t28 109q8 55 12 122t5 127.5t1 103.5v49q-2 147 -7 253.5t-22 164.5q-12 43 -29.5 75.5t-38 56 t-39 39t-32.5 25.5q-57 37 -128 55.5t-145.5 26.5t-148.5 8h-133h-367q-145 -4 -239 -11t-156 -24q-53 -16 -85 -36.5t-48 -36.5q-39 -33 -59 -70q-23 -37 -34 -87t-16.5 -96t-6.5 -80t-1 -36q0 -10 2 -52t14.5 -96.5t39 -110.5t77.5 -95q41 -31 92.5 -48.5t105.5 -26.5 t108.5 -12t101.5 -5h262q55 2 110.5 3t110.5 5q96 4 151.5 25.5t90.5 52.5q20 18 33.5 37.5t17.5 27.5q-2 -35 -3 -68.5t-3 -70.5q-2 -43 -3 -91t-22 -83q-18 -31 -58 -47.5t-87 -22.5t-92 -6h-74h-321q-55 2 -100.5 4t-65.5 6q-23 4 -46.5 16.5t-33.5 34.5q-4 10 -4 19 q0 10 -2 22h-426v-79zM526 1008q0 20 6.5 52t47.5 60q45 33 98 38t106 3h293q18 0 38 -1t40 -1q25 0 58.5 -1t67.5 -6t64.5 -18.5t49.5 -37.5q10 -12 18 -39t8 -68q0 -8 -1 -24.5t-11 -36.5q-8 -20 -33 -45q-18 -16 -43.5 -25.5t-75.5 -13.5q-35 -2 -69 -2q-33 0 -68 -2 h-340q-18 2 -36.5 3t-38.5 3q-29 2 -51.5 3t-43 7t-37 19.5t-28.5 39.5q-14 29 -16.5 54.5t-2.5 38.5z" />
<glyph unicode=":" horiz-adv-x="681" d="M162 616h436v408h-436v-408zM164 0h434v401h-434v-401z" />
<glyph unicode=";" horiz-adv-x="681" d="M104 -152v-231q117 0 192 3t128 20q76 23 112.5 68.5t47.5 74.5q10 33 13 67.5t5 43.5v507h-438v-401h131q-10 -49 -22.5 -79t-32 -46t-52 -21.5t-84.5 -5.5zM164 621h434v403h-434v-403z" />
<glyph unicode="&#x3c;" horiz-adv-x="1366" d="M0 592l1366 -598v282l-1004 443l1004 448v285l-1366 -606v-254z" />
<glyph unicode="=" horiz-adv-x="1366" d="M0 252h1366v262h-1366v-262zM0 682h1366v258h-1366v-258z" />
<glyph unicode="&#x3e;" horiz-adv-x="1366" d="M0 -6l1366 598v254l-1366 606v-285l1001 -448l-1001 -443v-282z" />
<glyph unicode="?" horiz-adv-x="1662" d="M129 948l383 -2q-2 92 14.5 139.5t59.5 67.5q25 10 54.5 14t59.5 9q41 2 81 3t81 1q53 2 106.5 0t106.5 -6q43 -4 81 -14.5t61 -47.5q4 -6 10 -24.5t8 -45.5q0 -39 -22.5 -68.5t-98.5 -49.5l-80 -19q-37 -6 -71.5 -12t-69.5 -10q-68 -12 -129.5 -27.5t-108.5 -75.5 q-49 -59 -53 -127.5t0 -142.5l363 -2q16 33 25 47t24 25q20 14 50 20t83 14q39 6 89 13.5t102.5 18.5t99.5 28.5t80 46.5q39 33 58 80t27.5 93t8.5 81v41q0 102 -7.5 160.5t-27.5 99.5t-51 68.5t-62.5 45t-58.5 25.5t-39 12l-49 13q-106 10 -211 16t-209 6q-113 0 -224.5 -6 t-223.5 -16q-47 -10 -90.5 -22.5t-84.5 -39.5q-45 -29 -70.5 -61.5t-39.5 -70.5t-19.5 -82t-7.5 -93q-4 -31 -5 -61.5t-3 -61.5zM571 0h435v379h-435v-379z" />
<glyph unicode="@" horiz-adv-x="1835" d="M141 487q0 -117 23.5 -205.5t58.5 -156.5t77 -115t79 -78q115 -94 263.5 -140t293.5 -46q152 0 274.5 40t217 93t161 109.5t103.5 91.5l-95 127q-29 -29 -59.5 -55.5t-62.5 -51.5q-84 -63 -164 -101t-152 -58.5t-130 -26.5t-99 -6q-25 0 -76 4t-115.5 20.5t-134 48 t-131.5 89.5q-61 55 -94 117.5t-49.5 118.5t-19.5 103.5t-3 75.5q0 113 31 222.5t89 206t139 174t184 131.5q104 53 187 65t126 12q20 0 68.5 -4t105.5 -22.5t115.5 -55t101.5 -102.5q25 -39 39 -78t20.5 -73.5t7.5 -62.5t1 -42q0 -27 -3 -71t-15.5 -100t-36 -119.5 t-62.5 -127.5q-29 -43 -50.5 -66.5t-39.5 -37.5q-12 -10 -25.5 -17.5t-29.5 -7.5q-41 0 -41 64q0 23 7 69.5t16 97t19.5 96.5t14.5 69l67 325h-184l-20 -82q-4 6 -16.5 25.5t-32.5 36.5q-47 45 -95.5 53t-70.5 8q-78 0 -139.5 -29.5t-104.5 -69.5t-69.5 -79t-37.5 -55 q-31 -55 -50 -109.5t-28.5 -101.5t-12.5 -84t-3 -60q0 -70 13.5 -122t35 -90t49 -63.5t54.5 -39.5q16 -8 50 -19.5t83 -11.5q47 0 86 12.5t80 40.5q37 27 57.5 49.5t32.5 36.5q4 -10 8 -28.5t21 -40.5q18 -25 41.5 -39t47 -20.5t43 -8.5t25.5 -2q49 0 92 15.5t77 35t56.5 40 t32.5 30.5q100 98 153.5 232.5t70.5 271.5q6 49 6 100q0 96 -20.5 172t-52.5 133.5t-67.5 97.5t-66.5 64q-59 47 -119.5 74t-115 39t-98.5 15t-69 3q-201 0 -373.5 -77.5t-299.5 -211t-199 -310.5t-72 -374zM690 498q0 43 9.5 92t26.5 97t44 90t61 71q10 10 36 25.5t67 15.5 q25 0 63.5 -17.5t61.5 -78.5q12 -37 12 -76q0 -35 -6 -74t-17.5 -77t-27.5 -74.5t-35 -63.5q-27 -37 -71 -73t-93 -36q-25 0 -42 8.5l-25 12.5q-27 18 -45.5 54t-18.5 104z" />
<glyph unicode="A" horiz-adv-x="2260" d="M2 0h487l138 258h932l135 -258h501l-815 1446h-575zM788 563l310 563l299 -563h-609z" />
<glyph unicode="B" horiz-adv-x="2174" d="M145 0h1319q52 -1 97 -1h43q62 1 109.5 7t85.5 19.5t71 35.5q27 18 43 35t24 27q33 37 59.5 96.5t26.5 163.5q0 129 -27.5 191.5t-76.5 97.5q-45 35 -95 46t-104 19q39 10 78 23.5t74 42.5q23 18 40 40.5t29.5 54.5t19.5 76t7 103q0 113 -31.5 177.5t-72.5 97.5 q-39 35 -85 53t-96.5 27.5t-101.5 11.5t-100 2h-1336v-1446zM582 326v262h796h25q37 0 69 -4q44 -6 78 -52q12 -18 19.5 -36.5t7.5 -42.5q0 -18 -3 -30.5t-5 -19.5q-16 -41 -47 -55t-74 -22h-866zM584 877v253h764q47 -2 83.5 -8t65.5 -47q27 -33 27 -74q0 -29 -10.5 -48 t-16.5 -27q-29 -40 -70 -46q-27 -4 -56 -4q-16 0 -34 1h-753z" />
<glyph unicode="C" horiz-adv-x="2134" d="M111 723q0 -78 5 -153.5t11 -151.5q10 -90 31.5 -163t91.5 -136q70 -66 164 -88.5t194 -38.5q129 -4 255 -7t255 -3q117 0 233.5 4t233.5 12q72 10 139.5 26.5t126.5 65.5q39 31 61.5 68t35 79t16.5 87t6 92q2 35 3 66.5t1 64.5h-440q-4 -41 -9 -79t-28 -65 q-16 -20 -41.5 -31.5t-50.5 -16.5t-43.5 -7t-20.5 -2h-530q-6 0 -27.5 2t-49 8t-58.5 18.5t-55 35.5q-43 39 -51.5 98t-10.5 119v106q0 80 3 141.5t13 94.5q12 43 36 67.5t49.5 37.5t49 17.5t38.5 6.5q16 2 34.5 3t34.5 1q137 6 270 6q66 0 129.5 -2t126.5 -6 q45 -4 84 -12.5t66 -40.5q23 -29 27 -54.5t4 -58.5l432 -2q0 49 -3 105.5t-13.5 111.5t-33 106.5t-63.5 87.5q-61 57 -135 77t-152 32q-129 4 -254.5 9t-254.5 5q-127 0 -252 -6t-250 -16q-18 -4 -56 -10.5t-86.5 -23.5t-98.5 -47t-91 -79q-47 -59 -62.5 -115.5 t-25.5 -128.5q-4 -80 -9 -158.5t-5 -158.5z" />
<glyph unicode="D" horiz-adv-x="2260" d="M152 0h1392q92 4 174 15.5t164 62.5q41 27 75 62.5t59.5 88t41 125t19.5 170.5q2 27 2 51v52v233q-4 96 -16.5 194.5t-63.5 184.5q-20 35 -50 67.5t-75 59.5t-108.5 46.5t-149.5 27.5q-59 6 -117 6h-1347v-1446zM602 348v746h725q70 -4 133.5 -13.5t108.5 -56.5 q39 -41 48 -85t13 -95v-180q0 -55 -5 -106.5t-23.5 -93.5t-55.5 -70.5t-102 -39.5q-35 -6 -64 -6h-41h-737z" />
<glyph unicode="E" horiz-adv-x="1961" d="M150 0h1615v328h-1175v254h1112v303h-1112v241h1175v320h-1615v-1446z" />
<glyph unicode="F" horiz-adv-x="1835" d="M154 0h446v498h1063v329h-1063v287h1122v332h-1568v-1446z" />
<glyph unicode="G" horiz-adv-x="2260" d="M111 764q0 -31 2 -64v-131q0 -68 6 -138.5t24.5 -137t55.5 -121.5q10 -10 29.5 -33.5t52.5 -48.5q53 -39 109 -60.5t114.5 -31.5t119 -12t121.5 -2h736q98 0 202.5 6t196.5 45q109 45 154 134t55 200q4 41 6 79.5t2 79.5q3 59 3 118v29q-1 73 -1 144l-1059 2v-282h609 q0 -35 -4.5 -69t-24.5 -67q-35 -51 -91 -60t-122 -11h-547q-63 4 -119.5 13t-97.5 46q-25 25 -38 54.5t-19 58t-7 51.5t-1 31q0 18 -3 28v191q4 104 14.5 163.5t53.5 94.5q35 29 79 36t87 9h621q70 -4 109.5 -12.5t61 -26.5t28.5 -48t11 -75h453q1 34 1 66v32q-1 48 -9 94 t-26.5 89t-53.5 86q-43 53 -112.5 89t-211.5 50q-88 10 -173 11h-57q-57 0 -114 -1h-354q-43 0 -86 -1t-86 -1q-84 -2 -146.5 -4t-112.5 -7t-90 -14.5t-79 -25.5q-66 -29 -112 -67.5t-76.5 -89t-48 -110t-25.5 -126.5q-6 -47 -8 -92t-2 -93v-67z" />
<glyph unicode="H" horiz-adv-x="2260" d="M152 0h448v563h999v-563h449v1446h-446v-528h-998v528h-452v-1446z" />
<glyph unicode="I" horiz-adv-x="811" d="M154 0h458v1446h-458v-1446z" />
<glyph unicode="J" horiz-adv-x="1792" d="M90 440q2 -75 12.5 -134.5t31 -104.5t56.5 -82q66 -66 141 -87.5t161 -35.5q76 -4 150.5 -8t148.5 -4q90 0 176 4t174 8q53 8 103 16t96 23.5t86 40t73 65.5q47 57 63.5 115.5t26.5 126.5l10 256v807h-448v-924q0 -10 -1 -31.5t-8 -45t-25.5 -47t-51.5 -38.5 q-31 -14 -62.5 -17t-41.5 -5q-31 -2 -62 -3t-59 -1q-106 0 -181 12t-104 55q-14 20 -20.5 49t-8.5 89v73h-436q-1 -49 -1 -92t1 -80z" />
<glyph unicode="K" horiz-adv-x="2134" d="M152 0h448v549h231l658 -549h635l-926 731q86 72 169 145.5t169 145.5q61 55 123.5 109.5t126.5 107.5q61 53 124.5 104.5t129.5 102.5h-610l-603 -535h-225v535h-450v-1446z" />
<glyph unicode="L" d="M147 0h1452v358h-999v1088h-453v-1446z" />
<glyph unicode="M" horiz-adv-x="2816" d="M150 0h423v1100l631 -1100h355l632 1094v-1094h430v1446h-706l-526 -948l-525 948h-714v-1446z" />
<glyph unicode="N" horiz-adv-x="2347" d="M152 0h421v1106q90 -121 180.5 -241t182.5 -238q125 -160 251 -315.5t255 -311.5h710v1446h-417v-451l8 -663q-104 135 -206.5 269t-207.5 267q-117 147 -233.5 289.5t-235.5 288.5h-708v-1446z" />
<glyph unicode="O" horiz-adv-x="2304" d="M109 616q0 -70 3 -144.5t20.5 -145t53 -133t101.5 -107.5q43 -29 87 -46t90 -26.5t93 -14.5t96 -7q125 -4 248 -6t248 -2q111 0 218.5 2t215.5 4q59 4 120.5 12t118 24.5t108.5 47t93 82.5q53 66 72 132t29 146q4 53 7 103.5t5 101.5q3 52 3 104q0 25 -1 51q-2 78 -6 156 t-15.5 148.5t-50.5 142.5q-33 57 -74.5 94t-83.5 57.5t-79 30t-60 13.5q-16 4 -33.5 6t-33.5 4q-160 8 -315.5 13t-313.5 5q-135 0 -266 -5t-264 -13q-66 -10 -120 -22.5t-112 -47.5q-78 -45 -119.5 -113.5t-58.5 -154.5q-4 -16 -6 -33.5t-4 -34.5zM559 678q2 86 4 144.5 t6 97.5q2 8 7.5 32.5t17.5 46.5q4 10 14 23.5t33 30.5q31 23 67.5 34t112.5 15h619q43 -4 79.5 -8t66.5 -18.5t52.5 -39t34.5 -67.5q8 -23 10.5 -43.5t4.5 -44.5v-314q-6 -53 -13.5 -80.5t-21.5 -50.5q-16 -29 -41 -46t-53.5 -26.5t-62.5 -14.5t-69 -7h-589 q-92 8 -148.5 23.5t-85.5 54.5q-25 35 -33 100.5t-12 157.5z" />
<glyph unicode="P" horiz-adv-x="2004" d="M143 0h457v362h750q45 0 99 2.5t108.5 9.5t105.5 24.5t92 47.5q59 45 90 119t43.5 143.5t13.5 122t1 58.5q0 29 -1 54.5t-4 53.5q-2 45 -5 88t-12 82t-27.5 77t-51.5 75q-23 27 -49.5 48.5t-64 38.5t-89 27.5t-122.5 12.5q-30 2 -60 2t-61 -2h-1213v-1446zM598 717v385 h670q41 -4 79.5 -12.5t63.5 -34.5q16 -16 25.5 -42t14.5 -49.5t6 -41t1 -19.5q0 -39 -8 -64.5t-16 -41.5q-14 -29 -34 -45.5t-42.5 -24.5t-51 -9t-61.5 -1h-647z" />
<glyph unicode="Q" horiz-adv-x="2347" d="M109 625q0 -41 2 -85t4 -86t6 -69q6 -59 29 -111q37 -84 106 -151q51 -47 104.5 -70.5t109.5 -35t115.5 -13.5t123.5 -4q332 -6 655 -6q90 0 160.5 2t126 7t100.5 15.5t86 26.5q25 10 49.5 22.5t46.5 24.5l183 -141l174 297l-181 110q10 115 17.5 227.5t7.5 227.5 q0 86 -4 151.5t-12.5 117t-23.5 92t-36 75.5q-18 29 -32.5 45.5t-24.5 26.5q-39 41 -82 65.5t-90 38t-97.5 18.5t-103.5 7q-98 6 -191.5 7t-187.5 3q-100 2 -200.5 5t-202.5 3q-135 0 -229.5 -9t-147.5 -19q-121 -27 -186.5 -80t-92.5 -96q-27 -41 -44 -101.5t-27 -167.5 q-6 -78 -8 -152.5t-2 -150.5v-67zM551 670q0 43 2 86t5 79.5t6 65.5t5 41q4 20 17.5 54t56.5 67q43 31 92 40t101 13q129 6 256 6q61 0 121.5 -1t121.5 -3q43 0 75 -1t56.5 -3t45 -6t42.5 -12q37 -12 58.5 -32t32.5 -32q45 -49 53 -92t10 -70v-65v-105q0 -51 2 -104 l-467 317l-199 -290l490 -285q-98 -4 -194.5 -9t-192.5 -5q-66 0 -129.5 3t-128.5 7q-41 2 -71 3t-53.5 3t-43 6t-37.5 12q-53 23 -79.5 74t-39 103.5t-13.5 92.5t-1 42z" />
<glyph unicode="R" horiz-adv-x="2174" d="M150 0h452v369h758q43 -4 81 -14.5t62 -45.5q16 -29 20.5 -57.5t4.5 -56.5v-195h448v252q0 57 -6 107.5t-45 97.5q-53 68 -134 80t-171 12q39 6 84 15t88 25.5t80 41t63 61.5q14 18 22.5 38t12.5 28q10 33 16.5 72.5t9.5 75.5t3 61v30q0 8 -1 39t-6 73t-17.5 89t-35.5 88 q-6 10 -24.5 35t-46.5 47q-43 35 -91 52q-47 18 -99 25q-40 5 -82 5h-24q-54 -2 -110 -4h-1312v-1446zM604 727v373h748q49 -4 93 -11.5t71 -37.5q14 -18 22 -42t11 -46.5t4 -40t1 -21.5t-1 -22.5t-8 -43t-20.5 -48t-37.5 -37.5q-27 -14 -69 -18.5t-105 -4.5h-709z" />
<glyph unicode="S" horiz-adv-x="2134" d="M111 475q0 -41 1 -89t8 -97t23.5 -94t46.5 -78q27 -29 60 -48.5t69.5 -31.5t73.5 -18.5t74 -12.5q147 -8 290.5 -15t289.5 -7q135 0 266 5t266 13q68 10 131.5 25.5t114.5 52.5q18 14 31.5 28.5t27.5 32.5q35 47 54.5 115t19.5 190q0 80 -11.5 138.5t-31 100.5t-45 70.5 t-51.5 49.5q-18 14 -38 24.5t-44.5 17.5t-56 13t-76.5 10l-869 31q-41 4 -77.5 11.5t-65.5 43.5q-6 6 -15.5 23.5t-9.5 40.5t10.5 41t14.5 24q27 35 63.5 41.5t77.5 8.5q63 2 125 4t125 2q80 0 161 -3t161 -8q43 -4 70.5 -11t45 -20.5t27.5 -39t20 -66.5l439 -2q1 31 1 63 v32q-1 48 -10.5 92.5t-30 85.5t-57.5 75q-29 27 -60.5 44.5t-61 28.5t-52 15.5t-34.5 6.5l-80 12q-131 6 -261.5 12t-261.5 6q-119 0 -236.5 -4t-236.5 -8q-92 -10 -172 -30.5t-143 -88.5q-39 -41 -59 -92q-14 -35 -21.5 -78t-10.5 -83t-4 -67.5t-1 -31.5 q0 -111 25.5 -179.5t60.5 -105.5q27 -29 56.5 -46t58 -28.5t51 -15.5t32.5 -6q16 -4 31.5 -5t32.5 -5q51 -4 101 -7t102 -8q160 -10 318.5 -12t318.5 -6q78 -10 116.5 -17.5t65.5 -43.5q14 -20 17 -37t3 -27q0 -37 -24.5 -67.5t-59.5 -42.5q-34 -14 -71 -14h-2q-38 0 -50 1 q-76 -2 -150 -4q-37 -1 -73.5 -1t-73.5 1q-70 2 -137 4t-137 6q-72 6 -106.5 22.5t-47.5 51.5q-8 18 -9 39t-1 45z" />
<glyph unicode="T" horiz-adv-x="1878" d="M49 1110h639v-1110h455v1112h651v334h-1745v-336z" />
<glyph unicode="U" horiz-adv-x="2260" d="M160 455q8 -72 20.5 -136.5t52.5 -130.5q53 -84 133 -123.5t173 -56.5q23 -4 44 -6t44 -6q119 -6 236.5 -10t236.5 -4q104 0 204.5 2t204.5 4q90 8 171 22.5t161 63.5q57 35 92 80t54.5 89t27.5 80.5t13 59.5q4 27 6 52.5t4 51.5v959h-447v-873q-4 -47 -14 -98t-45 -86 q-23 -20 -55.5 -30.5t-104.5 -20.5h-426h-31q-99 0 -161 11q-72 13 -109 67q-29 41 -34 90t-7 96v844h-444v-991z" />
<glyph unicode="V" horiz-adv-x="2260" d="M12 1446l772 -1446h588l815 1446h-495l-607 -1112l-589 1112h-484z" />
<glyph unicode="W" horiz-adv-x="3115" d="M8 1446l588 -1446h592l340 1030l323 -1030h590q70 158 136.5 314.5t132.5 316.5q51 129 101 255t103 253q20 47 41 93t43 93q14 31 28.5 60.5t31.5 60.5h-463l-434 -1086l-355 1086h-546l-371 -1086q-43 109 -87 216.5t-87 216.5q-66 164 -127.5 326.5t-124.5 326.5h-455 z" />
<glyph unicode="X" horiz-adv-x="2304" d="M23 0h616l496 522l485 -522h612l-731 727l694 719h-602l-456 -506l-469 506h-582l680 -713z" />
<glyph unicode="Y" horiz-adv-x="2174" d="M16 1446l822 -940v-506h452v506l836 940h-578l-487 -590l-486 590h-559z" />
<glyph unicode="Z" horiz-adv-x="2004" d="M94 0h1780v348l-1129 -12l142 92q123 84 241.5 172t241.5 176q123 86 244 170t244 170v330h-1729v-326l1102 10q-68 -41 -134.5 -82.5t-131.5 -86.5q-98 -66 -191.5 -134.5t-187.5 -136.5q-123 -90 -245 -176t-245 -172z" />
<glyph unicode="[" horiz-adv-x="854" d="M168 0h563v293h-182v876h182v277h-563v-1446z" />
<glyph unicode="\" horiz-adv-x="724" d="M4 1446l467 -1483h262l-467 1483h-262z" />
<glyph unicode="]" horiz-adv-x="854" d="M76 0h563v1446h-561v-275h182v-882h-184v-289z" />
<glyph unicode="^" horiz-adv-x="1492" d="M233 637h281l238 473l225 -473h283l-398 809h-213z" />
<glyph unicode="_" horiz-adv-x="1024" d="M-20 -231v-261h1064v261h-1064z" />
<glyph unicode="`" horiz-adv-x="641" d="M-203 1204l535 -100l43 143l-500 201z" />
<glyph unicode="a" horiz-adv-x="1662" d="M109 299q0 -59 9 -100t24.5 -71t35 -48.5t41.5 -32.5q59 -37 124 -48t130 -13q59 -2 116.5 -5.5t115.5 -3.5q133 0 221 27t129 68q27 27 41 59.5t30 67.5l-12 -199h375v653q0 76 -11.5 142.5t-64.5 126.5q-45 51 -122 79.5t-216 36.5q-23 0 -46 1t-46 1h-215 q-135 -4 -221 -9t-146 -19q-104 -25 -157.5 -75t-69.5 -93q-10 -31 -13 -58.5t-7 -62.5l376 -2q8 27 17.5 42t22 22.5t29.5 10.5t46 3h258q76 0 119 -11.5t61 -44.5q10 -23 14.5 -48t6.5 -54v-82q-45 33 -78 51.5t-65.5 27.5t-70.5 10h-27q-30 0 -68 -1h-236q-74 0 -158 -7 t-157 -44q-27 -14 -51.5 -34.5t-43 -55.5t-29.5 -85t-11 -122zM485 336q0 16 4.5 27.5t8.5 17.5q20 35 54 41t73 8q41 4 77.5 5t73.5 5h105q80 -2 124 -7t74 -42q16 -20 20.5 -36.5t6.5 -24.5q0 -35 -21.5 -54.5t-27.5 -23.5q-31 -16 -90.5 -22.5t-139.5 -10.5h-129 q-76 0 -117.5 6t-68.5 41q-6 6 -16.5 24.5t-10.5 45.5z" />
<glyph unicode="b" d="M129 0h381v147q12 -23 25.5 -44t29.5 -40q35 -35 86 -51t98.5 -23t81.5 -7h39q41 0 84 1t84 1q80 2 160 5t156 38q12 4 39.5 18t58.5 41q41 33 63.5 72t34 81t15.5 89t6 98q2 35 3 66.5t1 66.5q0 137 -28.5 222t-69.5 130q-25 27 -55.5 45.5t-59.5 29.5t-53.5 17.5 t-36.5 8.5q-92 18 -171 22t-106 4q-96 0 -169.5 -6t-110.5 -16q-35 -10 -61.5 -22.5t-49 -31t-43 -42t-43.5 -52.5l-2 578h-387v-1446zM512 446v99q0 4 2 20.5t5 38t9.5 43t16.5 37.5q25 39 79 52.5t146 17.5h135q29 0 64 -2t69.5 -9.5t65.5 -21.5t51 -41q25 -29 29 -59.5 t4 -67.5v-53q0 -37 -3 -70t-12.5 -59.5t-27 -48t-49.5 -35.5q-39 -16 -82 -20.5t-51 -4.5h-193q-92 4 -144.5 16.5t-78.5 53.5q-16 27 -24.5 65.5t-10.5 48.5z" />
<glyph unicode="c" horiz-adv-x="1662" d="M100 522q0 -104 12.5 -178t28.5 -115q4 -12 14.5 -32.5t27 -44t42 -48t60.5 -45.5q59 -33 149 -50t238 -25q43 -2 86 -3t88 -1q135 0 240.5 11t152.5 21q96 23 147.5 62t73.5 73q14 20 24.5 44t16.5 54.5t10.5 71.5t8.5 97l-385 2q-4 -29 -10.5 -48.5t-24.5 -39.5 q-18 -18 -41 -28.5t-44.5 -14.5t-37.5 -5t-23 -1q-41 -2 -77.5 -3.5t-75.5 -1.5q-80 0 -140.5 6.5t-89.5 24.5q-31 16 -56.5 65.5t-25.5 131.5q0 8 1.5 34.5t8.5 60.5t23.5 65.5t46.5 50.5q16 10 42 17t73 11q39 4 76 6.5t74 2.5q76 0 131 -8.5t84 -18.5q14 -6 27.5 -15.5 t23.5 -21.5q16 -16 19 -32.5t7 -39.5h383q0 63 -5 120t-36 116q-53 98 -140 132t-198 46q-74 8 -144.5 11t-141.5 3q-211 0 -362.5 -20.5t-229.5 -77.5q-57 -43 -88 -111.5t-45.5 -135t-16.5 -118t-2 -57.5z" />
<glyph unicode="d" d="M98 440q0 -10 2 -59t17.5 -111.5t48.5 -125t96 -99.5q33 -20 72 -31.5t74.5 -16.5t64.5 -7t39 -2q59 -4 113.5 -7.5t107.5 -3.5q135 0 218 23t128 63q27 25 48.5 59t39.5 68v-190h371v1446h-381v-582q-23 29 -43 53.5t-49 45.5q-45 33 -101.5 49t-108.5 23t-90 8t-46 1 q-31 0 -61.5 -1t-61.5 -3q-49 -2 -99.5 -6t-98.5 -15t-93 -31.5t-88 -55.5q-41 -35 -58.5 -63.5t-25.5 -49.5q-10 -29 -16 -58.5t-8.5 -57t-3.5 -49t-1 -29.5q-2 -47 -4 -92.5t-2 -92.5zM483 459v24v58q4 78 22.5 130t96.5 74q29 8 54.5 9.5t33.5 1.5h213q47 -2 108.5 -8.5 t100.5 -40.5q35 -31 41 -80t8 -103v-51q0 -6 -1 -30.5t-9 -53.5t-26.5 -57.5t-53.5 -42.5q-35 -16 -87 -20.5t-130 -6.5h-74q-72 4 -115.5 7t-78.5 14q-12 4 -22.5 9t-14.5 9q-27 18 -40 48t-19.5 58.5t-6.5 51.5z" />
<glyph unicode="e" horiz-adv-x="1622" d="M100 528q0 -127 13.5 -198.5t44.5 -128.5q23 -43 44 -66.5t38 -36.5q37 -29 78.5 -48t88 -31.5t93.5 -19.5t90 -9q29 -4 57 -4q31 0 60 -2h223q59 0 117.5 3t115 13t107.5 31.5t94 60.5q55 49 69.5 94t18.5 74q4 16 4 33v35l-373 2q-4 -29 -10 -42.5t-14 -23.5 q-12 -16 -53 -31q-47 -16 -99 -16h-98h-129q-63 0 -123 35q-27 16 -41 34.5t-20.5 41t-7.5 48t1 56.5h967q0 74 1 129v27q0 40 -2 74q-3 46 -11 81t-25 70q-18 41 -42.5 69.5t-37.5 39.5q-41 39 -95 63.5t-161 38.5q-74 10 -147.5 13t-144.5 3q-57 0 -131 -3t-151 -13 t-147.5 -31.5t-119.5 -60.5q-47 -37 -89 -114t-51 -212q0 -20 -1 -38.5t-1 -39.5zM489 635q-1 13 -1 24q0 21 2 35q4 24 28 49q27 29 59.5 38.5t71.5 13.5q41 4 82 6t82 2q80 0 143.5 -10.5t90.5 -32.5q16 -16 25 -42t13 -81z" />
<glyph unicode="f" horiz-adv-x="937" d="M8 760h199v-760h383v762h340v258h-338q0 49 6 93t35 69q27 23 68.5 32t111.5 13h96v252h-211q-80 -2 -141 -7.5t-109.5 -17.5t-84 -31.5t-64.5 -50.5q-53 -55 -66.5 -108.5t-17.5 -81.5q-2 -16 -3 -35t-3 -37v-92h-201v-258z" />
<glyph unicode="g" horiz-adv-x="1792" d="M96 532q0 -152 15.5 -237.5t56.5 -142.5q23 -31 49.5 -51.5t36.5 -28.5q49 -33 101.5 -50.5t105.5 -26.5t108.5 -11t110.5 -2q92 0 184 4t178 39q37 14 60.5 28.5t40 33.5t30 45t25.5 61q0 -18 1 -54.5t1 -77.5t-2 -78.5t-4 -58.5q0 -8 -4 -24.5t-14 -34.5 q-18 -33 -48 -51.5t-60 -28.5t-53.5 -13t-29.5 -3q-45 -4 -88 -5h-86q-68 0 -118 5.5t-81 15.5q-35 12 -49 33.5t-26 58.5h-396q0 -6 1 -22.5t3 -39t7.5 -47t15.5 -47.5q20 -47 47 -76.5t43 -41.5q47 -41 100.5 -62.5t110.5 -32t116.5 -12.5t121.5 -2q53 0 105 -1t106 -1 q209 0 337.5 32t206.5 97q72 59 97.5 134t31.5 167q2 29 3 59.5t1 59.5v983h-385v-195q-29 59 -47 89t-41 49q-31 27 -76 41t-90 22q-84 14 -151.5 17.5t-93.5 3.5q-111 0 -196 -11.5t-126 -21.5q-88 -23 -141 -60.5t-83 -82t-41 -90.5t-18 -83q-6 -53 -8 -102t-2 -68z M492 481v66v31t7 50t25.5 55t53.5 44q33 14 87 19.5t132 5.5h51q76 -4 140.5 -6.5t92.5 -10.5q45 -12 66.5 -36.5t32.5 -41.5q12 -27 15 -57q2 -17 2 -34q0 -12 -1 -23v-54q0 -41 -4 -75.5t-31 -71.5q-25 -37 -61.5 -47t-81.5 -14q-35 -4 -66.5 -5.5t-64.5 -3.5h-131 q-23 0 -51.5 2t-57.5 7.5t-56.5 14.5t-45.5 26q-29 29 -38 70.5t-15 88.5z" />
<glyph unicode="h" d="M131 2h383v467q2 53 8 105.5t39 93.5q10 12 24.5 23t28.5 22q64 32 224 32h10q43 0 101.5 -1t99.5 -15q43 -16 65.5 -48t31.5 -66.5t9 -63.5v-37v-514h383v578q-4 63 -10 124.5t-33 114.5q-20 43 -46 68.5t-42 40.5q-47 39 -96 60.5t-94.5 32.5t-80 15t-51.5 4 q-20 2 -39.5 3t-39.5 1q-68 0 -121.5 -2t-95 -8t-75.5 -15t-65 -24q-55 -27 -80.5 -60.5t-54.5 -88.5v602h-383v-1444z" />
<glyph unicode="i" horiz-adv-x="681" d="M129 0h379v1024h-379v-1024zM131 1165h379v281h-379v-281z" />
<glyph unicode="j" horiz-adv-x="681" d="M-47 -360q47 -4 93 -7.5t93 -3.5q117 0 183.5 24.5t107.5 59.5q53 45 65.5 93.5t16.5 113.5v1104h-385v-991v-27q0 -18 -4 -41q-4 -16 -11.5 -27.5t-11.5 -15.5q-18 -25 -49 -32q-17 -4 -43 -4q-23 0 -53 3zM133 1169h383v283h-383v-283z" />
<glyph unicode="k" horiz-adv-x="1536" d="M133 0h379v414h104l414 -414h524q-76 63 -149.5 126.5t-144.5 129.5l-86 80q-49 47 -82 76.5t-57.5 50t-49 38t-57.5 42.5q57 53 114.5 103t114.5 104q49 45 98.5 89t100.5 87q33 27 64.5 50t66.5 48h-522l-373 -338h-80v760h-379v-1446z" />
<glyph unicode="l" horiz-adv-x="681" d="M131 0h377v1446h-377v-1446z" />
<glyph unicode="m" horiz-adv-x="2603" d="M137 0h375v528q2 31 6 59.5t21 57.5q29 51 92 75.5t184 24.5q18 0 47 -1t57.5 -5t56.5 -11t46 -19q27 -18 38 -51t17 -109v-549h385v500q4 59 14.5 110.5t57.5 85.5q47 37 108.5 42t116.5 5q106 0 162.5 -22.5t77.5 -67.5q8 -16 12 -38.5t6 -42t2 -35.5v-21v-516h379v555 q-4 51 -7 89t-8 66.5t-12.5 52t-17.5 46.5q-39 84 -117.5 137t-171.5 76q-57 14 -110 17t-72 3q-154 0 -254 -27.5t-149 -74.5q-16 -16 -30.5 -36.5t-37.5 -61.5q-37 41 -71.5 77.5t-85 63.5t-122 42t-182.5 15l-30 -1q-31 -1 -75 -4t-92 -10t-85 -21q-53 -20 -87 -56.5 t-69 -83.5v160h-375v-1024z" />
<glyph unicode="n" d="M137 0h377v446q0 68 4 102t17 62q14 33 40.5 56.5t54 38t51.5 21.5t34 9q12 2 33.5 5t52.5 3q8 0 37.5 -1t63.5 -3t63.5 -4t40.5 -4q12 -2 31.5 -6t41 -16.5t41 -35t29.5 -61.5q6 -27 6 -59v-35v-518h379v596q-6 96 -16.5 145.5t-30.5 89.5q-16 31 -41 59t-53 50 q-53 41 -111.5 61.5t-110 29.5t-90.5 10t-57 1q-74 0 -131 -3t-102.5 -9t-81 -17.5t-68.5 -29.5q-45 -23 -67.5 -49.5t-32.5 -42.5q-16 -25 -29 -47v180h-375v-1024z" />
<glyph unicode="o" d="M111 461q0 -45 3 -90t12 -89t26.5 -85t50.5 -76q43 -47 104.5 -74t122.5 -39q20 -4 39.5 -6t38.5 -6q45 -4 89 -5t89 -3q88 -6 182 -6q86 0 173 6t176 12q66 14 126 33.5t113 66.5q10 8 28.5 30t33.5 50q18 35 27 76t14 84q4 51 7 100t3 99q0 29 -1 54t-3 54 q-4 70 -18.5 135.5t-63.5 122.5q-53 63 -130 86t-163 37l-172 8t-172 4q-90 0 -177 -5t-177 -11q-74 -10 -143.5 -27.5t-131.5 -70.5q-59 -51 -76.5 -116t-23.5 -144q-6 -105 -6 -205zM492 500q0 49 4 97t32 91q27 37 61 47t79 17q57 8 84.5 9t58.5 1q59 0 125 -6 q35 -2 65 -2q31 0 57.5 -6.5t50.5 -21.5t46 -46q27 -41 31 -73t4 -48t-1 -33.5t-3 -33.5q-4 -37 -6 -74t-17 -68q-8 -14 -24.5 -31.5t-57.5 -31.5q-51 -16 -101 -19.5t-62 -3.5q-33 0 -66 1t-66 3l-73 6q-63 4 -94 8.5t-58 20.5q-16 10 -25.5 22.5t-13.5 16.5 q-25 39 -27.5 78t-2.5 80z" />
<glyph unicode="p" d="M127 -455h391v605q23 -27 43.5 -49.5t48.5 -43.5q35 -25 78 -39t89 -22t91 -11t86 -3q29 0 54.5 1t54.5 1q51 2 105.5 6t105.5 15t100 32.5t92 58.5l24.5 24.5t31.5 41.5q14 25 23 51.5t14.5 51t7.5 44t2 27.5q4 49 5 96t1 94q0 117 -10.5 193t-32.5 123q-16 31 -32.5 49 t-26.5 29q-29 29 -83.5 56.5t-148.5 45.5q-66 12 -133.5 17t-132.5 5q-68 0 -127.5 -4t-83.5 -8q-63 -8 -109.5 -26.5t-85.5 -65.5q-23 -27 -38 -51.5t-21 -34.5v170h-383v-1479zM512 539q4 82 23.5 124t46.5 60q29 18 65.5 24.5t71.5 8.5q29 4 55 4h55q23 2 45 2h48 q98 0 158.5 -22.5t82.5 -61.5q12 -23 17.5 -49.5t7.5 -79.5q0 -20 1 -40t1 -38q0 -66 -17.5 -103.5t-44.5 -56.5q-35 -25 -102.5 -37t-159.5 -12q-78 0 -138 5t-91 14q-23 4 -38 11t-30 21q-29 27 -45 83q-13 46 -13 110q0 16 1 33z" />
<glyph unicode="q" d="M104 483q0 -127 14.5 -208.5t47.5 -129.5q33 -51 106.5 -92t202.5 -57q8 0 34 -3t60.5 -6t75.5 -5t78 -2q39 0 87 3t97 13t94.5 26.5t77.5 45.5q29 23 51.5 55.5t26.5 40.5v-619h385v1479h-366v-182q-16 35 -26.5 53t-21.5 33q-29 37 -66.5 59.5t-74.5 32.5t-65.5 14 t-40.5 4q-16 2 -33 3t-33 3l-299 -12q-82 -10 -157.5 -26.5t-143.5 -75.5q-33 -29 -48 -53.5t-22 -38.5q-25 -53 -33 -139.5t-8 -215.5zM487 512q-1 15 -1 30q0 33 4 64q4 45 32 86q27 37 59.5 47.5t80.5 16.5q39 4 76.5 7t76.5 3q27 0 59.5 -1t60.5 -3t49.5 -4t27.5 -2 q18 -4 38.5 -10.5t36.5 -16.5q27 -18 51.5 -60t24.5 -114q0 -18 -1 -43t-3 -47.5t-3 -37.5t-1 -17q-4 -23 -10 -43.5t-21 -36.5q-18 -23 -51 -35t-70.5 -20.5t-73.5 -10.5t-61 -2q-16 0 -45.5 1t-61.5 3t-61.5 4t-48.5 6q-57 8 -90 25.5t-49 46.5t-20.5 69t-4.5 95z" />
<glyph unicode="r" horiz-adv-x="1323" d="M129 0h381v522q8 72 20.5 104.5t40.5 57.5q18 16 64.5 40t116.5 24q33 0 60.5 -6.5t37.5 -10.5q61 -18 75.5 -57t20.5 -105h352q-2 104 -6 170t-22 111q-18 55 -68 98q-39 35 -82 53.5t-81 26.5t-68.5 9t-44.5 1q-123 0 -192.5 -14t-119.5 -45q-51 -35 -74.5 -75 t-45.5 -93v213h-365v-1024z" />
<glyph unicode="s" horiz-adv-x="1662" d="M109 336q2 -49 6 -91t26 -87q35 -70 93.5 -101.5t130.5 -48.5q37 -8 76.5 -12t74.5 -6t59 -2h37q162 -6 324 -6q59 0 116.5 1t116.5 5q131 10 205 49t105 90q18 29 28.5 63.5t14.5 65.5t5 54.5t1 33.5q0 53 -8.5 86t-18.5 53q-14 29 -33.5 51.5t-48.5 43.5 q-72 51 -150.5 59t-164.5 10q-47 2 -92 2q-43 0 -90 2q-53 2 -106.5 3t-99.5 2t-81 4.5t-51 7.5q-2 0 -11.5 4t-19.5 11t-19.5 17.5t-9.5 24.5q0 23 22.5 44.5t47.5 31.5q18 6 33 6h49q29 0 58.5 1t58.5 1q27 0 52 -1t52 -3q47 -4 81 -6t54 -8q29 -10 38 -23.5t17 -40.5 l394 -2q-2 61 -11.5 111.5t-56.5 97.5q-29 29 -75 51.5t-136 38.5q-63 10 -154.5 14t-234.5 4q-47 0 -95 -1t-95 -3q-57 -2 -100.5 -3t-77 -4t-62.5 -8t-55 -13q-55 -16 -90 -42t-55.5 -53.5t-31 -55.5t-14.5 -50q-8 -35 -10 -69.5t-2 -43.5q0 -53 8 -84.5t19 -50.5 q25 -53 77 -90q66 -47 140.5 -59.5t152.5 -14.5q68 -4 135.5 -5t133.5 -3h59t87 -1t88 -5t62 -12q27 -12 37.5 -32t10.5 -30q0 -23 -20.5 -45t-47.5 -33q-23 -10 -44.5 -12t-43.5 -2h-133q-39 0 -78 1t-72.5 3t-59.5 5t-36 5q-8 2 -38 14.5t-44 41.5q-4 10 -6 22.5t-4 24.5z " />
<glyph unicode="t" horiz-adv-x="1323" d="M23 754h194v-428v-17q0 -12 2 -30.5t4 -39t8 -38.5q4 -16 19.5 -49t50.5 -68q33 -33 70 -51.5t79 -28.5t85 -14t88 -6q37 -2 72.5 -3t72.5 -1q39 0 85 2t93 10t91 21.5t79 35.5q51 31 81 73t44 82t18.5 74.5t6.5 53.5q2 29 2 57v57h-342q0 -4 2 -25.5t2 -39.5t-2 -32.5 t-10 -31.5q-12 -23 -48 -44t-98 -21q-61 0 -98 14.5t-56 36.5q-12 16 -17 31.5t-5 50.5v375h623v264h-623v231h-381v-231h-192v-270z" />
<glyph unicode="u" d="M137 406q6 -59 15.5 -119t35.5 -111q8 -14 32 -47t65 -61q49 -35 113.5 -52.5t123 -24.5t101.5 -7h51h88t90 5t88 15t82 31q55 27 80.5 59.5t54.5 83.5v-178h377v1024h-379v-516q-2 -12 -5 -51t-26 -76q-18 -31 -45 -51q-47 -35 -113.5 -43t-121.5 -8q-53 0 -107.5 3 t-70.5 5q-35 6 -65 19t-52 44q-14 18 -20.5 39t-9.5 39t-3 33v20v543h-379v-618z" />
<glyph unicode="v" horiz-adv-x="1536" d="M-2 1024l500 -1024h499l510 1024h-434l-321 -731l-328 731h-426z" />
<glyph unicode="w" horiz-adv-x="2260" d="M4 1024l383 -1024h506l201 606l204 -606h508l385 1024h-401l-242 -737l-276 737h-357l-278 -745l-234 745h-399z" />
<glyph unicode="x" horiz-adv-x="1622" d="M35 0h457l260 348l252 -348h475l-459 547l416 477h-478l-210 -281l-199 281h-479l411 -487z" />
<glyph unicode="y" horiz-adv-x="1492" d="M4 1024l457 -1024h145q-23 -49 -41 -84t-35 -55q-16 -20 -38.5 -32.5t-79.5 -16.5q-31 -2 -62 -2h-59v-263q43 -4 87 -6t87 -2q123 0 199.5 29t115.5 67q16 16 32.5 40t39.5 69l557 1202l39 78h-410l-327 -745l-295 745h-412z" />
<glyph unicode="z" horiz-adv-x="1449" d="M63 0h1254v266h-672l649 457v301h-1183v-260h641l-689 -494v-270z" />
<glyph unicode="{" horiz-adv-x="724" d="M70 504q6 -2 20 -7t31 -16q25 -14 39 -29.5t20 -25.5q23 -31 33 -63.5t14 -67.5t3 -71t-1 -72v-258q0 -43 1 -90.5t10.5 -91.5t30 -83t59.5 -69q66 -51 144.5 -60.5t156.5 -11.5h94v14q-57 16 -101 34t-79 71q-35 55 -38 116.5t-3 122.5v220q0 74 -1 128t-7.5 96 t-19.5 74.5t-40 61.5q-33 37 -68.5 54.5t-80.5 29.5q51 14 92 34.5t72 65.5q20 31 30.5 66t14.5 78t5 97t1 126v194q2 72 3 111t11 74q10 37 27.5 62.5t38 42t40 24.5t31.5 12q39 12 72 19v16q-66 0 -115 -1t-88 -4t-70.5 -10.5t-64.5 -21.5q-92 -41 -123 -115.5t-35 -169.5 v-362q0 -37 -1 -80t-9 -84t-27.5 -78t-56.5 -61q-10 -6 -24.5 -13.5t-40.5 -13.5v-14z" />
<glyph unicode="|" horiz-adv-x="468" d="M104 -512h261v2044h-261v-2044z" />
<glyph unicode="}" horiz-adv-x="724" d="M0 -498v-14h113q49 0 88 3t69.5 10t61.5 20q47 20 77.5 51t49 67.5t27 80.5t10.5 92v358q0 37 1 80t9 85t27.5 78t56.5 60q29 20 65 27v16q-6 2 -20 6t-31 15q-25 16 -39 30.5t-20 24.5q-23 31 -33 64.5t-14 68.5t-3 70.5t1 70.5v260q0 43 -1 89.5t-10.5 90.5t-30 84 t-59.5 70q-66 49 -144.5 59.5t-156.5 10.5q-25 0 -48 1t-46 1v-16q53 -14 96 -30t78 -63q39 -55 43 -120.5t4 -128.5v-222q0 -72 1 -126t7.5 -96t20.5 -74.5t41 -63.5q31 -35 66.5 -53.5t80.5 -30.5q-49 -12 -89 -32.5t-70 -65.5q-23 -31 -34.5 -66t-16.5 -78t-5 -98v-125 v-195q0 -51 -1 -87.5t-4 -64.5t-12 -50.5t-26 -46.5q-35 -49 -80 -66.5t-100 -30.5z" />
<glyph unicode="~" horiz-adv-x="1492" d="M211 616l113 -213q47 53 75.5 83t61.5 46q18 8 36.5 11.5t39.5 5.5q41 0 76.5 -15.5t72.5 -31.5l64 -31q51 -25 102 -44t111 -19q43 0 97 16t130 70q37 29 57.5 48t34.5 36l-106 215q-59 -70 -110.5 -97.5t-94.5 -27.5q-25 0 -50.5 6t-48 14t-39 15.5t-18.5 9.5l-74 32 q-53 27 -102 45.5t-109 18.5q-72 0 -126 -23.5t-93 -55.5t-63.5 -64.5t-36.5 -49.5z" />
<glyph unicode="&#xa1;" horiz-adv-x="681" d="M100 1049h432v397h-432v-397zM106 0h426l-16 860h-391z" />
<glyph unicode="&#xa3;" horiz-adv-x="2004" d="M2 553h227q-2 -51 -7 -98t-38 -82t-67.5 -40t-50.5 -5l-3 -328h1835v317h-1447q47 14 77.5 26.5t51 27t32 30t21.5 35.5q12 25 19 54.5t12 60.5l602 2v250h-615q0 66 1 121t5 84q4 31 12.5 48t14.5 27q31 35 93.5 47.5t156.5 16.5h246q35 -4 69.5 -5t71.5 -5 q16 -4 49 -12.5t60 -43.5q20 -29 24 -56.5t6 -59.5h418q4 82 -1 162.5t-48 158.5q-14 27 -34.5 51.5t-52.5 44t-78 36t-112 26.5q-72 10 -146.5 13t-145.5 5h-338q-51 0 -115 -1t-130.5 -6t-130 -17.5t-116.5 -34.5q-16 -6 -39.5 -19.5t-48.5 -35t-48.5 -54t-37.5 -77.5 q-20 -61 -26.5 -163t-8.5 -253h-219v-248z" />
<glyph unicode="&#xa4;" horiz-adv-x="1366" d="M12 219l195 -194l166 168q39 -25 114.5 -58t194.5 -33q59 0 107.5 9.5t86 22.5t65.5 27.5t48 26.5l166 -168l197 195l-166 168q12 20 27.5 49t28.5 67t22.5 86t9.5 107q0 35 -8.5 105.5t-46.5 150.5q-8 16 -15.5 28.5t-15.5 27.5l166 163l-197 197l-166 -166 q-41 25 -114.5 56.5t-192.5 31.5q-94 0 -158.5 -19.5t-97.5 -35.5q-14 -8 -27.5 -15.5t-27.5 -17.5l-164 164l-195 -195l164 -163q-25 -41 -55.5 -115t-30.5 -197q0 -29 7 -99.5t44 -146.5q8 -16 17.5 -30.5t19.5 -28.5zM348 694q0 111 58.5 197t164.5 123q39 14 67 17t44 3 q98 0 181 -52t124 -142q23 -47 27 -86.5t4 -57.5q0 -100 -49 -182t-140 -125q-20 -10 -55 -21.5t-88 -11.5q-100 0 -186 54.5t-127 150.5q-18 43 -21.5 79t-3.5 54z" />
<glyph unicode="&#xa6;" horiz-adv-x="468" d="M104 389v-780h261v780h-261zM104 631h261v780h-261v-780z" />
<glyph unicode="&#xa7;" horiz-adv-x="1150" d="M57 719q0 -47 9.5 -81t13.5 -50q14 -39 34.5 -64.5t47 -44t58.5 -32t71 -25.5l381 -107q39 -8 52 -16t13 -23q0 -12 -4 -21t-8 -13q-16 -25 -33.5 -28t-27.5 -3q-14 0 -27.5 1t-28.5 3q-41 4 -80 5t-77 18q-33 14 -39 35.5t-9 56.5h-288q2 -53 5 -98.5t17.5 -83t42 -68.5 t76.5 -51q31 -14 58.5 -20.5t60.5 -10.5q37 -4 72.5 -7t72.5 -5q55 -4 111 -4q57 0 114 2q39 4 75 9t71 21q33 16 54.5 38t31.5 32q31 41 52.5 98.5t21.5 163.5q0 37 -6.5 62.5t-18.5 46t-32.5 39t-47.5 41.5q57 35 96 66.5t56 96.5q6 25 8 50.5t2 31.5q0 25 -4 54.5 t-10 52.5q-23 74 -70 103.5t-119 53.5l-411 121q-25 8 -45.5 18.5t-22.5 26.5q0 10 3 15.5t5 9.5q10 16 23.5 19t29.5 6h80q49 -2 80 -5.5t49 -19.5q16 -14 22.5 -36.5t10.5 -47.5h301q-2 39 -5 76t-12 69.5t-25.5 61t-47.5 51.5q-47 33 -93 41t-99 12q-45 4 -88.5 6 t-86.5 2q-88 0 -174 -6q-37 -4 -71.5 -8t-67.5 -20q-18 -10 -40.5 -30t-41 -50.5t-32 -72.5t-13.5 -97q0 -4 1 -23.5t4 -46t10.5 -56.5t19.5 -50q8 -12 17.5 -24.5t29.5 -35.5q-49 -29 -86 -55.5t-55 -79.5q-10 -29 -13.5 -57.5t-3.5 -38.5zM309 797q0 31 16.5 50t36.5 36 l396 -117q31 -14 57.5 -30.5t26.5 -43.5q0 -10 -3 -20t-5 -15q-8 -14 -19.5 -25t-36.5 -28l-381 113q-35 14 -61.5 30.5t-26.5 49.5z" />
<glyph unicode="&#xa8;" horiz-adv-x="641" d="M-281 1110h299v221h-299v-221zM154 1112h305v221h-305v-221z" />
<glyph unicode="&#xa9;" d="M125 725q0 -121 30.5 -217t74.5 -168t93.5 -121t84.5 -76q96 -72 209.5 -110.5t236.5 -38.5q39 0 103.5 8t140.5 33.5t157.5 77t153.5 137.5q57 68 92 137.5t53.5 132t23.5 114.5t5 85q2 121 -34 231.5t-107 208.5q-106 143 -259 218t-327 75q-117 0 -209 -28.5 t-161.5 -68.5t-118 -85t-76.5 -78q-23 -27 -51.5 -69t-54 -100t-43 -133t-17.5 -165zM190 723q0 113 30 202t73 155.5t90 110.5t80 69q59 43 118.5 68.5t111.5 38.5t94 16t69 3q113 0 201 -29.5t153.5 -70.5t109.5 -87t69 -79q45 -61 70.5 -120.5t38.5 -112.5t16.5 -96 t3.5 -70q0 -104 -32 -201.5t-88.5 -179.5t-137 -144.5t-181.5 -97.5q-76 -27 -134 -33t-89 -6q-102 0 -196.5 29t-175.5 83t-144.5 130t-99.5 170q-49 119 -50 252zM358 725q0 -76 18.5 -146.5t54.5 -132t90 -109.5t126 -79q72 -29 133.5 -35t89.5 -6q123 0 219.5 41 t180.5 131l-178 166q-25 -25 -77 -58.5t-143 -35.5q-121 0 -190.5 71.5t-71.5 192.5q0 74 33 140.5t100 101.5q37 16 73 20t50 4q45 0 82 -11t64.5 -26.5t47 -33t32.5 -29.5l178 172q-23 25 -56.5 54.5t-82 56t-113 45t-148.5 18.5q-111 0 -191.5 -30.5t-137 -76t-90 -95.5 t-50.5 -89q-12 -29 -27.5 -85t-15.5 -136z" />
<glyph unicode="&#xab;" horiz-adv-x="1449" d="M59 530l324 -544l289 161l-221 381l231 392l-301 170zM709 532l319 -548l295 163l-219 383l231 396l-297 168z" />
<glyph unicode="&#xac;" horiz-adv-x="1366" d="M0 465h1104v-465h262v725h-1366v-260z" />
<glyph unicode="&#xad;" horiz-adv-x="1193" d="M72 387h1018v377h-1018v-377z" />
<glyph unicode="&#xae;" d="M125 725q0 -121 30.5 -217t74.5 -168t93.5 -121t84.5 -76q96 -72 209.5 -110.5t236.5 -38.5q39 0 103.5 8t140.5 33.5t157.5 77t153.5 137.5q57 68 92 137.5t53.5 132t23.5 114.5t5 85q2 121 -34 231.5t-107 208.5q-106 143 -259 218t-327 75q-117 0 -209 -28.5 t-161.5 -68.5t-118 -85t-76.5 -78q-23 -27 -51.5 -69t-54 -100t-43 -133t-17.5 -165zM190 723q0 113 30 202t73 155.5t90 110.5t80 69q59 43 118.5 68.5t111.5 38.5t94 16t69 3q113 0 201 -29.5t153.5 -70.5t109.5 -87t69 -79q45 -61 70.5 -120.5t38.5 -112.5t16.5 -96 t3.5 -70q0 -104 -32 -201.5t-88.5 -179.5t-137 -144.5t-181.5 -97.5q-76 -27 -134 -33t-89 -6q-102 0 -196.5 29t-175.5 83t-144.5 130t-99.5 170q-49 119 -50 252zM512 262h225v393h39q31 -2 62.5 -3t58.5 -23q20 -16 26.5 -44t16.5 -77q10 -66 18.5 -125t36.5 -119l258 -2 q-23 43 -37 91t-23 91t-14 76t-8 43q0 6 -3 23.5t-10 39t-20.5 44t-35.5 39.5q-8 6 -15.5 11t-15.5 9q16 8 44 22.5t53.5 39t45 62.5t19.5 95q0 86 -51 152q-16 23 -38 40t-50.5 29.5t-68.5 19.5t-95 9q-20 2 -41 2h-41h-336v-938zM737 834v194h142q51 0 77.5 -11t40.5 -34 q8 -14 10.5 -28.5t2.5 -18.5q0 -20 -5.5 -34.5t-9.5 -18.5q-20 -37 -55 -43t-102 -6h-101z" />
<glyph unicode="&#xb0;" horiz-adv-x="724" d="M10 1174q0 -78 32 -148t91 -121q33 -29 66.5 -45t64.5 -25.5t56.5 -12.5t41.5 -3q104 0 192.5 56.5t129.5 152.5q10 18 20.5 55t10.5 91q0 104 -54.5 192t-152.5 129q-47 23 -86.5 27t-59.5 4q-74 0 -137 -26.5t-111 -75t-76 -113t-28 -137.5zM250 1178q0 47 32.5 79.5 t79.5 32.5t81 -32.5t34 -79.5t-32.5 -81t-79.5 -34t-81 33.5t-34 81.5z" />
<glyph unicode="&#xb1;" horiz-adv-x="1366" d="M86 0h1194v260h-1194v-260zM86 760h467v-428h262v428h465v260h-465v426h-262v-426h-467v-260z" />
<glyph unicode="&#xb4;" horiz-adv-x="641" d="M-199 1260l39 -148l541 98l-78 252z" />
<glyph unicode="&#xb6;" horiz-adv-x="1366" d="M168 1006q0 -78 18.5 -136.5t46 -101.5t58.5 -71.5t57 -45.5q41 -25 80 -37t55 -16v-940h174v1628h240v-1628h172v1628h74v160h-512q-51 0 -96.5 -5t-92.5 -22q-37 -12 -84 -40.5t-89 -78t-71.5 -122t-29.5 -172.5z" />
<glyph unicode="&#xb7;" horiz-adv-x="382" d="M10 592q0 -37 13.5 -70t38 -57.5t56 -38.5t68.5 -14t67 11t51.5 28.5t33.5 35t18 27.5q18 37 19 80q0 78 -50.5 130t-127.5 52q-41 0 -71 -12t-50.5 -30.5t-32.5 -38t-18 -33.5q-10 -23 -12.5 -41.5t-2.5 -28.5z" />
<glyph unicode="&#xb8;" horiz-adv-x="641" d="M-236 -201l78 -137l389 92l-131 215z" />
<glyph unicode="&#xbb;" horiz-adv-x="1449" d="M55 152l293 -170l332 563l-326 555l-284 -168l213 -385zM709 154l297 -170l325 563l-327 540l-289 -159l219 -383z" />
<glyph unicode="&#xbf;" horiz-adv-x="1662" d="M68 403q0 -86 10 -144t26 -93q23 -47 59 -76t72.5 -45t66.5 -23.5t42 -9.5q18 -4 35.5 -6t34.5 -6q96 -6 190 -12t191 -6q98 0 193 6t194 12q70 10 133 26.5t121 63.5q37 31 57 67t32.5 85t16.5 114.5t6 151.5h-379q-2 -80 -13 -131t-46 -74q-29 -16 -82 -22.5 t-127 -10.5l-305 9q-45 6 -82 15t-55 48q-4 6 -10.5 24.5t-6.5 41.5q0 37 15.5 61.5t40 38.5t55.5 21.5t63 13.5q47 6 93.5 11t90.5 13t86 22.5t83 39.5q68 41 84 83t20 76q2 18 2 37q0 18 2 39v84h-381q-2 -4 -5 -25.5t-13 -35.5q-6 -10 -15.5 -15.5t-31.5 -11.5 q-18 -4 -34.5 -7t-33.5 -7l-248 -49q-47 -10 -86 -24.5t-75 -49.5q-47 -45 -66.5 -115.5t-19.5 -204.5zM672 1081h430v365h-430v-365z" />
<glyph unicode="&#xc0;" horiz-adv-x="2260" d="M2 0h487l138 258h932l135 -258h501l-815 1446h-575zM743 1655l621 -113l53 178l-581 234zM788 563l310 563l299 -563h-609z" />
<glyph unicode="&#xc1;" horiz-adv-x="2260" d="M2 0h487l138 258h932l135 -258h501l-815 1446h-575zM788 563l310 563l299 -563h-609zM807 1718l47 -174l621 109l-82 303z" />
<glyph unicode="&#xc2;" horiz-adv-x="2260" d="M2 0h487l138 258h932l135 -258h501l-815 1446h-575zM571 1673l58 -133l78 12l342 78q39 6 55 6t35.5 -3t21.5 -3l365 -86l63 -10l60 135l-543 256zM788 563l310 563l299 -563h-609z" />
<glyph unicode="&#xc3;" horiz-adv-x="2260" d="M2 0h487l138 258h932l135 -258h501l-815 1446h-575zM502 1583l213 -2q0 2 2 21.5t10 33.5q10 16 33.5 33t66.5 17q18 0 34 -2.5t50 -10.5l283 -76q35 -6 62.5 -11t62.5 -5q57 0 96 14.5t60 24.5q45 25 73.5 60.5t47 70.5t26.5 63.5t12 43.5q4 18 8.5 35.5t8.5 35.5h-199 q-4 -12 -7 -23.5t-11 -21.5q-12 -18 -30 -28.5t-35 -15.5t-30.5 -6t-19.5 -1q-31 0 -66.5 7t-66.5 15.5t-52.5 16.5t-23.5 8q-10 2 -34.5 11.5t-60.5 19.5t-78 17t-85 7q-14 0 -47 -2t-72 -16q-35 -12 -60.5 -28.5t-35.5 -24.5q-35 -29 -57.5 -60.5t-38 -66.5t-23.5 -73 t-16 -81zM788 563l310 563l299 -563h-609z" />
<glyph unicode="&#xc4;" horiz-adv-x="2260" d="M2 0h487l138 258h932l135 -258h501l-815 1446h-575zM596 1577h395v258h-395v-258zM788 563l310 563l299 -563h-609zM1210 1577h392v258h-392v-258z" />
<glyph unicode="&#xc5;" horiz-adv-x="2260" d="M2 0h487l138 258h932l135 -258h501l-815 1446h-575zM692 1737q0 -12 3 -31.5t11.5 -41.5t23.5 -44.5t42 -40.5q82 -53 289 -53q20 0 54 1t71 3t69.5 4t55.5 6q53 10 97 30.5t71 69.5q6 12 14 34t8 52q0 53 -21.5 90t-31.5 52q-23 27 -48.5 42t-53 22t-57 9.5t-60.5 4.5 t-62 2h-61q-29 0 -56.5 1t-56.5 1h-39t-61.5 -7.5t-73.5 -24.5t-71 -52q-25 -25 -35.5 -47.5t-14.5 -34.5q-6 -31 -6 -47zM788 563l310 563l299 -563h-609zM874 1735q0 16 13.5 33.5t30.5 23.5q18 10 36 10h25h197q47 4 75.5 -2t51.5 -24q4 -4 12 -13.5t8 -23.5 q2 -10 -12.5 -30.5t-48.5 -31.5q-10 -4 -23 -4h-37h-196q-2 0 -14.5 -1t-30 1t-36 8.5t-34.5 20.5q-16 16 -17 33z" />
<glyph unicode="&#xc6;" horiz-adv-x="3241" d="M25 0h507l183 266h805v-266h1562v328h-1145v254h1065v301h-1058v237h1128v326h-2050zM905 561l371 561h246v-561h-617z" />
<glyph unicode="&#xc7;" horiz-adv-x="2134" d="M111 723q0 -78 5 -153.5t11 -151.5q10 -90 31.5 -163t91.5 -136q70 -66 164 -88.5t194 -38.5q129 -4 255 -7t255 -3q117 0 233.5 4t233.5 12q72 10 139.5 26.5t126.5 65.5q39 31 61.5 68t35 79t16.5 87t6 92q2 35 3 66.5t1 64.5h-440q-4 -41 -9 -79t-28 -65 q-16 -20 -41.5 -31.5t-50.5 -16.5t-43.5 -7t-20.5 -2h-530q-6 0 -27.5 2t-49 8t-58.5 18.5t-55 35.5q-43 39 -51.5 98t-10.5 119v106q0 80 3 141.5t13 94.5q12 43 36 67.5t49.5 37.5t49 17.5t38.5 6.5q16 2 34.5 3t34.5 1q137 6 270 6q66 0 129.5 -2t126.5 -6 q45 -4 84 -12.5t66 -40.5q23 -29 27 -54.5t4 -58.5l432 -2q0 49 -3 105.5t-13.5 111.5t-33 106.5t-63.5 87.5q-61 57 -135 77t-152 32q-129 4 -254.5 9t-254.5 5q-127 0 -252 -6t-250 -16q-18 -4 -56 -10.5t-86.5 -23.5t-98.5 -47t-91 -79q-47 -59 -62.5 -115.5 t-25.5 -128.5q-4 -80 -9 -158.5t-5 -158.5zM723 -201l80 -137l389 92l-131 215z" />
<glyph unicode="&#xc8;" horiz-adv-x="1961" d="M150 0h1615v328h-1175v254h1112v303h-1112v241h1175v320h-1615v-1446zM596 1655l618 -113l54 178l-580 234z" />
<glyph unicode="&#xc9;" horiz-adv-x="1961" d="M150 0h1615v328h-1175v254h1112v303h-1112v241h1175v320h-1615v-1446zM657 1718l48 -174l620 109l-82 303z" />
<glyph unicode="&#xca;" horiz-adv-x="1961" d="M150 0h1615v328h-1175v254h1112v303h-1112v241h1175v320h-1615v-1446zM422 1673l57 -133l78 12l342 78q39 6 55 6t36 -3t22 -3l364 -86l64 -10l59 135l-543 256z" />
<glyph unicode="&#xcb;" horiz-adv-x="1961" d="M150 0h1615v328h-1175v254h1112v303h-1112v241h1175v320h-1615v-1446zM453 1585h395v256h-395v-256zM1063 1585h399v256h-399v-256z" />
<glyph unicode="&#xcc;" horiz-adv-x="811" d="M18 1655l621 -113l53 178l-581 234zM154 0h458v1446h-458v-1446z" />
<glyph unicode="&#xcd;" horiz-adv-x="811" d="M82 1718l47 -174l621 109l-82 303zM154 0h458v1446h-458v-1446z" />
<glyph unicode="&#xce;" horiz-adv-x="811" d="M-154 1673l58 -133l78 12l342 78q39 6 55 6q14 0 34.5 -3t22.5 -3l365 -86l63 -10l58 135l-541 256zM154 0h458v1446h-458v-1446z" />
<glyph unicode="&#xcf;" horiz-adv-x="811" d="M-125 1585h397v256h-397v-256zM154 0h458v1446h-458v-1446zM487 1585h398v256h-398v-256z" />
<glyph unicode="&#xd1;" horiz-adv-x="2347" d="M152 0h421v1106q90 -121 180.5 -241t182.5 -238q125 -160 251 -315.5t255 -311.5h710v1446h-417v-451l8 -663q-104 135 -206.5 269t-207.5 267q-117 147 -233.5 289.5t-235.5 288.5h-708v-1446zM545 1583l213 -2q0 2 2 21.5t10 33.5q10 16 33.5 33t66.5 17q18 0 34 -2.5 t50 -10.5l283 -76q35 -6 62.5 -11t62.5 -5q57 0 96 14.5t58 24.5q45 25 74.5 60.5t48 70.5t26.5 63.5t12 43.5q4 18 8.5 35.5t8.5 35.5h-199q-4 -12 -7 -23.5t-11 -21.5q-12 -18 -29.5 -28.5t-35 -15.5t-31 -6t-19.5 -1q-31 0 -66.5 7t-66.5 15.5t-52.5 16.5t-23.5 8 q-10 2 -35.5 11.5t-60.5 19.5t-77 17t-85 7q-14 0 -47 -2t-72 -16q-35 -12 -60.5 -28.5t-35.5 -24.5q-35 -29 -57.5 -60.5t-38 -66.5t-23.5 -73t-16 -81z" />
<glyph unicode="&#xd2;" horiz-adv-x="2304" d="M109 616q0 -70 3 -144.5t20.5 -145t53 -133t101.5 -107.5q43 -29 87 -46t90 -26.5t93 -14.5t96 -7q125 -4 248 -6t248 -2q111 0 218.5 2t215.5 4q59 4 120.5 12t118 24.5t108.5 47t93 82.5q53 66 72 132t29 146q4 53 7 103.5t5 101.5q4 78 2 155.5t-6 155.5t-15.5 148.5 t-50.5 142.5q-33 57 -74.5 94t-83.5 57.5t-79 30t-60 13.5q-16 4 -33.5 6t-33.5 4q-160 8 -315.5 13t-313.5 5q-135 0 -266 -5t-264 -13q-66 -10 -120 -22.5t-112 -47.5q-78 -45 -119.5 -113.5t-58.5 -154.5q-4 -16 -6 -33.5t-4 -34.5zM559 678q2 86 4 144.5t6 97.5 q2 8 7.5 32.5t17.5 46.5q4 10 14 23.5t33 30.5q31 23 67.5 34t112.5 15h619q43 -4 79.5 -8t66.5 -18.5t52.5 -39t34.5 -67.5q8 -23 10.5 -43.5t4.5 -44.5v-314q-6 -53 -13.5 -80.5t-21.5 -50.5q-16 -29 -41 -46t-53.5 -26.5t-62.5 -14.5t-69 -7h-589q-92 8 -148.5 23.5 t-85.5 54.5q-25 35 -33 100.5t-12 157.5zM766 1655l620 -113l54 178l-582 234z" />
<glyph unicode="&#xd3;" horiz-adv-x="2304" d="M109 616q0 -70 3 -144.5t20.5 -145t53 -133t101.5 -107.5q43 -29 87 -46t90 -26.5t93 -14.5t96 -7q125 -4 248 -6t248 -2q111 0 218.5 2t215.5 4q59 4 120.5 12t118 24.5t108.5 47t93 82.5q53 66 72 132t29 146q4 53 7 103.5t5 101.5q4 78 2 155.5t-6 155.5t-15.5 148.5 t-50.5 142.5q-33 57 -74.5 94t-83.5 57.5t-79 30t-60 13.5q-16 4 -33.5 6t-33.5 4q-160 8 -315.5 13t-313.5 5q-135 0 -266 -5t-264 -13q-66 -10 -120 -22.5t-112 -47.5q-78 -45 -119.5 -113.5t-58.5 -154.5q-4 -16 -6 -33.5t-4 -34.5zM559 678q2 86 4 144.5t6 97.5 q2 8 7.5 32.5t17.5 46.5q4 10 14 23.5t33 30.5q31 23 67.5 34t112.5 15h619q43 -4 79.5 -8t66.5 -18.5t52.5 -39t34.5 -67.5q8 -23 10.5 -43.5t4.5 -44.5v-314q-6 -53 -13.5 -80.5t-21.5 -50.5q-16 -29 -41 -46t-53.5 -26.5t-62.5 -14.5t-69 -7h-589q-92 8 -148.5 23.5 t-85.5 54.5q-25 35 -33 100.5t-12 157.5zM827 1718l50 -174l620 109l-84 303z" />
<glyph unicode="&#xd4;" horiz-adv-x="2304" d="M109 616q0 -70 3 -144.5t20.5 -145t53 -133t101.5 -107.5q43 -29 87 -46t90 -26.5t93 -14.5t96 -7q125 -4 248 -6t248 -2q111 0 218.5 2t215.5 4q59 4 120.5 12t118 24.5t108.5 47t93 82.5q53 66 72 132t29 146q4 53 7 103.5t5 101.5q4 78 2 155.5t-6 155.5t-15.5 148.5 t-50.5 142.5q-33 57 -74.5 94t-83.5 57.5t-79 30t-60 13.5q-16 4 -33.5 6t-33.5 4q-160 8 -315.5 13t-313.5 5q-135 0 -266 -5t-264 -13q-66 -10 -120 -22.5t-112 -47.5q-78 -45 -119.5 -113.5t-58.5 -154.5q-4 -16 -6 -33.5t-4 -34.5zM559 678q2 86 4 144.5t6 97.5 q2 8 7.5 32.5t17.5 46.5q4 10 14 23.5t33 30.5q31 23 67.5 34t112.5 15h619q43 -4 79.5 -8t66.5 -18.5t52.5 -39t34.5 -67.5q8 -23 10.5 -43.5t4.5 -44.5v-314q-6 -53 -13.5 -80.5t-21.5 -50.5q-16 -29 -41 -46t-53.5 -26.5t-62.5 -14.5t-69 -7h-589q-92 8 -148.5 23.5 t-85.5 54.5q-25 35 -33 100.5t-12 157.5zM592 1673l57 -133l80 12l342 78q39 6 53 6q16 0 36 -3t22 -3l364 -86l66 -10l57 135l-543 256z" />
<glyph unicode="&#xd5;" horiz-adv-x="2304" d="M109 616q0 -70 3 -144.5t20.5 -145t53 -133t101.5 -107.5q43 -29 87 -46t90 -26.5t93 -14.5t96 -7q125 -4 248 -6t248 -2q111 0 218.5 2t215.5 4q59 4 120.5 12t118 24.5t108.5 47t93 82.5q53 66 72 132t29 146q4 53 7 103.5t5 101.5q4 78 2 155.5t-6 155.5t-15.5 148.5 t-50.5 142.5q-33 57 -74.5 94t-83.5 57.5t-79 30t-60 13.5q-16 4 -33.5 6t-33.5 4q-160 8 -315.5 13t-313.5 5q-135 0 -266 -5t-264 -13q-66 -10 -120 -22.5t-112 -47.5q-78 -45 -119.5 -113.5t-58.5 -154.5q-4 -16 -6 -33.5t-4 -34.5zM524 1583l211 -2q0 2 3 21.5t10 33.5 q10 16 34.5 33t65.5 17q18 0 34.5 -2.5t51.5 -10.5l280 -76q35 -6 63 -11t62 -5q59 0 97.5 14.5t58.5 24.5q45 25 73.5 60.5t47 70.5t28 63.5t13.5 43.5q4 18 7 35.5t7 35.5h-198q-4 -12 -7.5 -23.5t-9.5 -21.5q-12 -18 -30.5 -28.5t-35 -15.5t-29.5 -6t-20 -1 q-31 0 -66.5 7t-66 15.5t-52 16.5t-23.5 8q-10 2 -36 11.5t-61 19.5t-76.5 17t-85.5 7q-14 0 -47.5 -2t-70.5 -16q-37 -12 -62.5 -28.5t-36.5 -24.5q-35 -29 -57 -60.5t-36.5 -66.5t-23 -73t-16.5 -81zM559 678q2 86 4 144.5t6 97.5q2 8 7.5 32.5t17.5 46.5q4 10 14 23.5 t33 30.5q31 23 67.5 34t112.5 15h619q43 -4 79.5 -8t66.5 -18.5t52.5 -39t34.5 -67.5q8 -23 10.5 -43.5t4.5 -44.5v-314q-6 -53 -13.5 -80.5t-21.5 -50.5q-16 -29 -41 -46t-53.5 -26.5t-62.5 -14.5t-69 -7h-589q-92 8 -148.5 23.5t-85.5 54.5q-25 35 -33 100.5t-12 157.5z " />
<glyph unicode="&#xd6;" horiz-adv-x="2304" d="M109 618q0 -74 3 -150.5t21.5 -148t57 -134t110.5 -107.5q84 -53 171 -66.5t181 -19.5q123 -4 245 -6t245 -2q111 0 220.5 2t219.5 6q82 4 159 15t154 48q29 16 49.5 29.5t30.5 24.5q41 33 66.5 72.5t41 76.5t21.5 68.5t11 48.5q2 16 4 30.5t4 30.5q4 51 7 101.5t5 101.5 q4 78 2 156.5t-6 156.5q-4 57 -9 100.5t-12.5 76t-18.5 59t-26 53.5q-33 57 -74.5 94t-83.5 58.5t-79 31t-60 13.5q-16 4 -33.5 5t-33.5 5q-160 6 -315.5 12t-313.5 6q-135 0 -266 -6t-264 -12q-51 -8 -76 -12t-51 -13q-96 -29 -152.5 -79t-86.5 -106t-40 -109.5t-14 -88.5z M559 680q2 86 4 143.5t6 96.5q10 66 33 95t49 46q31 20 66 28.5t104 12.5h619q43 -4 79.5 -8t66.5 -17.5t52.5 -38t34.5 -67.5q8 -25 10.5 -45.5t4.5 -44.5v-314q-4 -37 -10.5 -70.5t-26.5 -66.5q-35 -53 -94.5 -67.5t-129.5 -18.5h-589q-92 8 -148.5 23.5t-85.5 54.5 q-25 35 -33 99.5t-12 158.5zM625 1587h397v258h-397v-258zM1239 1587h393v254h-393v-254z" />
<glyph unicode="&#xd7;" horiz-adv-x="1366" d="M125 225l184 -186l373 373l375 -373l182 186l-371 371l371 375l-182 180l-375 -371l-373 371l-184 -180l373 -375z" />
<glyph unicode="&#xd8;" horiz-adv-x="2304" d="M20 -41l246 145q23 -16 45.5 -32.5t46.5 -28.5q47 -23 108.5 -35t116 -16t93.5 -4h45q49 0 97 1t95 1h195t236.5 3t237.5 12t196 28q66 16 104.5 33.5t61.5 33.5q59 39 96 95q37 47 55.5 97t27.5 102t11 106.5t2 111.5v174q0 74 -3 129.5t-9 98.5t-13.5 79.5t-15.5 73.5 l137 78v250l-250 -141q-41 27 -79.5 47t-86 34.5t-112 21.5t-156.5 7q-80 0 -159.5 -1t-159.5 -1q-156 0 -308.5 -1t-310.5 -17q-86 -8 -147.5 -22.5t-105.5 -35t-76.5 -46t-59.5 -58.5q-72 -86 -91 -185.5t-19 -207.5q0 -49 1 -98.5t1 -96.5q2 -92 3 -145t4 -91t11 -74 t23 -91l-134 -84v-250zM537 846q0 86 17 133t46 80q20 23 44 35t55.5 20t73.5 11t99 8q80 6 159 8t157 2q43 2 86 2h84q53 0 92 -3t59 -14q18 -8 43 -26l-1001 -582q-4 80 -9 161t-5 165zM686 348l1018 596q4 -55 5 -110.5t3 -112.5q2 -29 3 -58.5t1 -58.5v-35 q0 -23 -6 -54.5t-21.5 -65t-43.5 -62.5q-23 -23 -50.5 -34t-59.5 -17t-64.5 -8t-63.5 -4q-109 -10 -209 -13q-72 0 -141.5 2t-141.5 2q-39 0 -65.5 1t-51 4.5t-50 10.5t-62.5 17z" />
<glyph unicode="&#xd9;" horiz-adv-x="2260" d="M160 455q8 -72 20.5 -136.5t52.5 -130.5q53 -84 133 -123.5t173 -56.5q23 -4 44 -6t44 -6q119 -6 236.5 -10t236.5 -4q104 0 204.5 2t204.5 4q90 8 171 22.5t161 63.5q57 35 92 80t54.5 89t27.5 80.5t13 59.5q4 27 6 52.5t4 51.5v959h-447v-873q-4 -47 -14 -98t-45 -86 q-23 -20 -55.5 -30.5t-104.5 -20.5h-426q-119 -2 -191.5 11t-109.5 67q-29 41 -34 90t-7 96v844h-444v-991zM743 1655l621 -113l53 178l-581 234z" />
<glyph unicode="&#xda;" horiz-adv-x="2260" d="M160 455q8 -72 20.5 -136.5t52.5 -130.5q53 -84 133 -123.5t173 -56.5q23 -4 44 -6t44 -6q119 -6 236.5 -10t236.5 -4q104 0 204.5 2t204.5 4q90 8 171 22.5t161 63.5q57 35 92 80t54.5 89t27.5 80.5t13 59.5q4 27 6 52.5t4 51.5v959h-447v-873q-4 -47 -14 -98t-45 -86 q-23 -20 -55.5 -30.5t-104.5 -20.5h-426q-119 -2 -191.5 11t-109.5 67q-29 41 -34 90t-7 96v844h-444v-991zM807 1718l47 -174l621 109l-82 303z" />
<glyph unicode="&#xdb;" horiz-adv-x="2260" d="M160 455q8 -72 20.5 -136.5t52.5 -130.5q53 -84 133 -123.5t173 -56.5q23 -4 44 -6t44 -6q119 -6 236.5 -10t236.5 -4q104 0 204.5 2t204.5 4q90 8 171 22.5t161 63.5q57 35 92 80t54.5 89t27.5 80.5t13 59.5q4 27 6 52.5t4 51.5v959h-447v-873q-4 -47 -14 -98t-45 -86 q-23 -20 -55.5 -30.5t-104.5 -20.5h-426q-119 -2 -191.5 11t-109.5 67q-29 41 -34 90t-7 96v844h-444v-991zM571 1673l58 -133l78 12l342 78q39 6 55 6t35.5 -3t21.5 -3l365 -86l63 -10l60 135l-543 256z" />
<glyph unicode="&#xdc;" horiz-adv-x="2260" d="M160 453q8 -76 22.5 -144.5t59.5 -134.5q35 -53 80 -85t89 -49t80.5 -23.5t55.5 -8.5q20 -4 39.5 -5t40.5 -3q135 -12 278 -18q113 -6 228 -7q96 0 189 2.5t187 6.5q86 8 165 21t157 61q63 37 101 85t59.5 96t29 90t11.5 64q2 23 3 43.5t3 40.5v961h-447v-875 q-4 -43 -12 -91t-41 -85q-29 -33 -73 -43t-93 -18h-426q-119 0 -192.5 13t-108.5 67q-16 25 -25.5 55.5t-12.5 58t-3 47.5v25v846h-444v-993zM602 1585h395v256h-395v-256zM1214 1587h398v250h-398v-250z" />
<glyph unicode="&#xdf;" d="M127 -2h385v979q2 59 11 103t59 79q35 23 66.5 27t66.5 8q33 4 65.5 7t65.5 3q25 0 50.5 -2t49 -5t39.5 -6t21 -5q49 -12 65 -40t16 -50q0 -33 -18 -54q-16 -23 -46 -30.5t-95 -10.5h-248v-253h197q80 -4 136 -8.5t89 -18.5q8 -4 22.5 -13.5t30.5 -27.5q23 -29 27 -57.5 t4 -63.5v-139q-2 -45 -11.5 -81t-52.5 -60q-23 -14 -42 -17.5t-29 -3.5q-16 0 -50 9t-55 44q-10 18 -15 40t-9 44l-324 2q0 -84 5 -128t22 -81q14 -35 47 -73.5t84 -70.5t120.5 -52.5t161.5 -20.5q147 0 238.5 35t134.5 72q31 25 50.5 50.5t27.5 37.5q29 45 44 94t22.5 92 t8.5 77t1 50q0 92 -21.5 172t-93.5 142q-51 43 -100.5 54t-110.5 17q29 6 56.5 13.5t52.5 21.5q16 8 37.5 25.5t40 45t30.5 65.5t12 91q0 51 -9 85t-17 53q-25 59 -83.5 108t-189.5 78l-104 18q-53 4 -107.5 7.5t-109.5 3.5q-53 0 -107.5 -2t-107.5 -7q-49 -6 -105.5 -14 t-112 -23.5t-105.5 -39t-87 -62.5q-29 -31 -46 -64.5t-26.5 -65.5t-12.5 -57.5t-5 -37.5q-4 -20 -4 -41q0 -20 -2 -43v-1024z" />
<glyph unicode="&#xe0;" horiz-adv-x="1662" d="M109 299q0 -59 9 -100t24.5 -71t35 -48.5t41.5 -32.5q59 -37 124 -48t130 -13q59 -2 116.5 -5.5t115.5 -3.5q133 0 221 27t129 68q27 27 41 59.5t30 67.5l-12 -199h375v653q0 76 -11.5 142.5t-64.5 126.5q-45 51 -122 79.5t-216 36.5q-23 0 -46 1t-46 1h-215 q-135 -4 -221 -9t-146 -19q-104 -25 -157.5 -75t-69.5 -93q-10 -31 -13 -58.5t-7 -62.5l376 -2q8 27 17.5 42t22 22.5t29.5 10.5t46 3h258q76 0 119 -11.5t61 -44.5q10 -23 14.5 -48t6.5 -54v-82q-45 33 -78 51.5t-65.5 27.5t-70.5 10t-95 -1h-236q-74 0 -158 -7t-157 -44 q-27 -14 -51.5 -34.5t-43 -55.5t-29.5 -85t-11 -122zM485 336q0 16 4.5 27.5t8.5 17.5q20 35 54 41t73 8q41 4 77.5 5t73.5 5h105q80 -2 124 -7t74 -42q16 -20 20.5 -36.5t6.5 -24.5q0 -35 -21.5 -54.5t-27.5 -23.5q-31 -16 -90.5 -22.5t-139.5 -10.5h-129q-76 0 -117.5 6 t-68.5 41q-6 6 -16.5 24.5t-10.5 45.5zM522 1204l535 -100l43 143l-500 201z" />
<glyph unicode="&#xe1;" horiz-adv-x="1662" d="M109 299q0 -59 9 -100t24.5 -71t35 -48.5t41.5 -32.5q59 -37 124 -48t130 -13q59 -2 116.5 -5.5t115.5 -3.5q133 0 221 27t129 68q27 27 41 59.5t30 67.5l-12 -199h375v653q0 76 -11.5 142.5t-64.5 126.5q-45 51 -122 79.5t-216 36.5q-23 0 -46 1t-46 1h-215 q-135 -4 -221 -9t-146 -19q-104 -25 -157.5 -75t-69.5 -93q-10 -31 -13 -58.5t-7 -62.5l376 -2q8 27 17.5 42t22 22.5t29.5 10.5t46 3h258q76 0 119 -11.5t61 -44.5q10 -23 14.5 -48t6.5 -54v-82q-45 33 -78 51.5t-65.5 27.5t-70.5 10t-95 -1h-236q-74 0 -158 -7t-157 -44 q-27 -14 -51.5 -34.5t-43 -55.5t-29.5 -85t-11 -122zM485 336q0 16 4.5 27.5t8.5 17.5q20 35 54 41t73 8q41 4 77.5 5t73.5 5h105q80 -2 124 -7t74 -42q16 -20 20.5 -36.5t6.5 -24.5q0 -35 -21.5 -54.5t-27.5 -23.5q-31 -16 -90.5 -22.5t-139.5 -10.5h-129q-76 0 -117.5 6 t-68.5 41q-6 6 -16.5 24.5t-10.5 45.5zM526 1260l39 -148l541 98l-78 252z" />
<glyph unicode="&#xe2;" horiz-adv-x="1662" d="M109 299q0 -59 9 -100t24.5 -71t35 -48.5t41.5 -32.5q59 -37 124 -48t130 -13q59 -2 116.5 -5.5t115.5 -3.5q133 0 221 27t129 68q27 27 41 59.5t30 67.5l-12 -199h375v653q0 76 -11.5 142.5t-64.5 126.5q-45 51 -122 79.5t-216 36.5q-23 0 -46 1t-46 1h-215 q-135 -4 -221 -9t-146 -19q-104 -25 -157.5 -75t-69.5 -93q-10 -31 -13 -58.5t-7 -62.5l376 -2q8 27 17.5 42t22 22.5t29.5 10.5t46 3h258q76 0 119 -11.5t61 -44.5q10 -23 14.5 -48t6.5 -54v-82q-45 33 -78 51.5t-65.5 27.5t-70.5 10t-95 -1h-236q-74 0 -158 -7t-157 -44 q-27 -14 -51.5 -34.5t-43 -55.5t-29.5 -85t-11 -122zM375 1204l51 -125l389 133l379 -133l57 119l-436 281zM485 336q0 16 4.5 27.5t8.5 17.5q20 35 54 41t73 8q41 4 77.5 5t73.5 5h105q80 -2 124 -7t74 -42q16 -20 20.5 -36.5t6.5 -24.5q0 -35 -21.5 -54.5t-27.5 -23.5 q-31 -16 -90.5 -22.5t-139.5 -10.5h-129q-76 0 -117.5 6t-68.5 41q-6 6 -16.5 24.5t-10.5 45.5z" />
<glyph unicode="&#xe3;" horiz-adv-x="1662" d="M109 299q0 -59 9 -100t24.5 -71t35 -48.5t41.5 -32.5q59 -37 124 -48t130 -13q59 -2 116.5 -5.5t115.5 -3.5q133 0 221 27t129 68q27 27 41 59.5t30 67.5l-12 -199h375v653q0 76 -11.5 142.5t-64.5 126.5q-45 51 -122 79.5t-216 36.5q-23 0 -46 1t-46 1h-215 q-135 -4 -221 -9t-146 -19q-104 -25 -157.5 -75t-69.5 -93q-10 -31 -13 -58.5t-7 -62.5l376 -2q8 27 17.5 42t22 22.5t29.5 10.5t46 3h258q76 0 119 -11.5t61 -44.5q10 -23 14.5 -48t6.5 -54v-82q-45 33 -78 51.5t-65.5 27.5t-70.5 10t-95 -1h-236q-74 0 -158 -7t-157 -44 q-27 -14 -51.5 -34.5t-43 -55.5t-29.5 -85t-11 -122zM342 1118h176q23 43 36 60.5t36 25.5q8 4 21.5 7t35.5 3q47 0 87 -17t83 -34q16 -8 55 -19t93 -14q88 2 139 36t74 61q43 49 56 103t23 116h-184q-14 -33 -27.5 -57.5t-48.5 -34.5q-16 -4 -29.5 -5t-19.5 -1 q-47 0 -86 19t-80 38q-18 10 -54 22.5t-89 12.5q-59 0 -103 -18.5t-75 -45t-49.5 -54.5t-26.5 -44q-14 -29 -22.5 -61.5t-20.5 -98.5zM485 336q0 16 4.5 27.5t8.5 17.5q20 35 54 41t73 8q41 4 77.5 5t73.5 5h105q80 -2 124 -7t74 -42q16 -20 20.5 -36.5t6.5 -24.5 q0 -35 -21.5 -54.5t-27.5 -23.5q-31 -16 -90.5 -22.5t-139.5 -10.5h-129q-76 0 -117.5 6t-68.5 41q-6 6 -16.5 24.5t-10.5 45.5z" />
<glyph unicode="&#xe4;" horiz-adv-x="1662" d="M104 315q0 -66 9.5 -111.5t25 -77.5t37 -53.5t45.5 -35.5q31 -18 64.5 -28.5t64.5 -14.5t53.5 -6t32.5 -2q55 -4 110.5 -6.5t110.5 -2.5q221 0 314 41q20 8 36.5 18.5t33 28t33 43t38.5 64.5v-172h375v674q-2 78 -9.5 116.5t-25.5 75.5q-27 53 -59.5 81t-51.5 38 q-66 37 -170 48t-264 16h-49q-158 -4 -276.5 -9.5t-180.5 -21.5q-102 -25 -155 -75t-70 -91q-6 -18 -10 -38.5t-7 -39t-4 -32t-1 -17.5l376 -2q14 39 23 51q12 16 33.5 23.5t72.5 7.5h230q76 4 111.5 -5t62.5 -32q27 -27 32 -52.5t5 -60.5v-90q-37 29 -64.5 45.5t-54.5 25.5 t-58.5 12t-78.5 3h-365q-78 -4 -148.5 -16t-133.5 -64q-59 -47 -76 -112.5t-17 -143.5zM424 1116h303v223h-303v-223zM485 336q0 12 3.5 25.5t9.5 23.5q10 14 27.5 23.5t35 14.5t30.5 7t17 2q72 10 139.5 9t139.5 -1h53q31 0 61.5 -6t56 -20.5t38.5 -40.5q4 -12 5 -20.5 t1 -14.5q0 -35 -21 -62q-25 -33 -61.5 -39t-75.5 -10q-59 -6 -116.5 -7t-116.5 -1t-103.5 5t-68.5 20q-35 16 -44.5 45.5t-9.5 46.5zM862 1114h299v223h-299v-223z" />
<glyph unicode="&#xe5;" horiz-adv-x="1662" d="M98 299q0 -106 26 -157.5t60 -80.5q35 -29 77 -44t79 -22t65.5 -9t38.5 -2q29 0 54.5 -1t54.5 -1q29 -2 57 -2h62q274 0 362 81q23 20 38 46t40 81v-188h373v672q-2 68 -12.5 127t-53.5 116q-31 39 -71.5 65t-96 40t-127 19t-163.5 8h-195q-96 -2 -174 -5.5t-139.5 -13.5 t-109.5 -27.5t-87 -46.5q-61 -47 -77.5 -95t-20.5 -79q-4 -12 -4 -26q0 -12 -2 -27h376q16 43 29.5 56.5t38.5 17.5q12 4 22 4h35h230q59 0 100 -5t64 -20q33 -18 41 -55t12 -82v-78q-23 14 -45.5 29.5t-44.5 26.5q-20 10 -40 17t-43.5 10t-54 4t-75.5 -1h-258 q-74 -2 -157 -9t-155 -48q-29 -16 -52 -37.5t-40.5 -55.5t-27 -83t-9.5 -119zM481 334q0 14 10.5 40.5t45.5 43.5q33 16 81 20t123 4h154q49 -4 87 -7t56 -9q39 -16 51.5 -50t12.5 -48q0 -23 -9.5 -37.5t-15.5 -20.5q-16 -18 -37.5 -27.5t-68.5 -13.5q-41 -4 -80 -6t-80 -4 h-106q-53 4 -92.5 5t-61.5 9q-29 10 -49.5 39t-20.5 62zM498 1335q-10 -35 2 -76.5t39 -70.5q25 -27 59 -41q27 -12 63.5 -18.5t69.5 -9.5t55 -3h27q92 0 152.5 19.5t89.5 46.5q12 10 29.5 36.5t17.5 73.5q0 78 -64.5 130.5t-210.5 54.5q-16 0 -32.5 -1t-32.5 -3 q-53 -2 -104.5 -10.5t-98.5 -43.5q-20 -16 -37.5 -37.5t-23.5 -46.5zM627 1305q0 18 22 30q35 18 75 21.5t67 3.5q29 2 57 2q31 0 65 -14q18 -6 35 -17.5t17 -27.5t-17.5 -34t-38.5 -26q-14 -4 -26.5 -5t-40.5 1h-107q-27 0 -50 4t-44 29q-10 12 -12 20t-2 13z" />
<glyph unicode="&#xe6;" horiz-adv-x="2646" d="M96 330q0 -76 20.5 -143.5t71.5 -110.5q41 -33 86 -48.5t62 -19.5q86 -20 162.5 -21t158.5 -1h140q117 0 184.5 10t120.5 29q57 20 82.5 44.5t42.5 47.5q8 12 18 30q25 -45 39 -63t35 -33q37 -27 89 -40t108.5 -19t109.5 -7t92 -1q49 0 98.5 -1t98.5 -1q217 0 347 44 t183 142q25 45 31 83t8 89h-381q-10 -29 -20 -53.5t-31 -38.5q-18 -14 -46 -16.5t-34 -4.5q-29 -2 -53.5 -3t-50.5 -1h-86q-41 0 -82 1t-84 7q-37 4 -63.5 17.5t-47.5 48.5q-20 33 -23 65.5t-3 67.5l1001 2q2 49 3 107.5t-5 119t-20.5 118t-44.5 102.5q-37 55 -91.5 86.5 t-107.5 47t-96 19.5t-56 4q-25 0 -49 1t-47 1h-280q-68 -2 -135.5 -7t-127.5 -34q-53 -27 -76.5 -56.5t-35.5 -47.5q-16 23 -30.5 40t-37.5 34q-35 25 -78 39t-89 22t-92 10t-87 2h-287q-53 0 -105 -3t-101.5 -12t-94.5 -27.5t-82 -53.5q-51 -47 -64 -89t-18 -69 q-4 -16 -4 -32v-31h387q14 33 23.5 47t23.5 21q18 10 46 10h32q29 0 55.5 1t55.5 1q33 0 63.5 -1t63.5 -1q47 -2 94 -6t84 -39q25 -23 31 -47.5t6 -55.5q2 -23 1 -46t-1 -46q-35 27 -59.5 44.5t-49 26.5t-53.5 12t-74 3q-31 0 -60.5 1t-57.5 1h-263q-72 -2 -142.5 -10 t-135.5 -49q-23 -14 -44.5 -33.5t-36.5 -49.5t-24.5 -73t-9.5 -104zM479 326q0 12 10.5 43.5t45.5 50.5q18 10 41.5 12t29.5 2q23 2 45.5 3t44.5 1h228q41 -2 82 -7t73 -46q23 -27 23 -57q0 -25 -14.5 -45.5t-34.5 -30.5q-12 -6 -28.5 -10t-31 -6.5t-25 -3.5t-12.5 -1 q-80 -6 -157 -6h-62q-29 0 -59 2q-74 2 -113 9.5t-65 35.5q-12 16 -16.5 29.5t-4.5 24.5zM1470 647q4 27 6.5 40t6.5 26q4 6 14 21.5t29 31.5q41 29 92 33t104 2h162q70 0 109 -8.5t60.5 -25.5t30.5 -47t17 -73h-631z" />
<glyph unicode="&#xe7;" horiz-adv-x="1662" d="M100 522q0 -104 12.5 -178t28.5 -115q4 -12 14.5 -32.5t27 -44t42 -48t60.5 -45.5q59 -33 149 -50t238 -25q43 -2 86 -3t88 -1q135 0 240.5 11t152.5 21q96 23 147.5 62t73.5 73q14 20 24.5 44t16.5 54.5t10.5 71.5t8.5 97l-385 2q-4 -29 -10.5 -48.5t-24.5 -39.5 q-18 -18 -41 -28.5t-44.5 -14.5t-37.5 -5t-23 -1q-41 -2 -77.5 -3.5t-75.5 -1.5q-80 0 -140.5 6.5t-89.5 24.5q-31 16 -56.5 65.5t-25.5 131.5q0 8 1.5 34.5t8.5 60.5t23.5 65.5t46.5 50.5q16 10 42 17t73 11q39 4 76 6.5t74 2.5q76 0 131 -8.5t84 -18.5q14 -6 27.5 -15.5 t23.5 -21.5q16 -16 19 -32.5t7 -39.5h383q0 63 -5 120t-36 116q-53 98 -140 132t-198 46q-74 8 -144.5 11t-141.5 3q-211 0 -362.5 -20.5t-229.5 -77.5q-57 -43 -88 -111.5t-45.5 -135t-16.5 -118t-2 -57.5zM489 -201l78 -137l389 92l-131 215z" />
<glyph unicode="&#xe8;" horiz-adv-x="1622" d="M100 528q0 -127 13.5 -198.5t44.5 -128.5q23 -43 44 -66.5t38 -36.5q37 -29 78.5 -48t88 -31.5t93.5 -19.5t90 -9q29 -4 57 -4q31 0 60 -2h223q59 0 117.5 3t115 13t107.5 31.5t94 60.5q55 49 69.5 94t18.5 74q4 16 4 33v35l-373 2q-4 -29 -10 -42.5t-14 -23.5 q-12 -16 -53 -31q-47 -16 -99 -16h-98h-129q-63 0 -123 35q-27 16 -41 34.5t-20.5 41t-7.5 48t1 56.5h967q0 74 1 129t-2 100.5t-11 81t-25 70.5q-18 41 -42.5 69.5t-37.5 39.5q-41 39 -95 63.5t-161 38.5q-74 10 -147.5 13t-144.5 3q-57 0 -131 -3t-151 -13t-147.5 -31.5 t-119.5 -60.5q-47 -37 -89 -114t-51 -212q0 -20 -1 -38.5t-1 -39.5zM489 635q-2 35 1.5 58.5t27.5 49.5q27 29 59.5 38.5t71.5 13.5q41 4 82 6t82 2q80 0 143.5 -10.5t90.5 -32.5q16 -16 25 -42t13 -81zM500 1204l534 -100l45 143l-499 201z" />
<glyph unicode="&#xe9;" horiz-adv-x="1622" d="M100 528q0 -127 13.5 -198.5t44.5 -128.5q23 -43 44 -66.5t38 -36.5q37 -29 78.5 -48t88 -31.5t93.5 -19.5t90 -9q29 -4 57 -4q31 0 60 -2h223q59 0 117.5 3t115 13t107.5 31.5t94 60.5q55 49 69.5 94t18.5 74q4 16 4 33v35l-373 2q-4 -29 -10 -42.5t-14 -23.5 q-12 -16 -53 -31q-47 -16 -99 -16h-98h-129q-63 0 -123 35q-27 16 -41 34.5t-20.5 41t-7.5 48t1 56.5h967q0 74 1 129t-2 100.5t-11 81t-25 70.5q-18 41 -42.5 69.5t-37.5 39.5q-41 39 -95 63.5t-161 38.5q-74 10 -147.5 13t-144.5 3q-57 0 -131 -3t-151 -13t-147.5 -31.5 t-119.5 -60.5q-47 -37 -89 -114t-51 -212q0 -20 -1 -38.5t-1 -39.5zM489 635q-2 35 1.5 58.5t27.5 49.5q27 29 59.5 38.5t71.5 13.5q41 4 82 6t82 2q80 0 143.5 -10.5t90.5 -32.5q16 -16 25 -42t13 -81zM506 1260l39 -148l540 98l-77 252z" />
<glyph unicode="&#xea;" horiz-adv-x="1622" d="M100 528q0 -127 13.5 -198.5t44.5 -128.5q23 -43 44 -66.5t38 -36.5q37 -29 78.5 -48t88 -31.5t93.5 -19.5t90 -9q29 -4 57 -4q31 0 60 -2h223q59 0 117.5 3t115 13t107.5 31.5t94 60.5q55 49 69.5 94t18.5 74q4 16 4 33v35l-373 2q-4 -29 -10 -42.5t-14 -23.5 q-12 -16 -53 -31q-47 -16 -99 -16h-98h-129q-63 0 -123 35q-27 16 -41 34.5t-20.5 41t-7.5 48t1 56.5h967q0 74 1 129t-2 100.5t-11 81t-25 70.5q-18 41 -42.5 69.5t-37.5 39.5q-41 39 -95 63.5t-161 38.5q-74 10 -147.5 13t-144.5 3q-57 0 -131 -3t-151 -13t-147.5 -31.5 t-119.5 -60.5q-47 -37 -89 -114t-51 -212q0 -20 -1 -38.5t-1 -39.5zM352 1204l54 -125l387 133l381 -133l57 119l-438 281zM489 635q-2 35 1.5 58.5t27.5 49.5q27 29 59.5 38.5t71.5 13.5q41 4 82 6t82 2q80 0 143.5 -10.5t90.5 -32.5q16 -16 25 -42t13 -81z" />
<glyph unicode="&#xeb;" horiz-adv-x="1622" d="M100 528q0 -127 13.5 -198.5t44.5 -128.5q23 -43 44 -66.5t38 -36.5q37 -29 78.5 -48t88 -31.5t93.5 -19.5t90 -9q29 -4 57 -4q31 0 60 -2h223q59 0 117.5 3t115 13t107.5 31.5t94 60.5q55 49 69.5 94t18.5 74q4 16 4 33v35l-373 2q-4 -29 -10 -42.5t-14 -23.5 q-12 -16 -53 -31q-47 -16 -99 -16h-98h-129q-63 0 -123 35q-27 16 -41 34.5t-20.5 41t-7.5 48t1 56.5h967q0 74 1 129t-2 100.5t-11 81t-25 70.5q-18 41 -42.5 69.5t-37.5 39.5q-41 39 -95 63.5t-161 38.5q-74 10 -147.5 13t-144.5 3q-57 0 -131 -3t-151 -13t-147.5 -31.5 t-119.5 -60.5q-47 -37 -89 -114t-51 -212q0 -20 -1 -38.5t-1 -39.5zM424 1110h297v221h-297v-221zM489 635q-2 35 1.5 58.5t27.5 49.5q27 29 59.5 38.5t71.5 13.5q41 4 82 6t82 2q80 0 143.5 -10.5t90.5 -32.5q16 -16 25 -42t13 -81zM858 1112h303v221h-303v-221z" />
<glyph unicode="&#xec;" horiz-adv-x="681" d="M31 1204l534 -100l45 143l-501 201zM129 0h383v1024h-383v-1024z" />
<glyph unicode="&#xed;" horiz-adv-x="681" d="M35 1260l41 -148l540 98l-77 252zM129 0h383v1024h-383v-1024z" />
<glyph unicode="&#xee;" horiz-adv-x="681" d="M-117 1204l54 -125l387 133l381 -133l57 119l-438 281zM129 0h383v1024h-383v-1024z" />
<glyph unicode="&#xef;" horiz-adv-x="681" d="M-45 1110h297v221h-297v-221zM129 0h383v1024h-383v-1024zM389 1112h303v221h-303v-221z" />
<glyph unicode="&#xf1;" d="M137 0h377v446q0 68 4 102t17 62q14 33 40.5 56.5t54 38t51.5 21.5t34 9q12 2 33.5 5t52.5 3q8 0 37.5 -1t63.5 -3t63.5 -4t40.5 -4q12 -2 31.5 -6t41 -16.5t41 -35t29.5 -61.5q6 -27 6 -59v-35v-518h379v596q-6 96 -16.5 145.5t-30.5 89.5q-16 31 -41 59t-53 50 q-53 41 -111.5 61.5t-110 29.5t-90.5 10t-57 1q-74 0 -131 -3t-102.5 -9t-81 -17.5t-68.5 -29.5q-45 -23 -67.5 -49.5t-32.5 -42.5q-16 -25 -29 -47v180h-375v-1024zM362 1118h179q20 43 34.5 60.5t36.5 25.5q8 4 20.5 7t35.5 3q47 0 88 -17l82 -34q16 -8 55 -19t92 -14 q90 2 141.5 36t73.5 61q41 49 55.5 103t22.5 116h-184q-12 -33 -26.5 -57.5t-49.5 -34.5q-14 -4 -28.5 -5t-18.5 -1q-47 0 -86 19t-80 38q-18 10 -54 22.5t-89 12.5q-59 0 -103.5 -18.5t-75 -45t-49 -54.5t-26.5 -44q-14 -29 -23.5 -61.5t-22.5 -98.5z" />
<glyph unicode="&#xf2;" d="M111 461q0 -45 3 -90t12 -89t26.5 -85t50.5 -76q43 -47 104.5 -74t122.5 -39q20 -4 39.5 -6t38.5 -6q45 -4 89 -5t89 -3q88 -6 182 -6q86 0 173 6t176 12q66 14 126 33.5t113 66.5q10 8 28.5 30t33.5 50q18 35 27 76t14 84q4 51 7 100t3 99q0 29 -1 54t-3 54 q-4 70 -18.5 135.5t-63.5 122.5q-53 63 -130 86t-163 37l-172 8t-172 4q-90 0 -177 -5t-177 -11q-74 -10 -143.5 -27.5t-131.5 -70.5q-59 -51 -76.5 -116t-23.5 -144q-6 -105 -6 -205zM492 500q0 49 4 97t32 91q27 37 61 47t79 17q57 8 84.5 9t58.5 1q59 0 125 -6 q35 -2 65 -2q31 0 57.5 -6.5t50.5 -21.5t46 -46q27 -41 31 -73t4 -48t-1 -33.5t-3 -33.5q-4 -37 -6 -74t-17 -68q-8 -14 -24.5 -31.5t-57.5 -31.5q-51 -16 -101 -19.5t-62 -3.5q-33 0 -66 1t-66 3l-73 6q-63 4 -94 8.5t-58 20.5q-16 10 -25.5 22.5t-13.5 16.5 q-25 39 -27.5 78t-2.5 80zM543 1204l534 -100l45 143l-501 201z" />
<glyph unicode="&#xf3;" d="M111 461q0 -45 3 -90t12 -89t26.5 -85t50.5 -76q43 -47 104.5 -74t122.5 -39q20 -4 39.5 -6t38.5 -6q45 -4 89 -5t89 -3q88 -6 182 -6q86 0 173 6t176 12q66 14 126 33.5t113 66.5q10 8 28.5 30t33.5 50q18 35 27 76t14 84q4 51 7 100t3 99q0 29 -1 54t-3 54 q-4 70 -18.5 135.5t-63.5 122.5q-53 63 -130 86t-163 37l-172 8t-172 4q-90 0 -177 -5t-177 -11q-74 -10 -143.5 -27.5t-131.5 -70.5q-59 -51 -76.5 -116t-23.5 -144q-6 -105 -6 -205zM492 500q0 49 4 97t32 91q27 37 61 47t79 17q57 8 84.5 9t58.5 1q59 0 125 -6 q35 -2 65 -2q31 0 57.5 -6.5t50.5 -21.5t46 -46q27 -41 31 -73t4 -48t-1 -33.5t-3 -33.5q-4 -37 -6 -74t-17 -68q-8 -14 -24.5 -31.5t-57.5 -31.5q-51 -16 -101 -19.5t-62 -3.5q-33 0 -66 1t-66 3l-73 6q-63 4 -94 8.5t-58 20.5q-16 10 -25.5 22.5t-13.5 16.5 q-25 39 -27.5 78t-2.5 80zM547 1260l41 -148l540 98l-77 252z" />
<glyph unicode="&#xf4;" d="M111 461q0 -45 3 -90t12 -89t26.5 -85t50.5 -76q43 -47 104.5 -74t122.5 -39q20 -4 39.5 -6t38.5 -6q45 -4 89 -5t89 -3q88 -6 182 -6q86 0 173 6t176 12q66 14 126 33.5t113 66.5q10 8 28.5 30t33.5 50q18 35 27 76t14 84q4 51 7 100t3 99q0 29 -1 54t-3 54 q-4 70 -18.5 135.5t-63.5 122.5q-53 63 -130 86t-163 37l-172 8t-172 4q-90 0 -177 -5t-177 -11q-74 -10 -143.5 -27.5t-131.5 -70.5q-59 -51 -76.5 -116t-23.5 -144q-6 -105 -6 -205zM375 1204l51 -125l389 133l379 -133l57 119l-436 281zM492 500q0 49 4 97t32 91 q27 37 61 47t79 17q57 8 84.5 9t58.5 1q59 0 125 -6q35 -2 65 -2q31 0 57.5 -6.5t50.5 -21.5t46 -46q27 -41 31 -73t4 -48t-1 -33.5t-3 -33.5q-4 -37 -6 -74t-17 -68q-8 -14 -24.5 -31.5t-57.5 -31.5q-51 -16 -101 -19.5t-62 -3.5q-33 0 -66 1t-66 3l-73 6q-63 4 -94 8.5 t-58 20.5q-16 10 -25.5 22.5t-13.5 16.5q-25 39 -27.5 78t-2.5 80z" />
<glyph unicode="&#xf5;" d="M111 461q0 -45 3 -90t12 -89t26.5 -85t50.5 -76q43 -47 104.5 -74t122.5 -39q20 -4 39.5 -6t38.5 -6q45 -4 89 -5t89 -3q88 -6 182 -6q86 0 173 6t176 12q66 14 126 33.5t113 66.5q10 8 28.5 30t33.5 50q18 35 27 76t14 84q4 51 7 100t3 99q0 29 -1 54t-3 54 q-4 70 -18.5 135.5t-63.5 122.5q-53 63 -130 86t-163 37l-172 8t-172 4q-90 0 -177 -5t-177 -11q-74 -10 -143.5 -27.5t-131.5 -70.5q-59 -51 -76.5 -116t-23.5 -144q-6 -105 -6 -205zM362 1118h179q20 43 34.5 60.5t36.5 25.5q8 4 20.5 7t35.5 3q47 0 88 -17l82 -34 q16 -8 55 -19t92 -14q90 2 141.5 36t73.5 61q41 49 55.5 103t22.5 116h-184q-12 -33 -26.5 -57.5t-49.5 -34.5q-14 -4 -28.5 -5t-18.5 -1q-47 0 -86 19t-80 38q-18 10 -54 22.5t-89 12.5q-59 0 -103.5 -18.5t-75 -45t-49 -54.5t-26.5 -44q-14 -29 -23.5 -61.5t-22.5 -98.5z M492 500q0 49 4 97t32 91q27 37 61 47t79 17q57 8 84.5 9t58.5 1q59 0 125 -6q35 -2 65 -2q31 0 57.5 -6.5t50.5 -21.5t46 -46q27 -41 31 -73t4 -48t-1 -33.5t-3 -33.5q-4 -37 -6 -74t-17 -68q-8 -14 -24.5 -31.5t-57.5 -31.5q-51 -16 -101 -19.5t-62 -3.5q-33 0 -66 1 t-66 3l-73 6q-63 4 -94 8.5t-58 20.5q-16 10 -25.5 22.5t-13.5 16.5q-25 39 -27.5 78t-2.5 80z" />
<glyph unicode="&#xf6;" d="M109 455q0 -88 10 -164t65 -150q12 -16 38 -42.5t71 -49.5q66 -35 174 -50t270 -15h135q145 2 238.5 6t155.5 18q18 4 69 21.5t101 56.5q49 37 74.5 82t38 96t14.5 104.5t2 108.5q2 29 2 58v57q0 150 -33 229.5t-92 126.5q-70 55 -152 71.5t-168 20.5q-70 4 -137 6.5 t-137 2.5q-211 0 -357.5 -16.5t-228.5 -67.5q-29 -18 -46 -37t-28 -29q-51 -61 -61 -122.5t-14 -137.5q-2 -47 -3 -92t-1 -92zM473 1116h297v221h-297v-221zM492 451v45q0 49 5 100t35 96q20 31 50 44.5t100 19.5q35 4 65.5 6t63.5 2t64.5 -2t64.5 -4t61 -2q29 0 55.5 -6.5 t50 -20.5t44.5 -43q23 -31 30 -62.5t7 -66.5q0 -12 -1 -35.5t-3 -49.5t-5 -49.5t-5 -35.5q-6 -23 -13.5 -36t-15.5 -21q-25 -25 -60.5 -38t-70.5 -18.5t-62 -5.5h-26q-29 0 -55.5 1t-53.5 1q-78 4 -132 7.5t-89 13.5q-37 12 -57.5 34.5t-30.5 47t-13 46t-3 32.5zM905 1114 h301v223h-301v-223z" />
<glyph unicode="&#xf7;" horiz-adv-x="1366" d="M0 465h1366v260h-1366v-260zM518 225q-2 -72 46 -117t118 -45q70 -2 117 45t49 117q0 72 -48 119t-118 47t-117 -48t-47 -118zM518 961q-2 -72 47 -118t117 -46q70 0 117 46.5t49 114.5q0 72 -48 119t-118 49q-49 -2 -90 -26.5t-62 -71.5q-10 -23 -11 -40t-1 -27z" />
<glyph unicode="&#xf8;" d="M12 -29l217 121q41 -20 84 -40.5t86 -33.5q47 -14 95.5 -17t97.5 -5q106 -6 211 -6q74 0 145.5 4t133 9t107.5 10t68 10q53 10 98.5 29.5t88.5 53.5q43 33 66.5 71t34.5 80t14.5 89t3.5 100v127v74t-4.5 56.5t-13.5 54t-23 69.5l139 78v172l-229 -125q-35 23 -53.5 34 t-37.5 20q-45 18 -102 27t-109.5 13.5t-89.5 4.5h-39q-111 0 -217 -7q-82 -4 -141 -6t-106.5 -7t-86 -11t-79.5 -19q-45 -12 -84 -29.5t-74 -51.5q-35 -33 -54.5 -72t-29.5 -82t-13 -89t-5 -93v-74q-2 -63 -1 -103t5 -71t10 -57.5t16 -61.5l-129 -67v-179zM471 532 q0 86 27.5 138.5t58.5 68.5q29 18 101.5 28.5t162.5 10.5q70 0 138.5 -5t138.5 -13l-617 -350q-6 49 -8 72.5t-2 49.5zM578 291l612 350q6 -96 5 -163.5t-17 -108.5q-6 -16 -12.5 -24.5t-12.5 -14.5q-41 -41 -100.5 -53.5t-110.5 -16.5h-213q-35 0 -55.5 2t-35.5 6 t-28.5 9.5t-31.5 13.5z" />
<glyph unicode="&#xf9;" d="M137 406q6 -59 15.5 -119t35.5 -111q8 -14 32 -47t65 -61q49 -35 113.5 -52.5t123 -24.5t101.5 -7h51h88t90 5t88 15t82 31q55 27 80.5 59.5t54.5 83.5v-178h377v1024h-379v-516q-2 -12 -5 -51t-26 -76q-18 -31 -45 -51q-47 -35 -113.5 -43t-121.5 -8q-53 0 -107.5 3 t-70.5 5q-35 6 -65 19t-52 44q-14 18 -20.5 39t-9.5 39t-3 33v20v543h-379v-618zM543 1204l534 -100l45 143l-501 201z" />
<glyph unicode="&#xfa;" d="M137 406q6 -59 15.5 -119t35.5 -111q8 -14 32 -47t65 -61q49 -35 113.5 -52.5t123 -24.5t101.5 -7h51h88t90 5t88 15t82 31q55 27 80.5 59.5t54.5 83.5v-178h377v1024h-379v-516q-2 -12 -5 -51t-26 -76q-18 -31 -45 -51q-47 -35 -113.5 -43t-121.5 -8q-53 0 -107.5 3 t-70.5 5q-35 6 -65 19t-52 44q-14 18 -20.5 39t-9.5 39t-3 33v20v543h-379v-618zM547 1260l41 -148l540 98l-77 252z" />
<glyph unicode="&#xfb;" d="M137 406q6 -59 15.5 -119t35.5 -111q8 -14 32 -47t65 -61q49 -35 113.5 -52.5t123 -24.5t101.5 -7h51h88t90 5t88 15t82 31q55 27 80.5 59.5t54.5 83.5v-178h377v1024h-379v-516q-2 -12 -5 -51t-26 -76q-18 -31 -45 -51q-47 -35 -113.5 -43t-121.5 -8q-53 0 -107.5 3 t-70.5 5q-35 6 -65 19t-52 44q-14 18 -20.5 39t-9.5 39t-3 33v20v543h-379v-618zM395 1204l54 -125l387 133l381 -133l57 119l-438 281z" />
<glyph unicode="&#xfc;" d="M133 442q2 -53 7 -102t18.5 -93t37 -84t66.5 -77q16 -12 52 -35.5t89 -40.5q39 -10 75 -14t77 -8q45 -4 89 -6t89 -2q131 0 218 26.5t132 65.5q25 23 41.5 48t32.5 56v-176h381v1024h-381v-469q-2 -43 -5 -80t-14.5 -66.5t-34 -54t-61.5 -43.5q-55 -27 -104 -29.5 t-66 -2.5q-35 0 -68.5 2t-70.5 4q-53 2 -99 9t-79 48q-27 35 -32 72t-7 78v532h-383v-582zM463 1120h303v230h-303v-230zM895 1116h303v225h-303v-225z" />
<glyph unicode="&#xff;" horiz-adv-x="1492" d="M4 1024l457 -1024h145q-23 -49 -41 -84t-35 -55q-16 -20 -38.5 -32.5t-79.5 -16.5q-31 -2 -62 -2h-59v-263q43 -4 87 -6t87 -2q123 0 199.5 29t115.5 67q16 16 32.5 40t39.5 69l557 1202l39 78h-410l-327 -745l-295 745h-412zM360 1110h297v221h-297v-221zM795 1112h303 v221h-303v-221z" />
<glyph unicode="&#x152;" horiz-adv-x="3241" d="M111 649q0 -109 6 -185.5t16 -121.5q18 -84 55 -139.5t81 -90t88 -52t75 -25.5q49 -14 104.5 -20.5t102.5 -9.5t83 -4t46 -1q88 -2 174 -5t176 -3q104 0 183 6t120 14q37 8 66 19.5t53.5 28t48 38t49.5 49.5l2 -147h1442v324h-1050v243h974v305h-970v242h1036v332h-1427 v-156q-29 35 -54.5 60.5t-66.5 48.5q-68 35 -139.5 42t-143.5 9q-78 4 -153.5 6t-151.5 2q-59 0 -114.5 -1t-112.5 -3q-61 -2 -121 -4t-117 -13.5t-110.5 -36t-102.5 -67.5t-76.5 -91t-42 -101.5t-17.5 -111.5t-5 -120q-6 -133 -6 -260zM547 666q0 63 1 122.5t7 108.5 t17.5 86t33.5 59q16 16 46 28.5t83 23.5q31 4 72 7t78 4t61 1h29q72 0 139.5 -2t136.5 -4q74 -2 127 -2q55 0 95 -7.5t69 -23.5t53 -51q18 -29 28.5 -57.5t16 -54t5.5 -46.5v-29q0 -33 -2.5 -64.5t-2.5 -64.5q-2 -49 -2 -88t-3 -69.5t-10 -55t-21 -47.5q-12 -16 -44 -44.5 t-85 -43.5q-31 -10 -58.5 -12t-87.5 -2h-149q-66 0 -129.5 1t-128.5 3q-102 4 -162 6t-103 25q-29 14 -44 32.5t-21 28.5q-35 53 -40 112.5t-5 119.5z" />
<glyph unicode="&#x153;" horiz-adv-x="2686" d="M104 563q0 -152 10.5 -242t47.5 -149q12 -20 38.5 -49t80.5 -57q63 -35 132.5 -51.5t142.5 -22.5t144.5 -5t139.5 1q72 0 129 1t103 4t83 10t70 20q57 25 84.5 56.5t42.5 51.5q23 -29 43 -49.5t51 -38.5q39 -23 87 -34t91 -16t76 -6t39 -1q31 -2 61 -2h62q35 0 68.5 -1 t68.5 -1q172 0 281.5 28.5t170.5 81.5q37 33 55.5 68t27 67.5t8.5 59.5v45l-379 2q-2 -29 -6.5 -44.5t-16.5 -25.5q-29 -33 -80 -38t-137 -7h-108q-78 2 -127.5 8t-79.5 27q-43 29 -52.5 81t-11.5 97h1000q0 94 -1 165t-6 110q-4 35 -23.5 95t-86.5 124q-72 66 -154 86 t-174 24q-37 2 -74 2h-71q-49 2 -99 2h-100h-45t-96 -7t-113.5 -26.5t-99.5 -58.5q-14 -14 -28.5 -34.5t-16.5 -22.5q-25 35 -40.5 51t-33.5 29q-29 20 -60.5 31.5t-60 17.5t-51.5 9t-31 3q-53 4 -103 6t-102 2q-152 0 -272.5 -7t-177.5 -15q-14 -2 -39 -7t-55.5 -16.5 t-65.5 -31t-65 -50.5q-27 -27 -44.5 -58.5t-28.5 -72.5t-16.5 -94t-5.5 -125zM477 512q0 55 3 103.5t44 91.5q23 23 51.5 33t90.5 14q94 6 188 6q106 0 169.5 -9.5t102.5 -43.5q33 -29 44.5 -68t11.5 -117q0 -66 -5.5 -107.5t-19.5 -66.5q-10 -18 -29.5 -35.5t-68.5 -31.5 q-57 -16 -108.5 -18.5t-65.5 -2.5q-27 0 -53.5 1t-53.5 3q-35 2 -71 2q-35 0 -69 6.5t-63.5 19.5t-54.5 42q-35 41 -39 83t-4 95zM1534 635q8 35 17.5 66.5t31.5 54.5q35 35 114 44t185 9q131 0 184 -16q47 -16 67.5 -43t27.5 -48q4 -14 6 -31.5t2 -33.5z" />
<glyph unicode="&#x178;" horiz-adv-x="2174" d="M16 1446l822 -940v-506h452v506l836 940h-578l-487 -590l-486 590h-559zM559 1585h397v256h-397v-256zM1169 1585h400v256h-400v-256z" />
<glyph unicode="&#x2c6;" horiz-adv-x="641" d="M-352 1204l53 -125l389 133l379 -133l57 119l-436 281z" />
<glyph unicode="&#x2dc;" horiz-adv-x="641" d="M-383 1118h176q23 43 36 60.5t36 25.5q8 4 21.5 7t35.5 3q47 0 87 -17t83 -34q16 -8 55 -19t93 -14q88 2 139 36t74 61q43 49 56 103t23 116h-184q-14 -33 -27.5 -57.5t-48.5 -34.5q-16 -4 -29.5 -5t-19.5 -1q-47 0 -86 19t-80 38q-18 10 -54 22.5t-89 12.5 q-59 0 -103 -18.5t-75 -45t-49.5 -54.5t-26.5 -44q-14 -29 -23.5 -61.5t-19.5 -98.5z" />
<glyph unicode="&#x2000;" horiz-adv-x="978" />
<glyph unicode="&#x2001;" horiz-adv-x="1956" />
<glyph unicode="&#x2002;" horiz-adv-x="978" />
<glyph unicode="&#x2003;" horiz-adv-x="1956" />
<glyph unicode="&#x2004;" horiz-adv-x="652" />
<glyph unicode="&#x2005;" horiz-adv-x="489" />
<glyph unicode="&#x2006;" horiz-adv-x="326" />
<glyph unicode="&#x2007;" horiz-adv-x="326" />
<glyph unicode="&#x2008;" horiz-adv-x="244" />
<glyph unicode="&#x2009;" horiz-adv-x="391" />
<glyph unicode="&#x200a;" horiz-adv-x="108" />
<glyph unicode="&#x2010;" horiz-adv-x="1193" d="M72 387h1018v377h-1018v-377z" />
<glyph unicode="&#x2011;" horiz-adv-x="1193" d="M72 387h1018v377h-1018v-377z" />
<glyph unicode="&#x2012;" horiz-adv-x="1193" d="M72 387h1018v377h-1018v-377z" />
<glyph unicode="&#x2013;" horiz-adv-x="1622" d="M70 416h1419v315h-1419v-315z" />
<glyph unicode="&#x2014;" horiz-adv-x="1366" d="M0 465h1366v260h-1366v-260z" />
<glyph unicode="&#x2018;" horiz-adv-x="641" d="M106 668h439v401h-131q10 49 20 79t29.5 46t51.5 21.5t85 7.5l2 223q-31 2 -74 3t-87 0t-87 -5t-75 -14q-74 -23 -108 -69t-44 -75q-6 -14 -9 -31.5t-6 -33t-4.5 -26.5t-1.5 -13v-514z" />
<glyph unicode="&#x2019;" horiz-adv-x="641" d="M43 668q166 -2 264.5 12t157.5 76q25 25 38 50t20 49t10.5 43.5t3.5 31.5q2 14 2 28v31v457h-435v-389h129q-8 -41 -18 -77t-43 -56q-18 -12 -38.5 -17.5t-39 -6.5t-33.5 -1h-16z" />
<glyph unicode="&#x201a;" horiz-adv-x="628" d="M47 -154v-229h137t106.5 6t84.5 20.5t69 39.5q57 45 72.5 95t22.5 118v505h-439v-401h133q-2 -29 -5 -51.5t-17 -46.5q-27 -41 -70 -48.5t-94 -7.5z" />
<glyph unicode="&#x201c;" horiz-adv-x="1280" d="M106 666h431v399h-134q6 31 11.5 54.5t15.5 42t25.5 31.5t42.5 19q16 4 36.5 7.5t61.5 5.5l2 221q-111 4 -184.5 3t-122.5 -13q-45 -10 -75 -32t-49.5 -46.5t-29.5 -48t-14 -39.5q-10 -35 -17 -119v-485zM739 668h428v397h-123q10 55 24.5 93t61.5 54q23 8 47.5 10.5 t53.5 4.5v219q-80 2 -143.5 3t-113.5 -6t-88 -24.5t-69 -48.5q-49 -53 -61.5 -108.5t-16.5 -120.5v-473z" />
<glyph unicode="&#x201d;" horiz-adv-x="1280" d="M41 672q127 -4 209 2t139 31q33 14 54.5 34.5t36 42t22.5 40t12 30.5q14 43 16 88t2 55v451h-426v-387h123q-10 -53 -20 -84t-29.5 -47.5t-52.5 -21.5t-84 -5zM674 674q78 -4 140.5 -5t111.5 6t88 23.5t67 44.5q57 53 69.5 116t16.5 134v453h-430v-389h131 q-12 -51 -23 -81t-31.5 -46.5t-53.5 -22.5t-86 -6v-227z" />
<glyph unicode="&#x201e;" horiz-adv-x="1280" d="M41 -387q115 -2 190.5 2t128.5 20q16 6 43 18.5t56 47.5q45 51 56 104.5t15 118.5v473h-426v-397h115q0 -18 1 -29.5t-3 -29.5q-6 -33 -21.5 -51.5t-34 -29t-34.5 -13.5t-27 -3q-14 -2 -28.5 -3t-28.5 -1zM668 -387q117 -2 196.5 1t128.5 19q31 10 55.5 24.5t47.5 41.5 q41 49 51 100t14 113v487h-428v-399h125q-4 -43 -13 -79t-44 -56q-18 -10 -40 -15.5t-41.5 -7.5t-33.5 -1t-16 1z" />
<glyph unicode="&#x2022;" horiz-adv-x="681" d="M25 723q0 -92 50 -172t134 -119q16 -8 52 -18.5t87 -10.5q94 0 171 47.5t114 137.5q18 41 22 78t4 55q0 68 -19 118t-47 84.5t-58.5 56t-53.5 32.5q-16 8 -51 18t-84 10q-66 0 -124 -24.5t-102 -67.5t-69.5 -100t-25.5 -125z" />
<glyph unicode="&#x2026;" horiz-adv-x="2048" d="M178 152q0 -37 12.5 -65t30 -46t34.5 -28.5t30 -14.5q20 -8 34.5 -9t22.5 -1q72 0 117 48t45 118q0 68 -46 114.5t-114 46.5q-70 0 -118 -48t-48 -115zM862 152q0 -55 29 -96.5t80 -57.5q8 -4 21.5 -7t33.5 -3q70 0 116 48t46 118q-2 68 -48 114.5t-114 46.5 q-47 0 -88 -24.5t-61 -69.5q-4 -10 -9.5 -27.5t-5.5 -41.5zM1544 152q0 -37 12.5 -65t29 -46t34.5 -28.5t31 -14.5q20 -8 33.5 -9t23.5 -1q70 0 116 48t46 118q0 68 -47 114.5t-115 46.5t-116 -48t-48 -115z" />
<glyph unicode="&#x202f;" horiz-adv-x="391" />
<glyph unicode="&#x205f;" horiz-adv-x="489" />
<glyph unicode="&#x2122;" horiz-adv-x="1409" d="M0 1309h209v-543h174v543h205v137h-588v-137zM643 766h168l-10 362q-2 35 -6 68t-9 68q4 -14 7.5 -28.5t7.5 -31.5q4 -10 7 -21.5t7 -23.5l121 -393h154l114 391q8 29 14.5 55.5t14.5 53.5q-10 -68 -12 -138l-9 -362h168v680h-219l-145 -490l-156 490h-217v-680z" />
<glyph unicode="&#xe000;" horiz-adv-x="1024" d="M0 0v1024h1024v-1024h-1024z" />
<glyph unicode="&#xfb01;" horiz-adv-x="1622" d="M8 760h199v-760h383v762h340v258h-338q0 49 6 93t35 69q27 23 68.5 32t111.5 13h96v252h-211q-80 -2 -141 -7.5t-109.5 -17.5t-84 -31.5t-64.5 -50.5q-53 -55 -66.5 -108.5t-17.5 -81.5q-2 -16 -3 -35t-3 -37v-92h-201v-258zM1067 0h379v1024h-379v-1024zM1069 1165h379 v281h-379v-281z" />
<glyph unicode="&#xfb02;" horiz-adv-x="1622" d="M8 760h199v-760h383v762h340v258h-338q0 49 6 93t35 69q27 23 68.5 32t111.5 13h96v252h-211q-80 -2 -141 -7.5t-109.5 -17.5t-84 -31.5t-64.5 -50.5q-53 -55 -66.5 -108.5t-17.5 -81.5q-2 -16 -3 -35t-3 -37v-92h-201v-258zM1069 0h377v1446h-377v-1446z" />
</font>
</defs>
</svg>
